G04 ================== begin FILE IDENTIFICATION RECORD ==================*
G04 Layout Name:  D:/Project/Circuit/ORCAD/BVP/04v1/pcb/BVP_04V1.brd*
G04 Film Name:    BOTTOM*
G04 File Format:  Gerber RS274X*
G04 File Origin:  Cadence Allegro 16.6-S018*
G04 Origin Date:  Fri Nov 08 18:14:28 2013*
G04 *
G04 Layer:  VIA CLASS/BOTTOM*
G04 Layer:  PIN/BOTTOM*
G04 Layer:  ETCH/BOTTOM*
G04 *
G04 Offset:    (0.000 0.000)*
G04 Mirror:    No*
G04 Mode:      Positive*
G04 Rotation:  0*
G04 FullContactRelief:  No*
G04 UndefLineWidth:     0.250*
G04 ================== end FILE IDENTIFICATION RECORD ====================*
%FSLAX34Y34*MOMM*%
%IR0*IPPOS*OFA0.00000B0.00000*MIA0B0*SFA1.00000B1.00000*%
%ADD13C,1.*%
%ADD15C,2.*%
%ADD10C,4.*%
%ADD14C,1.6*%
%ADD11C,1.55*%
%ADD12R,1.55X1.55*%
%ADD16C,.2*%
%ADD17C,.4*%
%ADD18C,.25*%
%ADD22C,2.104*%
%ADD25C,2.204*%
%ADD23C,2.504*%
%ADD20C,2.054*%
%ADD24C,2.604*%
%ADD21C,2.154*%
%ADD19O,1.504X36.429*%
G75*
%LPD*%
G75*
G36*
G01X1515000Y-400000D02*
G02X1520080Y-410370I-12614J-12608D01*
G02X1520090Y-410490I-988J-143D01*
G01X1520000Y-1240000D01*
G02X1515000Y-1250000I-12500J0D01*
G01X1380000Y-1385000D01*
G02X1370070Y-1389990I-12500J12500D01*
G02X1369930Y-1390000I-141J990D01*
G01X345000D01*
G02X335000Y-1385000I0J12500D01*
G01X300290Y-1350290D01*
G03X299590Y-1350000I-704J-710D01*
G01X-15000D01*
G02X-20000Y-1345000I0J5000D01*
G01Y-518110D01*
X-19600Y-517580D01*
X-19270Y-517490D01*
G03Y-473110I-6130J22190D01*
G01X-19600Y-473020D01*
X-20000Y-472490D01*
Y-73610D01*
X-19600Y-73080D01*
X-19270Y-72990D01*
G03Y-28610I-6130J22190D01*
G01X-19600Y-28520D01*
X-20000Y-27990D01*
Y55000D01*
G02X-15000Y60000I5000J0D01*
G01X-9930D01*
G02X-9040Y59450I-3J-1001D01*
G01X-8110Y57620D01*
X-8150Y57060D01*
X-8320Y56830D01*
G03X8320I8320J-6030D01*
G01X8150Y57060D01*
X8110Y57620D01*
X9040Y59450D01*
G02X9930Y60000I893J-451D01*
G01X14850D01*
G02X15740Y59470I7J-1001D01*
G01X16700Y57650D01*
X16660Y57110D01*
X16510Y56870D01*
G03X34290I8890J-6070D01*
G01X34140Y57110D01*
X34100Y57650D01*
X35060Y59470D01*
G02X35950Y60000I883J-471D01*
G01X40870D01*
G02X41760Y59450I-3J-1001D01*
G01X42690Y57620D01*
X42650Y57060D01*
X42480Y56830D01*
G03X59120I8320J-6030D01*
G01X58950Y57060D01*
X58910Y57620D01*
X59840Y59450D01*
G02X60730Y60000I893J-451D01*
G01X115000D01*
G02X120000Y55000I0J-5000D01*
G01Y30000D01*
G03X125000Y25000I5000J0D01*
G01X305000D01*
G03X310000Y30000I0J5000D01*
G01Y170000D01*
G02X315000Y175000I5000J0D01*
G01X325000D01*
G03X330000Y180000I0J5000D01*
G01Y242370D01*
G02X330270Y243050I1000J-4D01*
G01X330670Y243480D01*
G02X331290Y243790I730J-685D01*
G03Y264210I-1090J10210D01*
G02X330670Y264520I110J995D01*
G01X330270Y264950D01*
G02X330000Y265630I730J684D01*
G01Y335000D01*
G03X325000Y340000I-5000J0D01*
G01X315000D01*
G02X310000Y345000I0J5000D01*
G01Y750000D01*
G02X315000Y755000I5000J0D01*
G01X625000D01*
G02X630000Y750000I0J-5000D01*
G01Y45000D01*
G03X635000Y40000I5000J0D01*
G01X1435000D01*
G02X1440000Y35000I0J-5000D01*
G01Y-320000D01*
G03X1444950Y-329960I12495J0D01*
G01X1445000Y-330000D01*
X1515000Y-400000D01*
G37*
G36*
G01X165000Y75000D02*
G02X160000Y80000I0J5000D01*
G01Y110000D01*
G03X155000Y115000I-5000J0D01*
G01X90000D01*
G02X85000Y120000I0J5000D01*
G01Y135000D01*
G03X80000Y140000I-5000J0D01*
G01X59640D01*
G02X58470Y140800I-4J1250D01*
G01X57500Y143350D01*
X57680Y144100D01*
X57970Y144360D01*
G03X43630I-7170J8040D01*
G01X43920Y144100D01*
X44100Y143350D01*
X43130Y140800D01*
G02X41960Y140000I-1166J450D01*
G01X34240D01*
G02X33070Y140800I-4J1250D01*
G01X32100Y143350D01*
X32280Y144100D01*
X32570Y144360D01*
G03X18230I-7170J8040D01*
G01X18520Y144100D01*
X18700Y143350D01*
X17730Y140800D01*
G02X16560Y140000I-1166J450D01*
G01X8840D01*
G02X7670Y140800I-4J1250D01*
G01X6700Y143350D01*
X6880Y144100D01*
X7170Y144360D01*
G03X-7170I-7170J8040D01*
G01X-6880Y144100D01*
X-6700Y143350D01*
X-7670Y140800D01*
G02X-8840Y140000I-1166J450D01*
G01X-15000D01*
G02X-20000Y145000I0J5000D01*
G01Y325000D01*
G02X-15000Y330000I5000J0D01*
G01X-11450D01*
X-10750Y329370D01*
X-10690Y328900D01*
G03X10690I10690J1300D01*
G01X10750Y329370D01*
X11450Y330000D01*
X13950D01*
X14650Y329370D01*
X14710Y328900D01*
G03X36090I10690J1300D01*
G01X36150Y329370D01*
X36850Y330000D01*
X39350D01*
X40050Y329370D01*
X40110Y328900D01*
G03X61490I10690J1300D01*
G01X61550Y329370D01*
X62250Y330000D01*
X112930D01*
G02X116460Y328540I-1J-5000D01*
G01X163540Y281460D01*
G03X167070Y280000I3531J3540D01*
G01X275000D01*
G02X280000Y275000I0J-5000D01*
G01Y266000D01*
G02X279660Y265140I-1250J-3D01*
G01X279150Y264600D01*
G02X278370Y264220I-903J864D01*
G03Y243780I1030J-10220D01*
G02X279150Y243400I-123J-1244D01*
G01X279660Y242860D01*
G02X280000Y242000I-910J-857D01*
G01Y235000D01*
G02X275000Y230000I-5000J0D01*
G01X240000D01*
G03X235000Y225000I0J-5000D01*
G01Y154630D01*
G02X234180Y153460I-1250J4D01*
G01X231600Y152520D01*
X230840Y152730D01*
X230580Y153030D01*
G03X222250Y156920I-8330J-6974D01*
G01X213300D01*
G02X212360Y157350I4J1250D01*
G03Y147450I-5660J-4950D01*
G02X213300Y147880I944J-820D01*
G01X222250D01*
G02X224080Y146050I0J-1830D01*
G01Y82550D01*
G02X222370Y80840I-1710J0D01*
G01X213300D01*
G02X212360Y81270I4J1250D01*
G03X199180Y76260I-5660J-4950D01*
G01Y76250D01*
G02X197930Y75000I-1250J0D01*
G01X165000D01*
G37*
G36*
G01X198920Y355600D02*
G02X195390Y357060I1J5000D01*
G01X122110Y430340D01*
G03X118580Y431800I-3531J-3540D01*
G01X62130D01*
X61560Y432320D01*
X61530Y432710D01*
G03X40070I-10730J-910D01*
G01X40040Y432320D01*
X39470Y431800D01*
X36230D01*
X35660Y432320D01*
X35630Y432710D01*
G03X15170I-10230J-910D01*
G01X15140Y432320D01*
X14570Y431800D01*
X11330D01*
X10760Y432320D01*
X10730Y432710D01*
G03X-10730I-10730J-910D01*
G01X-10760Y432320D01*
X-11330Y431800D01*
X-14050D01*
G02X-19050Y436800I0J5000D01*
G01Y744300D01*
G02X-14050Y749300I5000J0D01*
G01X-11770D01*
G02X-10770Y748300I0J-1000D01*
G01Y726830D01*
G03X-9770Y725830I1000J0D01*
G01X9770D01*
G03X10770Y726830I0J1000D01*
G01Y748300D01*
G02X11770Y749300I1000J0D01*
G01X39030D01*
G02X40030Y748300I0J-1000D01*
G01Y726830D01*
G03X41030Y725830I1000J0D01*
G01X60570D01*
G03X61570Y726830I0J1000D01*
G01Y748300D01*
G02X62570Y749300I1000J0D01*
G01X150280D01*
G02X151140Y748820I5J-1001D01*
G01X152170Y747130D01*
X152180Y746630D01*
X152060Y746390D01*
G03X158750Y735430I6690J-3438D01*
G01X207380D01*
G02X208380Y734430I0J-1000D01*
G01Y519630D01*
G03X219340Y512940I7522J0D01*
G01X219580Y513060D01*
X220080Y513050D01*
X221770Y512020D01*
G02X222250Y511160I-521J-855D01*
G01Y360600D01*
G02X217250Y355600I-5000J0D01*
G01X198920D01*
G37*
%LPC*%
G75*
G36*
G01X323850Y80720D02*
X330060D01*
G03X330820Y81070I0J1000D01*
G02Y71330I5730J-4870D01*
G03X330060Y71680I-760J-650D01*
G01X323850D01*
G02X312980Y82550I0J10870D01*
G01Y146050D01*
G02X323850Y156920I10870J0D01*
G01X330060D01*
G03X330820Y157270I0J1000D01*
G02Y147530I5730J-4870D01*
G03X330060Y147880I-760J-650D01*
G01X323850D01*
G03X322020Y146050I0J-1830D01*
G01Y82550D01*
G03X323850Y80720I1830J0D01*
G37*
G36*
G01X594320Y31040D02*
Y-450140D01*
G03X594760Y-450970I1000J-1D01*
G02X586340I-4210J-6230D01*
G03X586780Y-450140I-560J829D01*
G01Y31040D01*
G03X586340Y31870I-1000J1D01*
G02X594760I4210J6230D01*
G03X594320Y31040I560J-829D01*
G37*
G36*
G01X613370D02*
Y-539040D01*
G03X613810Y-539870I1000J-1D01*
G02X605390I-4210J-6230D01*
G03X605830Y-539040I-560J829D01*
G01Y31040D01*
G03X605390Y31870I-1000J1D01*
G02X613810I4210J6230D01*
G03X613370Y31040I560J-829D01*
G37*
G36*
G01X575270Y-521410D02*
Y-551740D01*
G03X575710Y-552570I1000J-1D01*
G02X567290I-4210J-6230D01*
G03X567730Y-551740I-560J829D01*
G01Y-521410D01*
G03X567290Y-520580I-1000J1D01*
G02Y-508120I4210J6230D01*
G03X567730Y-507290I-560J829D01*
G01Y31040D01*
G03X567290Y31870I-1000J1D01*
G02X575710I4210J6230D01*
G03X575270Y31040I560J-829D01*
G01Y-507290D01*
G03X575710Y-508120I1000J-1D01*
G02Y-520580I-4210J-6230D01*
G03X575270Y-521410I560J-829D01*
G37*
G36*
G01X594270Y-521360D02*
Y-564390D01*
G03X594710Y-565220I1000J-1D01*
G02X586290I-4210J-6230D01*
G03X586730Y-564390I-560J829D01*
G01Y-521360D01*
G03X586290Y-520530I-1000J1D01*
G02X594710I4210J6230D01*
G03X594270Y-521360I560J-829D01*
G37*
G36*
G01X632420Y-521410D02*
Y-577140D01*
G03X632860Y-577970I1000J-1D01*
G02X624440I-4210J-6230D01*
G03X624880Y-577140I-560J829D01*
G01Y-521410D01*
G03X624440Y-520580I-1000J1D01*
G02X632860I4210J6230D01*
G03X632420Y-521410I560J-829D01*
G37*
G36*
G01X651420Y-521360D02*
Y-589790D01*
G03X651860Y-590620I1000J-1D01*
G02X643440I-4210J-6230D01*
G03X643880Y-589790I-560J829D01*
G01Y-521360D01*
G03X643440Y-520530I-1000J1D01*
G02X651860I4210J6230D01*
G03X651420Y-521360I560J-829D01*
G37*
G36*
G01X556220Y-521330D02*
Y-602540D01*
G03X556660Y-603370I1000J-1D01*
G02X548240I-4210J-6230D01*
G03X548680Y-602540I-560J829D01*
G01Y-523430D01*
X548630Y-523380D01*
Y-521360D01*
G03X548190Y-520530I-1000J1D01*
G02Y-508070I4210J6230D01*
G03X548630Y-507240I-560J829D01*
G01Y-505220D01*
X548680Y-505170D01*
Y31040D01*
G03X548240Y31870I-1000J1D01*
G02X556660I4210J6230D01*
G03X556220Y31040I560J-829D01*
G01Y-507270D01*
G03X556650Y-508100I1001J-8D01*
G02Y-520500I-4250J-6200D01*
G03X556220Y-521330I571J-822D01*
G37*
G36*
G01X537170Y-521410D02*
Y-615240D01*
G03X537610Y-616070I1000J-1D01*
G02X529190I-4210J-6230D01*
G03X529630Y-615240I-560J829D01*
G01Y-521410D01*
G03X529190Y-520580I-1000J1D01*
G02Y-508120I4210J6230D01*
G03X529630Y-507290I-560J829D01*
G01Y31040D01*
G03X529190Y31870I-1000J1D01*
G02X537610I4210J6230D01*
G03X537170Y31040I560J-829D01*
G01Y-507290D01*
G03X537610Y-508120I1000J-1D01*
G02Y-520580I-4210J-6230D01*
G03X537170Y-521410I560J-829D01*
G37*
G36*
G01X1318220Y-502360D02*
Y-627940D01*
G03X1318660Y-628770I1000J-1D01*
G02X1310240I-4210J-6230D01*
G03X1310680Y-627940I-560J829D01*
G01Y-502360D01*
G03X1310240Y-501530I-1000J1D01*
G02X1318660I4210J6230D01*
G03X1318220Y-502360I560J-829D01*
G37*
G36*
G01X1045170Y-540460D02*
Y-666040D01*
G03X1045610Y-666870I1000J-1D01*
G02X1037190I-4210J-6230D01*
G03X1037630Y-666040I-560J829D01*
G01Y-540460D01*
G03X1037190Y-539630I-1000J1D01*
G02X1045610I4210J6230D01*
G03X1045170Y-540460I560J-829D01*
G37*
G36*
G01X1026120D02*
Y-666040D01*
G03X1026560Y-666870I1000J-1D01*
G02X1018140I-4210J-6230D01*
G03X1018580Y-666040I-560J829D01*
G01Y-540460D01*
G03X1018140Y-539630I-1000J1D01*
G02X1026560I4210J6230D01*
G03X1026120Y-540460I560J-829D01*
G37*
G36*
G01X1007070D02*
Y-666040D01*
G03X1007510Y-666870I1000J-1D01*
G02X999090I-4210J-6230D01*
G03X999530Y-666040I-560J829D01*
G01Y-540460D01*
G03X999090Y-539630I-1000J1D01*
G02X1007510I4210J6230D01*
G03X1007070Y-540460I560J-829D01*
G37*
G36*
G01X1292820Y-616660D02*
Y-691440D01*
G03X1293260Y-692270I1000J-1D01*
G02X1284840I-4210J-6230D01*
G03X1285280Y-691440I-560J829D01*
G01Y-616660D01*
G03X1284840Y-615830I-1000J1D01*
G02X1293260I4210J6230D01*
G03X1292820Y-616660I560J-829D01*
G37*
G36*
G01X499070Y31040D02*
Y-691440D01*
G03X499510Y-692270I1000J-1D01*
G02X491090I-4210J-6230D01*
G03X491530Y-691440I-560J829D01*
G01Y31040D01*
G03X491090Y31870I-1000J1D01*
G02X499510I4210J6230D01*
G03X499070Y31040I560J-829D01*
G37*
G36*
G01X480020D02*
Y-716840D01*
G03X480460Y-717670I1000J-1D01*
G02X472040I-4210J-6230D01*
G03X472480Y-716840I-560J829D01*
G01Y31040D01*
G03X472040Y31870I-1000J1D01*
G02X480460I4210J6230D01*
G03X480020Y31040I560J-829D01*
G37*
G36*
G01X1273770Y-603960D02*
Y-793040D01*
G03X1274210Y-793870I1000J-1D01*
G02X1265790I-4210J-6230D01*
G03X1266230Y-793040I-560J829D01*
G01Y-603960D01*
G03X1265790Y-603130I-1000J1D01*
G02X1274210I4210J6230D01*
G03X1273770Y-603960I560J-829D01*
G37*
G36*
G01X137120Y-705560D02*
Y-805740D01*
G03X137560Y-806570I1000J-1D01*
G02X129140I-4210J-6230D01*
G03X129580Y-805740I-560J829D01*
G01Y-705560D01*
G03X129140Y-704730I-1000J1D01*
G02X137560I4210J6230D01*
G03X137120Y-705560I560J-829D01*
G37*
G36*
G01X118070Y-730960D02*
Y-818440D01*
G03X118510Y-819270I1000J-1D01*
G02X110090I-4210J-6230D01*
G03X110530Y-818440I-560J829D01*
G01Y-730960D01*
G03X110090Y-730130I-1000J1D01*
G02X118510I4210J6230D01*
G03X118070Y-730960I560J-829D01*
G37*
G36*
G01X460970Y-718260D02*
Y-831140D01*
G03X461410Y-831970I1000J-1D01*
G02X452990I-4210J-6230D01*
G03X453430Y-831140I-560J829D01*
G01Y-718260D01*
G03X452990Y-717430I-1000J1D01*
G02X461410I4210J6230D01*
G03X460970Y-718260I560J-829D01*
G37*
G36*
G01X403820Y119940D02*
Y-837490D01*
G03X404260Y-838320I1000J-1D01*
G02X395840I-4210J-6230D01*
G03X396280Y-837490I-560J829D01*
G01Y119940D01*
G03X395840Y120770I-1000J1D01*
G02X404260I4210J6230D01*
G03X403820Y119940I560J-829D01*
G37*
G36*
G01X518120Y-692860D02*
Y-843840D01*
G03X518560Y-844670I1000J-1D01*
G02X510140I-4210J-6230D01*
G03X510580Y-843840I-560J829D01*
G01Y-692860D01*
G03X510140Y-692030I-1000J1D01*
G02Y-679570I4210J6230D01*
G03X510580Y-678740I-560J829D01*
G01Y31040D01*
G03X510140Y31870I-1000J1D01*
G02X518560I4210J6230D01*
G03X518120Y31040I560J-829D01*
G01Y-678740D01*
G03X518560Y-679570I1000J-1D01*
G02Y-692030I-4210J-6230D01*
G03X518120Y-692860I560J-829D01*
G37*
G36*
G01X365720Y94540D02*
Y-850190D01*
G03X366160Y-851020I1000J-1D01*
G02X357740I-4210J-6230D01*
G03X358180Y-850190I-560J829D01*
G01Y94540D01*
G03X357740Y95370I-1000J1D01*
G02X366160I4210J6230D01*
G03X365720Y94540I560J-829D01*
G37*
G36*
G01X384770Y107240D02*
Y-862890D01*
G03X385210Y-863720I1000J-1D01*
G02X376790I-4210J-6230D01*
G03X377230Y-862890I-560J829D01*
G01Y107240D01*
G03X376790Y108070I-1000J1D01*
G02X385210I4210J6230D01*
G03X384770Y107240I560J-829D01*
G37*
G36*
G01X422870Y132640D02*
Y-875590D01*
G03X423310Y-876420I1000J-1D01*
G02X414890I-4210J-6230D01*
G03X415330Y-875590I-560J829D01*
G01Y132640D01*
G03X414890Y133470I-1000J1D01*
G02X423310I4210J6230D01*
G03X422870Y132640I560J-829D01*
G37*
G36*
G01X1254720Y-591260D02*
Y-894640D01*
G03X1255160Y-895470I1000J-1D01*
G02X1246740I-4210J-6230D01*
G03X1247180Y-894640I-560J829D01*
G01Y-591260D01*
G03X1246740Y-590430I-1000J1D01*
G02X1255160I4210J6230D01*
G03X1254720Y-591260I560J-829D01*
G37*
G36*
G01X1235670Y-578560D02*
Y-996240D01*
G03X1236110Y-997070I1000J-1D01*
G02X1227690I-4210J-6230D01*
G03X1228130Y-996240I-560J829D01*
G01Y-578560D01*
G03X1227690Y-577730I-1000J1D01*
G02X1236110I4210J6230D01*
G03X1235670Y-578560I560J-829D01*
G37*
G36*
G01X1216620Y-565860D02*
Y-1097840D01*
G03X1217060Y-1098670I1000J-1D01*
G02X1208640I-4210J-6230D01*
G03X1209080Y-1097840I-560J829D01*
G01Y-565860D01*
G03X1208640Y-565030I-1000J1D01*
G02X1217060I4210J6230D01*
G03X1216620Y-565860I560J-829D01*
G37*
G36*
G01X1197570Y-553160D02*
Y-1174040D01*
G03X1198010Y-1174870I1000J-1D01*
G02X1189590I-4210J-6230D01*
G03X1190030Y-1174040I-560J829D01*
G01Y-553160D01*
G03X1189590Y-552330I-1000J1D01*
G02X1198010I4210J6230D01*
G03X1197570Y-553160I560J-829D01*
G37*
G36*
G01X16130Y-1323230D02*
X34670D01*
G02X35670Y-1324230I0J-1000D01*
G01Y-1342770D01*
G02X34670Y-1343770I-1000J0D01*
G01X16130D01*
G02X15130Y-1342770I0J1000D01*
G01Y-1324230D01*
G02X16130Y-1323230I1000J0D01*
G37*
G36*
G01X-9770Y-1322730D02*
X9770D01*
G02X10770Y-1323730I0J-1000D01*
G01Y-1343270D01*
G02X9770Y-1344270I-1000J0D01*
G01X-9770D01*
G02X-10770Y-1343270I0J1000D01*
G01Y-1323730D01*
G02X-9770Y-1322730I1000J0D01*
G37*
G36*
G01X16130Y-1094630D02*
X34670D01*
G02X35670Y-1095630I0J-1000D01*
G01Y-1114170D01*
G02X34670Y-1115170I-1000J0D01*
G01X16130D01*
G02X15130Y-1114170I0J1000D01*
G01Y-1095630D01*
G02X16130Y-1094630I1000J0D01*
G37*
G36*
G01X-9770Y-1094130D02*
X9770D01*
G02X10770Y-1095130I0J-1000D01*
G01Y-1114670D01*
G02X9770Y-1115670I-1000J0D01*
G01X-9770D01*
G02X-10770Y-1114670I0J1000D01*
G01Y-1095130D01*
G02X-9770Y-1094130I1000J0D01*
G37*
G36*
G01X16130Y-840630D02*
X34670D01*
G02X35670Y-841630I0J-1000D01*
G01Y-860170D01*
G02X34670Y-861170I-1000J0D01*
G01X16130D01*
G02X15130Y-860170I0J1000D01*
G01Y-841630D01*
G02X16130Y-840630I1000J0D01*
G37*
G36*
G01X-9770Y-840130D02*
X9770D01*
G02X10770Y-841130I0J-1000D01*
G01Y-860670D01*
G02X9770Y-861670I-1000J0D01*
G01X-9770D01*
G02X-10770Y-860670I0J1000D01*
G01Y-841130D01*
G02X-9770Y-840130I1000J0D01*
G37*
G36*
G01X15630Y10770D02*
X35170D01*
G02X36170Y9770I0J-1000D01*
G01Y-9770D01*
G02X35170Y-10770I-1000J0D01*
G01X15630D01*
G02X14630Y-9770I0J1000D01*
G01Y9770D01*
G02X15630Y10770I1000J0D01*
G37*
G36*
G01X-9770D02*
X9770D01*
G02X10770Y9770I0J-1000D01*
G01Y-9770D01*
G02X9770Y-10770I-1000J0D01*
G01X-9770D01*
G02X-10770Y-9770I0J1000D01*
G01Y9770D01*
G02X-9770Y10770I1000J0D01*
G37*
G36*
G01X41030Y-1322730D02*
X60570D01*
G02X61570Y-1323730I0J-1000D01*
G01Y-1343270D01*
G02X60570Y-1344270I-1000J0D01*
G01X41030D01*
G02X40030Y-1343270I0J1000D01*
G01Y-1323730D01*
G02X41030Y-1322730I1000J0D01*
G37*
G36*
G01Y-1094130D02*
X60570D01*
G02X61570Y-1095130I0J-1000D01*
G01Y-1114670D01*
G02X60570Y-1115670I-1000J0D01*
G01X41030D01*
G02X40030Y-1114670I0J1000D01*
G01Y-1095130D01*
G02X41030Y-1094130I1000J0D01*
G37*
G36*
G01Y-840130D02*
X60570D01*
G02X61570Y-841130I0J-1000D01*
G01Y-860670D01*
G02X60570Y-861670I-1000J0D01*
G01X41030D01*
G02X40030Y-860670I0J1000D01*
G01Y-841130D01*
G02X41030Y-840130I1000J0D01*
G37*
G36*
G01Y10770D02*
X60570D01*
G02X61570Y9770I0J-1000D01*
G01Y-9770D01*
G02X60570Y-10770I-1000J0D01*
G01X41030D01*
G02X40030Y-9770I0J1000D01*
G01Y9770D01*
G02X41030Y10770I1000J0D01*
G37*
G36*
G01X181230Y-275480D02*
X199770D01*
G02X200770Y-276480I0J-1000D01*
G01Y-295020D01*
G02X199770Y-296020I-1000J0D01*
G01X181230D01*
G02X180230Y-295020I0J1000D01*
G01Y-276480D01*
G02X181230Y-275480I1000J0D01*
G37*
G36*
G01X345830Y264770D02*
X365370D01*
G02X366370Y263770I0J-1000D01*
G01Y244230D01*
G02X365370Y243230I-1000J0D01*
G01X345830D01*
G02X344830Y244230I0J1000D01*
G01Y263770D01*
G02X345830Y264770I1000J0D01*
G37*
G36*
G01X1140080Y-440580D02*
X1158620D01*
G02X1159620Y-441580I0J-1000D01*
G01Y-460120D01*
G02X1158620Y-461120I-1000J0D01*
G01X1140080D01*
G02X1139080Y-460120I0J1000D01*
G01Y-441580D01*
G02X1140080Y-440580I1000J0D01*
G37*
G36*
G01X1419480Y-1196230D02*
X1438020D01*
G02X1439020Y-1197230I0J-1000D01*
G01Y-1215770D01*
G02X1438020Y-1216770I-1000J0D01*
G01X1419480D01*
G02X1418480Y-1215770I0J1000D01*
G01Y-1197230D01*
G02X1419480Y-1196230I1000J0D01*
G37*
G36*
G01X1418980Y-1094130D02*
X1438520D01*
G02X1439520Y-1095130I0J-1000D01*
G01Y-1114670D01*
G02X1438520Y-1115670I-1000J0D01*
G01X1418980D01*
G02X1417980Y-1114670I0J1000D01*
G01Y-1095130D01*
G02X1418980Y-1094130I1000J0D01*
G37*
G36*
G01Y-992530D02*
X1438520D01*
G02X1439520Y-993530I0J-1000D01*
G01Y-1013070D01*
G02X1438520Y-1014070I-1000J0D01*
G01X1418980D01*
G02X1417980Y-1013070I0J1000D01*
G01Y-993530D01*
G02X1418980Y-992530I1000J0D01*
G37*
G36*
G01Y-890930D02*
X1438520D01*
G02X1439520Y-891930I0J-1000D01*
G01Y-911470D01*
G02X1438520Y-912470I-1000J0D01*
G01X1418980D01*
G02X1417980Y-911470I0J1000D01*
G01Y-891930D01*
G02X1418980Y-890930I1000J0D01*
G37*
G36*
G01Y-789330D02*
X1438520D01*
G02X1439520Y-790330I0J-1000D01*
G01Y-809870D01*
G02X1438520Y-810870I-1000J0D01*
G01X1418980D01*
G02X1417980Y-809870I0J1000D01*
G01Y-790330D01*
G02X1418980Y-789330I1000J0D01*
G37*
G36*
G01Y-687730D02*
X1438520D01*
G02X1439520Y-688730I0J-1000D01*
G01Y-708270D01*
G02X1438520Y-709270I-1000J0D01*
G01X1418980D01*
G02X1417980Y-708270I0J1000D01*
G01Y-688730D01*
G02X1418980Y-687730I1000J0D01*
G37*
G36*
G01Y-586130D02*
X1438520D01*
G02X1439520Y-587130I0J-1000D01*
G01Y-606670D01*
G02X1438520Y-607670I-1000J0D01*
G01X1418980D01*
G02X1417980Y-606670I0J1000D01*
G01Y-587130D01*
G02X1418980Y-586130I1000J0D01*
G37*
G36*
G01Y-484530D02*
X1438520D01*
G02X1439520Y-485530I0J-1000D01*
G01Y-505070D01*
G02X1438520Y-506070I-1000J0D01*
G01X1418980D01*
G02X1417980Y-505070I0J1000D01*
G01Y-485530D01*
G02X1418980Y-484530I1000J0D01*
G37*
G36*
G01X59850Y-641850D02*
G02X41750I-9050J-5850D01*
G01X41910Y-641620D01*
X41930Y-641080D01*
X40950Y-639290D01*
G03X40070Y-638770I-877J-479D01*
G01X35530D01*
G03X34640Y-639300I-7J-1001D01*
G01X33680Y-641120D01*
X33710Y-641670D01*
X33870Y-641900D01*
G02X18100Y-640470I-8476J-5800D01*
G01X18240Y-640330D01*
X18390Y-639970D01*
Y-639770D01*
G03X17390Y-638770I-1000J0D01*
G01X15330D01*
G02X8170Y-635810I-7J10122D01*
G01X4730Y-632360D01*
X4160Y-632240D01*
X3880Y-632350D01*
G02X10050Y-626180I-3880J10050D01*
G01X9940Y-626460D01*
X10060Y-627030D01*
X13510Y-630470D01*
G03X15330Y-631230I1828J1818D01*
G01X17390D01*
G03X18390Y-630230I0J1000D01*
G01Y-630030D01*
X18240Y-629670D01*
X18100Y-629530D01*
G02Y-615070I7300J7230D01*
G01X18240Y-614930D01*
X18390Y-614570D01*
Y-614370D01*
G03X17390Y-613370I-1000J0D01*
G01X15330D01*
G02X8170Y-610410I-7J10122D01*
G01X5730Y-607960D01*
G03X5020Y-607670I-704J-710D01*
G01X-9770D01*
G02X-10770Y-606670I0J1000D01*
G01Y-587130D01*
G02X-9770Y-586130I1000J0D01*
G01X6890D01*
G03X7810Y-585510I-4J998D01*
G01X7930Y-585230D01*
X7810Y-584650D01*
X4730Y-581560D01*
X4160Y-581440D01*
X3880Y-581550D01*
G02X10050Y-575380I-3880J10050D01*
G01X9940Y-575660D01*
X10060Y-576230D01*
X13510Y-579670D01*
G03X15330Y-580430I1828J1818D01*
G01X17390D01*
G03X18390Y-579430I0J1000D01*
G01Y-579230D01*
X18240Y-578870D01*
X18100Y-578730D01*
G02Y-564270I7300J7230D01*
G01X18240Y-564130D01*
X18390Y-563770D01*
Y-563570D01*
G03X17390Y-562570I-1000J0D01*
G01X15330D01*
G02X8170Y-559610I-7J10122D01*
G01X4730Y-556160D01*
X4160Y-556040D01*
X3880Y-556150D01*
G02X10050Y-549980I-3880J10050D01*
G01X9940Y-550260D01*
X10060Y-550830D01*
X13510Y-554270D01*
G03X15330Y-555030I1828J1818D01*
G01X17390D01*
G03X18390Y-554030I0J1000D01*
G01Y-553830D01*
X18240Y-553470D01*
X18100Y-553330D01*
G02X33870Y-551900I7294J7230D01*
G01X33710Y-552130D01*
X33680Y-552680D01*
X34640Y-554500D01*
G03X35530Y-555030I883J471D01*
G01X40070D01*
G03X40950Y-554510I3J999D01*
G01X41930Y-552720D01*
X41910Y-552180D01*
X41750Y-551950D01*
G02X60650Y-541740I9048J5849D01*
G03X61560Y-542330I912J409D01*
G01X123200D01*
G03X125020Y-541570I-8J2578D01*
G01X127650Y-538940D01*
G02X132690Y-536200I7157J-7160D01*
G03X133330Y-535760I-202J979D01*
G02X141870Y-546950I6372J-3990D01*
G01X141660Y-547010D01*
X141330Y-547300D01*
X140540Y-549090D01*
X140550Y-549520D01*
X140640Y-549720D01*
G02X140930Y-555480I-6790J-3229D01*
G01X140860Y-555680D01*
X140880Y-556060D01*
X141680Y-557720D01*
X141960Y-557980D01*
X142160Y-558040D01*
G02X141670Y-572410I-2457J-7110D01*
G01X141460Y-572460D01*
X141140Y-572730D01*
X140280Y-574450D01*
X140260Y-574870D01*
X140340Y-575070D01*
G02X131900Y-585230I-6989J-2780D01*
G03X131040Y-585460I-199J-980D01*
G02X124370Y-587970I-6671J7610D01*
G01X62570D01*
G03X61570Y-588970I0J-1000D01*
G01Y-592130D01*
G03X62570Y-593130I1000J0D01*
G01X130720D01*
G02X137390Y-595640I-1J-10120D01*
G03X138250Y-595870I661J750D01*
G02X141870Y-610450I1453J-7379D01*
G01X141660Y-610510D01*
X141330Y-610800D01*
X140540Y-612590D01*
X140550Y-613020D01*
X140640Y-613220D01*
G02X140840Y-619230I-6790J-3234D01*
G01X140760Y-619430D01*
X140780Y-619850D01*
X141640Y-621570D01*
X141960Y-621840D01*
X142170Y-621890D01*
G02X142370Y-636350I-1969J-7259D01*
G01X142160Y-636410D01*
X141830Y-636700D01*
X141040Y-638490D01*
X141050Y-638920D01*
X141140Y-639120D01*
G02X128120Y-646560I-6790J-3230D01*
G03X127290Y-646120I-829J-560D01*
G01X124280D01*
G02X117120Y-643160I-7J10122D01*
G01X113490Y-639530D01*
G03X111670Y-638770I-1828J-1818D01*
G01X61530D01*
G03X60650Y-639290I-3J-999D01*
G01X59670Y-641080D01*
X59690Y-641620D01*
X59850Y-641850D01*
G37*
G36*
G01X15880Y239370D02*
X34920D01*
G02X36170Y238120I0J-1250D01*
G01Y219080D01*
G02X34920Y217830I-1250J0D01*
G01X15880D01*
G02X14630Y219080I0J1250D01*
G01Y238120D01*
G02X15880Y239370I1250J0D01*
G37*
G36*
G01X-9520D02*
X9520D01*
G02X10770Y238120I0J-1250D01*
G01Y219080D01*
G02X9520Y217830I-1250J0D01*
G01X-9520D01*
G02X-10770Y219080I0J1250D01*
G01Y238120D01*
G02X-9520Y239370I1250J0D01*
G37*
G36*
G01X41280D02*
X60320D01*
G02X61570Y238120I0J-1250D01*
G01Y219080D01*
G02X60320Y217830I-1250J0D01*
G01X41280D01*
G02X40030Y219080I0J1250D01*
G01Y238120D01*
G02X41280Y239370I1250J0D01*
G37*
G36*
G01X16130Y492870D02*
X34670D01*
G02X35670Y491870I0J-1000D01*
G01Y473330D01*
G02X34670Y472330I-1000J0D01*
G01X16130D01*
G02X15130Y473330I0J1000D01*
G01Y491870D01*
G02X16130Y492870I1000J0D01*
G37*
G36*
G01X-9770Y493370D02*
X9770D01*
G02X10770Y492370I0J-1000D01*
G01Y472830D01*
G02X9770Y471830I-1000J0D01*
G01X-9770D01*
G02X-10770Y472830I0J1000D01*
G01Y492370D01*
G02X-9770Y493370I1000J0D01*
G37*
G36*
G01X16130Y746870D02*
X34670D01*
G02X35670Y745870I0J-1000D01*
G01Y727330D01*
G02X34670Y726330I-1000J0D01*
G01X16130D01*
G02X15130Y727330I0J1000D01*
G01Y745870D01*
G02X16130Y746870I1000J0D01*
G37*
G36*
G01X41030Y493370D02*
X60570D01*
G02X61570Y492370I0J-1000D01*
G01Y472830D01*
G02X60570Y471830I-1000J0D01*
G01X41030D01*
G02X40030Y472830I0J1000D01*
G01Y492370D01*
G02X41030Y493370I1000J0D01*
G37*
G36*
G01X124080Y721470D02*
X142620D01*
G02X143620Y720470I0J-1000D01*
G01Y701930D01*
G02X142620Y700930I-1000J0D01*
G01X124080D01*
G02X123080Y701930I0J1000D01*
G01Y720470D01*
G02X124080Y721470I1000J0D01*
G37*
G54D22*
X215900Y-285750D03*
X1174750Y-450850D03*
X158750Y711200D03*
G54D25*
X1428750Y-1181100D03*
Y-1079500D03*
Y-977900D03*
Y-876300D03*
Y-774700D03*
Y-673100D03*
Y-571500D03*
Y-469900D03*
G54D23*
X1066800Y-406400D03*
X1162050Y-1295400D03*
X1314450Y-368300D03*
X1276350Y-209550D03*
G54D20*
X25400Y-1308100D03*
Y-1257300D03*
Y-1282700D03*
Y-1155700D03*
Y-1181100D03*
Y-1206500D03*
Y-1130300D03*
Y-1079500D03*
Y-1003300D03*
Y-1028700D03*
Y-1054100D03*
X0D03*
X25400Y-927100D03*
Y-952500D03*
Y-977900D03*
Y-876300D03*
Y-901700D03*
Y-774700D03*
Y-800100D03*
Y-825500D03*
Y-698500D03*
Y-723900D03*
Y-749300D03*
Y-673100D03*
X50800Y-1054100D03*
X0Y304800D03*
X50800D03*
X25400Y508000D03*
Y457200D03*
Y584200D03*
Y558800D03*
Y533400D03*
Y635000D03*
Y609600D03*
X0Y635000D03*
X25400Y711200D03*
Y685800D03*
X50800Y635000D03*
G54D24*
X1104900Y-406400D03*
X1066800Y-355600D03*
X1162050Y-1225550D03*
X1123950Y-139700D03*
Y-88900D03*
X1206500Y-209550D03*
X1238250D03*
X1314450Y-336550D03*
G54D21*
X0Y-1308100D03*
X25400Y-1231900D03*
X0D03*
Y-1257300D03*
Y-1282700D03*
Y-1155700D03*
Y-1181100D03*
Y-1206500D03*
Y-1130300D03*
Y-1079500D03*
Y-1003300D03*
Y-1028700D03*
Y-927100D03*
Y-952500D03*
Y-977900D03*
Y-876300D03*
Y-901700D03*
Y-774700D03*
Y-800100D03*
Y-825500D03*
Y-698500D03*
Y-723900D03*
Y-749300D03*
Y-647700D03*
Y-673100D03*
X25400Y25400D03*
X0D03*
X50800Y-1308100D03*
Y-1231900D03*
Y-1257300D03*
Y-1282700D03*
Y-1155700D03*
Y-1181100D03*
Y-1206500D03*
Y-1130300D03*
Y-1079500D03*
Y-1003300D03*
Y-1028700D03*
Y-927100D03*
Y-952500D03*
Y-977900D03*
Y-876300D03*
Y-901700D03*
Y-774700D03*
Y-800100D03*
Y-825500D03*
Y-698500D03*
Y-723900D03*
Y-749300D03*
Y-673100D03*
Y25400D03*
X25400Y203200D03*
Y177800D03*
X0Y203200D03*
Y177800D03*
X25400Y279400D03*
Y254000D03*
X0Y279400D03*
Y254000D03*
X25400Y304800D03*
X50800Y203200D03*
Y177800D03*
Y279400D03*
Y254000D03*
X228600D03*
X0Y508000D03*
Y457200D03*
Y584200D03*
Y558800D03*
Y533400D03*
X25400Y660400D03*
X0D03*
Y609600D03*
Y711200D03*
Y685800D03*
X50800Y508000D03*
Y457200D03*
Y584200D03*
Y558800D03*
Y533400D03*
Y660400D03*
Y609600D03*
Y711200D03*
Y685800D03*
G54D19*
X393700Y530225D03*
%LPD*%
G75*
G36*
G01X33710Y-628330D02*
X33870Y-628100D01*
G03Y-616500I-8470J5800D01*
G01X33710Y-616270D01*
X33680Y-615720D01*
X34640Y-613900D01*
G02X35530Y-613370I883J-471D01*
G01X40070D01*
G02X40950Y-613890I3J-999D01*
G01X41930Y-615680D01*
X41910Y-616220D01*
X41750Y-616450D01*
G03Y-628150I9050J-5850D01*
G01X41910Y-628380D01*
X41930Y-628920D01*
X40950Y-630710D01*
G02X40070Y-631230I-877J479D01*
G01X35530D01*
G02X34640Y-630700I-7J1001D01*
G01X33680Y-628880D01*
X33710Y-628330D01*
G37*
G36*
G01Y-577530D02*
X33870Y-577300D01*
G03Y-565700I-8470J5800D01*
G01X33710Y-565470D01*
X33680Y-564920D01*
X34640Y-563100D01*
G02X35530Y-562570I883J-471D01*
G01X40070D01*
G02X40950Y-563090I3J-999D01*
G01X41930Y-564880D01*
X41910Y-565420D01*
X41750Y-565650D01*
G03Y-577350I9050J-5850D01*
G01X41910Y-577580D01*
X41930Y-578120D01*
X40950Y-579910D01*
G02X40070Y-580430I-877J479D01*
G01X35530D01*
G02X34640Y-579900I-7J1001D01*
G01X33680Y-578080D01*
X33710Y-577530D01*
G37*
G54D10*
X-25400Y-1384300D03*
Y-495300D03*
Y-50800D03*
Y838200D03*
G54D11*
X25400Y-1308100D03*
X0D03*
X25400Y-1231900D03*
Y-1257300D03*
Y-1282700D03*
X0Y-1231900D03*
Y-1257300D03*
Y-1282700D03*
X25400Y-1155700D03*
Y-1181100D03*
Y-1206500D03*
X0Y-1155700D03*
Y-1181100D03*
Y-1206500D03*
X25400Y-1130300D03*
Y-1079500D03*
X0Y-1130300D03*
Y-1079500D03*
X25400Y-1003300D03*
Y-1028700D03*
Y-1054100D03*
X0Y-1003300D03*
Y-1028700D03*
Y-1054100D03*
X25400Y-927100D03*
Y-952500D03*
Y-977900D03*
X0Y-927100D03*
Y-952500D03*
Y-977900D03*
X25400Y-876300D03*
Y-901700D03*
X0Y-876300D03*
Y-901700D03*
X25400Y-774700D03*
Y-800100D03*
Y-825500D03*
X0Y-774700D03*
Y-800100D03*
Y-825500D03*
X25400Y-698500D03*
Y-723900D03*
Y-749300D03*
X0Y-698500D03*
Y-723900D03*
Y-749300D03*
X25400Y-622300D03*
Y-647700D03*
Y-673100D03*
X0Y-622300D03*
Y-647700D03*
Y-673100D03*
X25400Y-546100D03*
Y-571500D03*
X0Y-546100D03*
Y-571500D03*
X25400Y50800D03*
Y25400D03*
X0Y50800D03*
Y25400D03*
X25400Y127000D03*
Y101600D03*
Y76200D03*
X0Y127000D03*
Y101600D03*
Y76200D03*
X25400Y203200D03*
Y177800D03*
Y152400D03*
X0Y203200D03*
Y177800D03*
Y152400D03*
X25400Y279400D03*
Y254000D03*
X0Y279400D03*
Y254000D03*
X25400Y355600D03*
Y330200D03*
Y304800D03*
X0Y355600D03*
Y330200D03*
Y304800D03*
X25400Y431800D03*
Y406400D03*
Y381000D03*
X0Y431800D03*
Y406400D03*
Y381000D03*
X25400Y508000D03*
Y457200D03*
X0Y508000D03*
Y457200D03*
X25400Y584200D03*
Y558800D03*
Y533400D03*
X0Y584200D03*
Y558800D03*
Y533400D03*
X25400Y660400D03*
Y635000D03*
Y609600D03*
X0Y660400D03*
Y635000D03*
Y609600D03*
X25400Y711200D03*
Y685800D03*
X0Y711200D03*
Y685800D03*
X25400Y787400D03*
Y762000D03*
X0Y787400D03*
Y762000D03*
X50800Y-1308100D03*
Y-1231900D03*
Y-1257300D03*
Y-1282700D03*
Y-1155700D03*
Y-1181100D03*
Y-1206500D03*
Y-1130300D03*
Y-1079500D03*
Y-1003300D03*
Y-1028700D03*
Y-1054100D03*
Y-927100D03*
Y-952500D03*
Y-977900D03*
Y-876300D03*
Y-901700D03*
Y-774700D03*
Y-800100D03*
Y-825500D03*
Y-698500D03*
Y-723900D03*
Y-749300D03*
Y-622300D03*
Y-647700D03*
Y-673100D03*
Y-546100D03*
Y-571500D03*
Y50800D03*
Y25400D03*
Y127000D03*
Y101600D03*
Y76200D03*
Y203200D03*
Y177800D03*
Y152400D03*
Y279400D03*
Y254000D03*
Y355600D03*
Y330200D03*
Y304800D03*
Y431800D03*
Y406400D03*
Y381000D03*
Y508000D03*
Y457200D03*
Y584200D03*
Y558800D03*
Y533400D03*
Y660400D03*
Y635000D03*
Y609600D03*
Y711200D03*
Y685800D03*
Y787400D03*
Y762000D03*
X228600Y254000D03*
X279400D03*
X330200D03*
G54D12*
X25400Y-1333500D03*
X0D03*
X25400Y-1104900D03*
X0D03*
X25400Y-850900D03*
X0D03*
X25400Y-596900D03*
X0D03*
X25400Y0D03*
X0D03*
X25400Y228600D03*
X0D03*
X25400Y482600D03*
X0D03*
X25400Y736600D03*
X0D03*
X50800Y-1333500D03*
Y-1104900D03*
Y-850900D03*
Y-596900D03*
Y0D03*
Y228600D03*
Y482600D03*
Y736600D03*
X190500Y-285750D03*
X133350Y711200D03*
X355600Y254000D03*
X1149350Y-450850D03*
X1428750Y-1206500D03*
Y-1104900D03*
Y-1003300D03*
Y-901700D03*
Y-800100D03*
Y-698500D03*
Y-596900D03*
Y-495300D03*
G54D13*
G01X158750Y742950D02*
X209550D01*
G02X215900Y736600I0J-6350D01*
G01Y691080D01*
G01Y519630D02*
Y576780D01*
G01D02*
Y633930D01*
G01Y691080D02*
Y633930D01*
G01X393700Y533400D02*
Y355600D01*
G01Y590550D02*
Y533400D01*
G01Y647700D02*
Y590550D01*
G01Y704850D02*
Y647700D01*
X9940Y-525410D03*
X-7300Y-425370D03*
Y-323770D03*
Y-272970D03*
Y-222170D03*
Y-120570D03*
X3490Y-70930D03*
X50800Y-1384300D03*
X73770Y-1337300D03*
X100000Y-1224000D03*
X110110Y-1083770D03*
X76320Y-1090740D03*
X72000Y-1114000D03*
X72150Y-1050010D03*
X74820Y-897650D03*
X94080Y-801040D03*
X77360Y-753070D03*
X107950Y-514350D03*
X60740Y-525400D03*
X100110Y-484430D03*
X94300Y-294500D03*
Y-192900D03*
X107950Y-107950D03*
X96530Y-42720D03*
X88900Y292560D03*
X50800Y838200D03*
X175370Y-1337300D03*
X145000Y-1290000D03*
X137690Y-1189690D03*
X181950Y-1155610D03*
X143100Y-1157520D03*
X125580Y-899620D03*
X114300Y-825500D03*
X184150Y-774700D03*
X150000Y-797000D03*
X144000Y-835000D03*
X133350Y-812800D03*
X114300Y-723900D03*
X147000Y-740000D03*
X133350Y-698500D03*
X146050Y-660400D03*
X140200Y-629150D03*
X134350Y-642350D03*
X146050Y-590550D03*
X139700Y-603250D03*
X133850Y-616450D03*
Y-552950D03*
X133350Y-577850D03*
X139700Y-565150D03*
X150910Y-484430D03*
X139700Y-539750D03*
X145680Y-382830D03*
Y-281230D03*
Y-179630D03*
X155000Y261020D03*
X158750Y742950D03*
X209540Y-1261540D03*
X253800Y-1227460D03*
X209880Y-1221120D03*
X225650Y-1055620D03*
X226820Y-899120D03*
X247650Y-768350D03*
X199000Y-742000D03*
X204000Y-758000D03*
X203200Y-660400D03*
X247650Y-685800D03*
X246000Y-647700D03*
X247650Y-590550D03*
X203200Y-514350D03*
X201710Y-484430D03*
X247650Y-533400D03*
X247280Y-461980D03*
Y-360380D03*
Y-258780D03*
Y-157180D03*
X198130Y-42720D03*
X247650Y-44450D03*
X206700Y76320D03*
Y88900D03*
X197390Y95400D03*
X206700Y152400D03*
Y165100D03*
X203200Y361950D03*
Y419100D03*
X215900Y519630D03*
X203200Y476250D03*
X215900Y576780D03*
Y633930D03*
Y691080D03*
X276970Y-1337300D03*
X325640Y-1299300D03*
X279840Y-1294260D03*
X333410Y-1163380D03*
X272930Y-1000720D03*
X328420Y-899120D03*
X317500Y-800100D03*
X342000Y-835000D03*
X304800Y-787400D03*
X298450Y-730250D03*
Y-628650D03*
X342900Y-673100D03*
Y-647700D03*
X305330Y-673100D03*
X298450Y-533400D03*
X317500Y-482600D03*
X302790Y-499500D03*
X302720Y-396820D03*
Y-295220D03*
Y-244420D03*
Y-193620D03*
Y-92020D03*
X314960Y-42720D03*
X322000Y42300D03*
X336550Y88900D03*
Y76200D03*
Y209550D03*
Y171450D03*
Y152400D03*
X326000Y346000D03*
Y374000D03*
Y404000D03*
Y432000D03*
Y460000D03*
Y488000D03*
Y518000D03*
Y574000D03*
Y660000D03*
Y604000D03*
Y630000D03*
Y688000D03*
X330200Y723900D03*
X317500Y749300D03*
X343440Y-1383300D03*
X361560Y-1335220D03*
X346620Y-1361040D03*
X404500Y-1234480D03*
X374530Y-1000720D03*
X381000Y-869950D03*
X401000Y-865000D03*
X361950Y-857250D03*
X410000Y-801000D03*
X345780Y-796330D03*
X400050Y-844550D03*
X390000Y-770000D03*
X343000Y-736000D03*
X372000D03*
X410000Y-531000D03*
X390000Y-486000D03*
X371000Y-519000D03*
X347820Y-529630D03*
X410000Y-322000D03*
X391000Y-379000D03*
X371000Y-317000D03*
X409000Y-88000D03*
X390000Y-124000D03*
X349250Y-57150D03*
X372000Y-65000D03*
Y39000D03*
X390000D03*
X410000D03*
X381000Y114300D03*
X409000Y108000D03*
X361950Y101600D03*
X400050Y127000D03*
X361950Y165100D03*
X404000Y170000D03*
X387350Y292100D03*
X412750Y254000D03*
X342900Y311150D03*
X414000Y330000D03*
X366000Y338000D03*
X369770Y361950D03*
X393700Y355600D03*
X374650Y400050D03*
X378000Y376000D03*
X408000D03*
X369770Y419100D03*
X374650Y457200D03*
X376000Y514000D03*
X369770Y476250D03*
X374650Y571500D03*
X393700Y533400D03*
Y590550D03*
X374650Y628650D03*
X393700Y647700D03*
X374650Y685800D03*
X387350Y742950D03*
X393700Y704850D03*
X451560Y-1383300D03*
X463150Y-1336080D03*
X446580Y-1132880D03*
X474290Y-991240D03*
X419100Y-882650D03*
X430010Y-899670D03*
X440820Y-850030D03*
X491410Y-854670D03*
X447380Y-796330D03*
X457200Y-838200D03*
X433960Y-740370D03*
X484730Y-742250D03*
X457200Y-711200D03*
X476250Y-723900D03*
X463550Y-647700D03*
X431800D03*
X485000Y-491000D03*
X431800Y-533400D03*
X463550D03*
X428090Y-428030D03*
X454490Y-384630D03*
X485000Y-273000D03*
X431800Y-273050D03*
X463550Y-209550D03*
X431800Y-127000D03*
X486000Y-54000D03*
X432000Y-56000D03*
X464000Y-40000D03*
X463550Y57150D03*
X476250Y38100D03*
X419100Y139700D03*
X486000Y78000D03*
X463550Y158750D03*
Y279400D03*
X419100Y236920D03*
X463550Y342900D03*
X482600Y381000D03*
X450850Y400050D03*
X438150Y431800D03*
X450850Y457200D03*
X438150Y488950D03*
X450850Y514350D03*
X438150Y546100D03*
X450850Y571500D03*
X438150Y603250D03*
X450850Y628650D03*
X438150Y660400D03*
Y704850D03*
X469900Y742950D03*
X564750Y-1336080D03*
X556900Y-1234480D03*
X548180Y-1132880D03*
X545020Y-1072200D03*
X514350Y-850900D03*
X548980Y-796330D03*
X498180D03*
X535490Y-740370D03*
X495300Y-698500D03*
X527050Y-647700D03*
X533400Y-622300D03*
X514350Y-685800D03*
X552450Y-609600D03*
X552400Y-514300D03*
X533400Y-514350D03*
X524000Y-439000D03*
X543000Y-356000D03*
X505000Y-387000D03*
X562000Y-292000D03*
X543000Y-196000D03*
X562000Y-104000D03*
X505000Y-109000D03*
X523100Y-144320D03*
X543000Y-46000D03*
X552450Y38100D03*
X533400D03*
X495300D03*
X514350D03*
X505000Y98000D03*
X524000Y78000D03*
X543000Y98000D03*
X562000Y78000D03*
X501650Y412750D03*
X520700Y457200D03*
X539750Y488950D03*
X558800Y520700D03*
X508000Y533400D03*
Y590550D03*
X514350Y622300D03*
X555050Y655690D03*
X519120Y691620D03*
X546100Y742950D03*
X610560Y-1383300D03*
X574000Y-1362000D03*
X639190Y-1083200D03*
X572190Y-968970D03*
X591400Y-867370D03*
X599780Y-796330D03*
X585920Y-746550D03*
X619120Y-708100D03*
X584200Y-673100D03*
X590550Y-647700D03*
X571500Y-558800D03*
X628650Y-584200D03*
X590500Y-571450D03*
X609600Y-546100D03*
X571500Y-514350D03*
X628650D03*
X590500Y-514300D03*
X628650Y-444500D03*
X581000Y-407000D03*
X590550Y-457200D03*
X600000Y-336000D03*
X645350Y-348410D03*
X628650Y-241300D03*
X600000Y-182000D03*
X624700Y-144320D03*
X641350Y-57150D03*
X581000Y-79000D03*
X619760Y-42720D03*
X571500Y38100D03*
X622300Y57150D03*
X609600Y38100D03*
X590550D03*
X581000Y98000D03*
X600000Y74000D03*
X622300Y127000D03*
Y215900D03*
Y304800D03*
Y425450D03*
X600000Y570000D03*
X577850Y558800D03*
X622300Y527050D03*
Y615950D03*
X617300Y663220D03*
X590970Y619770D03*
X571500Y698500D03*
X617300Y742300D03*
X718680Y-1383300D03*
X666350Y-1336080D03*
X658500Y-1234480D03*
X649780Y-1132880D03*
X673550Y-973880D03*
X693000Y-867370D03*
X701380Y-796330D03*
X650580D03*
X704850Y-723900D03*
X654050Y-647700D03*
X659760Y-677620D03*
X710560D03*
X647650Y-596850D03*
Y-514300D03*
X665270Y-524170D03*
X657370Y-473980D03*
X713280Y-245920D03*
X670560Y-42720D03*
X767950Y-1336080D03*
X772000Y-1362000D03*
X760100Y-1234480D03*
X745390Y-1045720D03*
X772590Y-929240D03*
X748330Y-854670D03*
X752180Y-796330D03*
X800100Y-755650D03*
X736600Y-647700D03*
X761360Y-677620D03*
X766580Y-529630D03*
X770980Y-428030D03*
X787400Y-317500D03*
X726300Y-144320D03*
X772160Y-42720D03*
X817260Y-1383300D03*
X869550Y-1336080D03*
X861700Y-1234480D03*
X817230Y-1117560D03*
X831850Y-990600D03*
X818260Y-928320D03*
X849930Y-854670D03*
X853780Y-796330D03*
X802980D03*
X831850Y-647700D03*
X812160Y-677620D03*
X862960D03*
X868180Y-529630D03*
X872580Y-428030D03*
X869490Y-330530D03*
X865680Y-229080D03*
X827900Y-144320D03*
X873730Y-40970D03*
X912660Y-1383300D03*
X889070Y-1189400D03*
X916280Y-1072920D03*
X890110Y-1000170D03*
X898380Y-839400D03*
X927090Y-726010D03*
X891160Y-761940D03*
X927100Y-647700D03*
X913760Y-677620D03*
X946000Y-50000D03*
X926000D03*
X902000Y-36000D03*
X882650Y31750D03*
X924000Y34000D03*
X1011240Y-1383300D03*
X971150Y-1336080D03*
X970000Y-1362000D03*
X988120Y-1144760D03*
X961950Y-1072010D03*
X1028460Y-994840D03*
X977900Y-939800D03*
X1001570Y-879890D03*
X970230Y-767560D03*
X1022350Y-673100D03*
X990600Y-647700D03*
X963010Y-690090D03*
X1003300Y-673100D03*
X1022350Y-533400D03*
X1013000Y-516000D03*
X986830Y-481780D03*
X969780Y-529630D03*
X1003300Y-533400D03*
X986830Y-430980D03*
X986500Y-329380D03*
X986830Y-380180D03*
X1014000Y-386000D03*
X1016000Y-354000D03*
X1018000Y-250000D03*
X1025000Y-282000D03*
X1010000Y-268000D03*
X967280Y-231550D03*
X1012000Y-216000D03*
X967280Y-129950D03*
X1010000Y-112000D03*
X974000Y-36000D03*
X1010000D03*
X974000Y34000D03*
X1072750Y-1336080D03*
X1059960Y-1216610D03*
X1105630Y-1215690D03*
X1033790Y-1143850D03*
X1049620Y-794640D03*
X1042070Y-695720D03*
X1054100Y-647700D03*
X1041400Y-673100D03*
X1032000Y-504000D03*
X1057870Y-515880D03*
X1041400Y-533400D03*
X1085370Y-422370D03*
X1032000Y-398000D03*
X1048000Y-364000D03*
X1074000Y-336000D03*
X1062000Y-327000D03*
X1044000D03*
X1076000Y-314000D03*
X1036000Y-266000D03*
X1087000Y-264000D03*
X1095000Y-175000D03*
X1056000Y-176000D03*
X1046000Y-188000D03*
X1080000Y-214000D03*
X1096000Y-92000D03*
Y-152000D03*
X1045000Y-155000D03*
X1102000Y-36000D03*
X1046000D03*
Y-70000D03*
X1060000Y-54000D03*
X1080000D03*
X1096000Y-68000D03*
X1046000Y34000D03*
X1116180Y-1383300D03*
X1174350Y-1336080D03*
X1170000Y-1362000D03*
X1133780Y-1286360D03*
X1154420Y-1201530D03*
X1111780Y-983020D03*
X1130280Y-884990D03*
X1148950Y-786450D03*
X1181100Y-647700D03*
X1111250D03*
X1140340Y-677620D03*
X1157570Y-529630D03*
X1136170Y-422870D03*
X1153000Y-326000D03*
X1140000D03*
X1121000Y-327000D03*
X1124000Y-372000D03*
X1136000Y-384000D03*
X1157000Y-374000D03*
X1178000Y-384000D03*
X1154000Y-276000D03*
X1166000Y-240000D03*
X1130000Y-264000D03*
X1180000Y-226000D03*
X1170000Y-198000D03*
X1120000Y-175000D03*
X1144000Y-214000D03*
X1130000Y-232000D03*
X1135000Y-160000D03*
X1168000Y-152000D03*
Y-100000D03*
X1118000Y-114000D03*
X1140000Y-65000D03*
X1168000Y-36000D03*
X1130000Y34000D03*
X1227480Y-1383300D03*
X1184570Y-1287150D03*
X1191020Y-1236760D03*
X1238250Y-1200150D03*
Y-1168400D03*
X1193800Y-1181100D03*
X1212850Y-1104900D03*
X1241420Y-1121370D03*
X1232570Y-1023500D03*
X1231900Y-1003300D03*
X1250950Y-901700D03*
X1241940Y-677620D03*
X1212850Y-558800D03*
X1250950Y-584200D03*
X1231900Y-571500D03*
X1193800Y-546100D03*
Y-476250D03*
X1208320Y-532020D03*
X1237770Y-422870D03*
X1239590Y-389930D03*
X1206000Y-383000D03*
X1203000Y-354000D03*
X1247000Y-346000D03*
X1198000Y-326000D03*
X1216000Y-328000D03*
X1234000Y-242000D03*
Y-280000D03*
X1190000D03*
X1208000Y-284000D03*
X1222000Y-196000D03*
X1254000Y-194000D03*
X1249000Y-148000D03*
X1240000Y-104000D03*
X1206500Y-95250D03*
X1206000Y-148000D03*
X1228000D03*
X1220000Y-55000D03*
X1234000Y-16000D03*
X1206000D03*
X1214000Y34000D03*
X1275950Y-1336080D03*
X1296000Y-1362000D03*
X1322000Y-1298000D03*
X1270000Y-1240000D03*
X1301750Y-1200150D03*
X1295400Y-1168400D03*
X1330890Y-1088430D03*
X1280090D03*
X1267730Y-986830D03*
X1315060Y-885230D03*
X1276390Y-918170D03*
X1327190D03*
X1270000Y-800100D03*
X1312050Y-783630D03*
X1275980Y-819410D03*
X1327170Y-714970D03*
X1289050Y-698500D03*
X1301750Y-647700D03*
X1314450Y-635000D03*
X1270000Y-596900D03*
X1295400Y-584200D03*
X1333500Y-577850D03*
X1327150Y-609600D03*
X1289050D03*
X1298000Y-492000D03*
X1327150Y-514350D03*
X1314450Y-495300D03*
X1295000Y-395000D03*
X1261000Y-325000D03*
X1305000Y-290000D03*
X1261000Y-284000D03*
X1306000Y-238000D03*
Y-194000D03*
X1284000Y-230000D03*
X1276000Y-148000D03*
X1304000D03*
X1324000D03*
X1318000Y-132000D03*
X1308000Y-106000D03*
X1270000Y-110000D03*
X1298000Y-16000D03*
X1272000D03*
X1286000Y-58000D03*
X1298000D03*
X1272000D03*
X1318000Y34000D03*
X1370580Y-1383300D03*
X1370880Y-1310920D03*
X1361040Y-1361040D03*
X1365250Y-1225550D03*
X1400000Y-1120000D03*
X1381240Y-1081680D03*
X1343020Y-1121370D03*
X1334030Y-1019770D03*
X1402000Y-1020000D03*
X1368880Y-980080D03*
X1365410Y-878480D03*
X1402000Y-916000D03*
X1362400Y-776880D03*
X1404000Y-816000D03*
X1402000Y-712000D03*
X1403350Y-615950D03*
X1332940Y-643180D03*
X1346200Y-482600D03*
X1397000Y-520700D03*
X1339370Y-422870D03*
X1385000Y-395000D03*
X1398210Y-348350D03*
X1350000Y-360000D03*
X1390710Y-294260D03*
X1346200Y-304800D03*
X1395000Y-245000D03*
X1340000Y-270000D03*
X1364220Y-273480D03*
X1389680Y-201920D03*
X1364220Y-197160D03*
X1341960D03*
X1404000Y-136000D03*
X1388000Y-118000D03*
X1352000Y-104000D03*
X1385000Y-10000D03*
X1404000Y-80000D03*
X1390000Y-64000D03*
X1336000Y-16000D03*
X1352000Y-64000D03*
X1336000Y-58000D03*
X1380620Y27300D03*
X1422400Y-1384300D03*
X1446000Y-1308000D03*
X1442720Y-1239080D03*
X1422000Y-1298000D03*
X1456730Y-1190240D03*
Y-1139440D03*
X1425380Y-1056520D03*
X1432000Y-954000D03*
X1462800Y-979440D03*
X1434000Y-852000D03*
X1462800Y-810900D03*
X1436000Y-752000D03*
X1434000Y-652000D03*
X1462800Y-658260D03*
Y-515160D03*
X1440970Y-422870D03*
X1452000Y-396000D03*
X1462800Y-435660D03*
X1434090Y-337200D03*
X1427300Y-236060D03*
X1410000Y-195000D03*
X1427000Y-163000D03*
X1427300Y-94330D03*
Y-145130D03*
X1409000Y-149000D03*
X1427300Y-43530D03*
X1434000Y34000D03*
X1422400Y838200D03*
X1486000Y-1234000D03*
X1510500Y-1243380D03*
Y-1163880D03*
X1486000Y-1120000D03*
Y-1020000D03*
Y-938000D03*
X1510500Y-979440D03*
X1486000Y-854000D03*
X1511300Y-863600D03*
X1486000Y-768000D03*
X1510500Y-734580D03*
X1486000Y-616000D03*
X1510500Y-585120D03*
X1486000Y-430000D03*
X1510500Y-422940D03*
G54D14*
X158750Y711200D03*
X215900Y-285750D03*
X1174750Y-450850D03*
X1428750Y-1181100D03*
Y-1079500D03*
Y-977900D03*
Y-876300D03*
Y-774700D03*
Y-673100D03*
Y-571500D03*
Y-469900D03*
G54D15*
X1066800Y-406400D03*
X1104900D03*
X1066800Y-355600D03*
X1162050Y-1225550D03*
Y-1295400D03*
X1123950Y-139700D03*
Y-88900D03*
X1206500Y-209550D03*
X1238250D03*
X1314450Y-336550D03*
Y-368300D03*
X1276350Y-209550D03*
G54D16*
X1511300Y-1384300D03*
Y838200D03*
G54D17*
G01X25400Y-1344770D02*
Y-1333500D01*
G01D02*
Y-1322230D01*
G01X14130Y-1333500D02*
X25400D01*
G01D02*
X36670D01*
G01X25400Y-1319370D02*
Y-1308100D01*
G01Y-1293970D02*
Y-1282700D01*
G01D02*
Y-1271430D01*
G01X14130Y-1282700D02*
X25400D01*
G01D02*
X36670D01*
G01X25400Y-1268570D02*
Y-1257300D01*
G01D02*
Y-1246030D01*
G01X14130Y-1257300D02*
X25400D01*
G01D02*
X36670D01*
G01X25400Y-1308100D02*
Y-1296830D01*
G01X14130Y-1308100D02*
X25400D01*
G01D02*
X36670D01*
G01X25400Y-1217770D02*
Y-1206500D01*
G01D02*
Y-1195230D01*
G01X14130Y-1206500D02*
X25400D01*
G01D02*
X36670D01*
G01X25400Y-1192370D02*
Y-1181100D01*
G01D02*
Y-1169830D01*
G01X14130Y-1181100D02*
X25400D01*
G01D02*
X36670D01*
G01X25400Y-1166970D02*
Y-1155700D01*
G01Y-1116170D02*
Y-1104900D01*
G01D02*
Y-1093630D01*
G01X14130Y-1104900D02*
X25400D01*
G01D02*
X36670D01*
G01X25400Y-1090770D02*
Y-1079500D01*
G01Y-1141570D02*
Y-1130300D01*
G01D02*
Y-1119030D01*
G01X14130Y-1130300D02*
X25400D01*
G01D02*
X36670D01*
G01X25400Y-1155700D02*
Y-1144430D01*
G01X14130Y-1155700D02*
X25400D01*
G01D02*
X36670D01*
G01X0Y-1065370D02*
Y-1054100D01*
G01D02*
Y-1042830D01*
G01X-11270Y-1054100D02*
X0D01*
G01D02*
X11270D01*
G01X25400Y-1065370D02*
Y-1054100D01*
G01D02*
Y-1042830D01*
G01X14130Y-1054100D02*
X25400D01*
G01D02*
X36670D01*
G01X25400Y-1039970D02*
Y-1028700D01*
G01D02*
Y-1017430D01*
G01X14130Y-1028700D02*
X25400D01*
G01D02*
X36670D01*
G01X25400Y-1014570D02*
Y-1003300D01*
G01Y-1079500D02*
Y-1068230D01*
G01X14130Y-1079500D02*
X25400D01*
G01D02*
X36670D01*
G01X25400Y-989170D02*
Y-977900D01*
G01D02*
Y-966630D01*
G01X14130Y-977900D02*
X25400D01*
G01D02*
X36670D01*
G01X25400Y-963770D02*
Y-952500D01*
G01D02*
Y-941230D01*
G01X14130Y-952500D02*
X25400D01*
G01D02*
X36670D01*
G01X25400Y-938370D02*
Y-927100D01*
G01Y-1003300D02*
Y-992030D01*
G01X14130Y-1003300D02*
X25400D01*
G01D02*
X36670D01*
G01X25400Y-912970D02*
Y-901700D01*
G01D02*
Y-890430D01*
G01X14130Y-901700D02*
X25400D01*
G01D02*
X36670D01*
G01X25400Y-887570D02*
Y-876300D01*
G01D02*
Y-865030D01*
G01X14130Y-876300D02*
X25400D01*
G01D02*
X36670D01*
G01X25400Y-862170D02*
Y-850900D01*
G01Y-927100D02*
Y-915830D01*
G01X14130Y-927100D02*
X25400D01*
G01D02*
X36670D01*
G01X25400Y-836770D02*
Y-825500D01*
G01D02*
Y-814230D01*
G01X14130Y-825500D02*
X25400D01*
G01D02*
X36670D01*
G01X25400Y-811370D02*
Y-800100D01*
G01D02*
Y-788830D01*
G01X14130Y-800100D02*
X25400D01*
G01D02*
X36670D01*
G01X25400Y-785970D02*
Y-774700D01*
G01Y-850900D02*
Y-839630D01*
G01X14130Y-850900D02*
X25400D01*
G01D02*
X36670D01*
G01X25400Y-760570D02*
Y-749300D01*
G01D02*
Y-738030D01*
G01X14130Y-749300D02*
X25400D01*
G01D02*
X36670D01*
G01X25400Y-735170D02*
Y-723900D01*
G01D02*
Y-712630D01*
G01X14130Y-723900D02*
X25400D01*
G01D02*
X36670D01*
G01X25400Y-709770D02*
Y-698500D01*
G01Y-774700D02*
Y-763430D01*
G01X14130Y-774700D02*
X25400D01*
G01D02*
X36670D01*
G01X25400Y-684370D02*
Y-673100D01*
G01D02*
Y-661830D01*
G01X14130Y-673100D02*
X25400D01*
G01D02*
X36670D01*
G01X25400Y-658970D02*
Y-647700D01*
G01X14130D02*
X25400D01*
G01D02*
X36670D01*
G01X25400Y-698500D02*
Y-687230D01*
G01X14130Y-698500D02*
X25400D01*
G01D02*
X36670D01*
G01X14130Y-571500D02*
X25400D01*
G01D02*
X36670D01*
G01X14130Y-622300D02*
X25400D01*
G01D02*
X36670D01*
G01X25400Y-546100D02*
Y-534830D01*
G01X14130Y-546100D02*
X25400D01*
G01D02*
X36670D01*
G01X0Y39530D02*
Y50800D01*
G01X-11270D02*
X0D01*
G01D02*
X11270D01*
G01X0Y293280D02*
Y304800D01*
G01D02*
Y316320D01*
G01X-11520Y304800D02*
X0D01*
G01D02*
X11520D01*
G01X25400Y431800D02*
Y443070D01*
G01X14130Y431800D02*
X25400D01*
G01D02*
X36670D01*
G01X25400Y445930D02*
Y457200D01*
G01D02*
Y468470D01*
G01X14130Y457200D02*
X25400D01*
G01D02*
X36670D01*
G01X25400Y471330D02*
Y482600D01*
G01D02*
Y493870D01*
G01X14130Y482600D02*
X25400D01*
G01D02*
X36670D01*
G01X25400Y496730D02*
Y508000D01*
G01D02*
Y519270D01*
G01X14130Y508000D02*
X25400D01*
G01D02*
X36670D01*
G01X25400Y522130D02*
Y533400D01*
G01D02*
Y544670D01*
G01X14130Y533400D02*
X25400D01*
G01D02*
X36670D01*
G01X25400Y547530D02*
Y558800D01*
G01D02*
Y570070D01*
G01X14130Y558800D02*
X25400D01*
G01D02*
X36670D01*
G01X25400Y572930D02*
Y584200D01*
G01D02*
Y595470D01*
G01X14130Y584200D02*
X25400D01*
G01D02*
X36670D01*
G01X0Y623730D02*
Y635000D01*
G01D02*
Y646270D01*
G01X-11270Y635000D02*
X0D01*
G01D02*
X11270D01*
G01X25400Y598330D02*
Y609600D01*
G01D02*
Y620870D01*
G01X14130Y609600D02*
X25400D01*
G01D02*
X36670D01*
G01X25400Y623730D02*
Y635000D01*
G01D02*
Y646270D01*
G01X14130Y635000D02*
X25400D01*
G01D02*
X36670D01*
G01X25400Y674530D02*
Y685800D01*
G01D02*
Y697070D01*
G01X14130Y685800D02*
X25400D01*
G01D02*
X36670D01*
G01X25400Y699930D02*
Y711200D01*
G01D02*
Y722470D01*
G01X14130Y711200D02*
X25400D01*
G01D02*
X36670D01*
G01X25400Y725330D02*
Y736600D01*
G01D02*
Y747870D01*
G01X14130Y736600D02*
X25400D01*
G01D02*
X36670D01*
G01X50800Y-1065370D02*
Y-1054100D01*
G01D02*
Y-1042830D01*
G01X39530Y-1054100D02*
X50800D01*
G01D02*
X62070D01*
G01X50800Y39530D02*
Y50800D01*
G01X39530D02*
X50800D01*
G01D02*
X62070D01*
G01X50800Y293280D02*
Y304800D01*
G01D02*
Y316320D01*
G01X39280Y304800D02*
X50800D01*
G01D02*
X62320D01*
G01X50800Y623730D02*
Y635000D01*
G01D02*
Y646270D01*
G01X39530Y635000D02*
X50800D01*
G01D02*
X62070D01*
G01X179230Y-285750D02*
X190500D01*
G01X158750Y699680D02*
Y711200D01*
G01D02*
Y722720D01*
G01X147230Y711200D02*
X158750D01*
G01D02*
X170270D01*
G01X133350Y699930D02*
Y711200D01*
G01D02*
Y722470D01*
G01X122080Y711200D02*
X133350D01*
G01D02*
X144620D01*
G01X215900Y-297270D02*
Y-285750D01*
G01D02*
Y-274230D01*
G01X204380Y-285750D02*
X215900D01*
G01D02*
X227420D01*
G01X190500Y-297020D02*
Y-285750D01*
G01D02*
Y-274480D01*
G01Y-285750D02*
X201770D01*
G01X206700Y76320D02*
X222370D01*
G03X228600Y82550I0J6230D01*
G01Y146050D01*
G03X222250Y152400I-6350J0D01*
G01X206700D01*
G01X336550Y76200D02*
X323850D01*
G02X317500Y82550I0J6350D01*
G01Y146050D01*
G02X323850Y152400I6350J0D01*
G01X336550D01*
G01X330200Y242730D02*
Y254000D01*
G01D02*
Y265270D01*
G01Y254000D02*
X341470D01*
G01X279400Y242480D02*
Y254000D01*
G01D02*
Y265520D01*
G01X267880Y254000D02*
X279400D01*
G01X1066800Y-419920D02*
Y-406400D01*
G01D02*
Y-392880D01*
G01X1053280Y-406400D02*
X1066800D01*
G01D02*
X1080320D01*
G01X1162050Y-1308920D02*
Y-1295400D01*
G01D02*
Y-1281880D01*
G01X1148530Y-1295400D02*
X1162050D01*
G01D02*
X1175570D01*
G01X1174750Y-462370D02*
Y-450850D01*
G01D02*
Y-439330D01*
G01X1163230Y-450850D02*
X1174750D01*
G01D02*
X1186270D01*
G01X1149350Y-462120D02*
Y-450850D01*
G01D02*
Y-439580D01*
G01X1138080Y-450850D02*
X1149350D01*
G01D02*
X1160620D01*
G01X1314450Y-381820D02*
Y-368300D01*
G01D02*
Y-354780D01*
G01X1300930Y-368300D02*
X1314450D01*
G01D02*
X1327970D01*
G01X1276350Y-223070D02*
Y-209550D01*
G01D02*
Y-196030D01*
G01X1262830Y-209550D02*
X1276350D01*
G01D02*
X1289870D01*
G01X1428750Y-1217770D02*
Y-1206500D01*
G01D02*
Y-1195230D01*
G01X1417480Y-1206500D02*
X1428750D01*
G01D02*
X1440020D01*
G54D18*
G01X0Y-622300D02*
X10840Y-633140D01*
G03X15330Y-635000I4490J4490D01*
G01X111670D01*
G02X116160Y-636860I0J-6350D01*
G01X119790Y-640490D01*
G03X124280Y-642350I4490J4490D01*
G01X134350D01*
G01X0Y-596900D02*
X10840Y-607740D01*
G03X15330Y-609600I4490J4490D01*
G01X124370D01*
G02X128860Y-611460I0J-6350D01*
G01X133850Y-616450D01*
G01X0Y-546100D02*
X10840Y-556940D01*
G03X15330Y-558800I4490J4490D01*
G01X111670D01*
G03X116160Y-556940I0J6350D01*
G01X118290Y-554810D01*
G02X122780Y-552950I4490J-4490D01*
G01X133850D01*
G01X0Y-571500D02*
X10840Y-582340D01*
G03X15330Y-584200I4490J4490D01*
G01X124370D01*
G03X128860Y-582340I0J6350D01*
G01X133350Y-577850D01*
G01X50800Y-596900D02*
X130720D01*
G02X135210Y-598760I0J-6350D01*
G01X139700Y-603250D01*
G01X50800Y-622300D02*
X118020D01*
G02X122510Y-624160I0J-6350D01*
G01X125640Y-627290D01*
G03X130130Y-629150I4490J4490D01*
G01X140200D01*
G01X50800Y-571500D02*
X118020D01*
G03X122510Y-569640I0J6350D01*
G01X125140Y-567010D01*
G02X129630Y-565150I4490J-4490D01*
G01X139700D01*
G01X50800Y-546100D02*
X123200D01*
G03X127690Y-544240I0J6350D01*
G01X130320Y-541610D01*
G02X134810Y-539750I4490J-4490D01*
G01X139700D01*
G01X114300Y-723900D02*
Y-825500D01*
G01X133350Y-698500D02*
Y-812800D01*
G01X381000Y114300D02*
Y-869950D01*
G01X361950Y101600D02*
Y-857250D01*
G01X400050Y127000D02*
Y-844550D01*
G01X419100Y139700D02*
Y-882650D01*
G01X457200Y-711200D02*
Y-838200D01*
G01X476250Y38100D02*
Y-723900D01*
G01X514350Y-685800D02*
Y-850900D01*
G01X495300Y38100D02*
Y-698500D01*
G01X514350Y38100D02*
Y-685800D01*
G01X552450Y-609600D02*
Y-521870D01*
X552400Y-521820D01*
Y-514300D01*
G01X533400Y-514350D02*
Y-622300D01*
G01X552450Y38100D02*
Y-506730D01*
X552400Y-506780D01*
Y-514300D01*
G01X533400Y38100D02*
Y-514350D01*
G01X571500D02*
Y-558800D01*
G01X628650Y-514350D02*
Y-584200D01*
G01X590500Y-514300D02*
Y-571450D01*
G01X571500Y38100D02*
Y-514350D01*
G01X609600Y38100D02*
Y-546100D01*
G01X590550Y38100D02*
Y-457200D01*
G01X647650Y-514300D02*
Y-596850D01*
G01X1003300Y-533400D02*
Y-673100D01*
G01X1022350D02*
Y-533400D01*
G01X1041400D02*
Y-673100D01*
G01X1193800Y-1181100D02*
Y-546100D01*
G01X1212850Y-1104900D02*
Y-558800D01*
G01X1231900Y-571500D02*
Y-1003300D01*
G01X1250950Y-584200D02*
Y-901700D01*
G01X1270000Y-596900D02*
Y-800100D01*
G01X1289050Y-609600D02*
Y-698500D01*
G01X1314450Y-635000D02*
Y-495300D01*
M02*
