M48
METRIC,TZ
T01C.5
T02C1.
T03C1.2
T04C2.7
T05C2.7
;LEADER: 12 
;HEADER: 
;CODE  : ASCII 
;FILE  : BVP_04V1-1-2.drl for  ... layers TOP and BOTTOM
;T01 Holesize 1. = 0.500000 Tolerance = +0.000000/-0.000000 PLATED MM Quantity = 658
;T02 Holesize 2. = 1.000000 Tolerance = +0.000000/-0.000000 PLATED MM Quantity = 221
;T03 Holesize 3. = 1.200000 Tolerance = +0.000000/-0.000000 PLATED MM Quantity = 9
;T04 Holesize 4. = 2.700000 Tolerance = +0.000000/-0.000000 PLATED MM Quantity = 4
;T05 Holesize 5. = 2.700000 Tolerance = +0.000000/-0.000000 NON_PLATED MM Quantity = 2
%
G90
T01
X400050Y127000
Y-844550
X361950Y101600
Y-857250
X590550Y38100
Y-457200
X514350Y-850900
Y-685800
Y38100
X495300Y-698500
Y38100
X476250Y-723900
Y38100
X1003300Y-533400
Y-673100
X133350Y-812800
Y-698500
X609600Y38100
Y-546100
X1193800
Y-1181100
X1314450Y-635000
Y-495300
X533400Y-514350
Y38100
Y-622300
X590500Y-571450
Y-514300
X1231900Y-1003300
Y-571500
X552450Y38100
Y-609600
X1289050
Y-698500
X552400Y-514300
X628650Y-514350
Y-584200
X1250950
Y-901700
X336550Y152400
Y76200
X393700Y647700
Y704850
Y590550
Y533400
Y355600
X139700Y-565150
X155000Y261020
X197390Y95400
X206700Y88900
Y165100
X88900Y292560
X134350Y-642350
X1041400Y-533400
Y-673100
X457200Y-711200
Y-838200
X140200Y-629150
X203200Y361950
R02Y57150
X139700Y-539750
X133350Y-577850
X133850Y-552950
Y-616450
X206700Y152400
Y76320
X139700Y-603250
X336550Y88900
X419100Y236920
X404000Y170000
X336550Y171450
X322000Y42300
X302790Y-499500
X247650Y-533400
X246000Y-647700
X305330Y-673100
X304800Y-787400
X204000Y-758000
X1130000Y-232000
X369770Y476250
R02Y-57150
X1130000Y-264000
X1087000
X1144000Y-214000
X1080000
X1012000Y-216000
X1010000Y-36000
Y-112000
Y-268000
X1025000Y-282000
X1036000Y-266000
X1018000Y-250000
X1046000Y-188000
X1056000Y-176000
X1045000Y-155000
X1095000Y-175000
X1120000
X1096000Y-152000
Y-92000
X1118000Y-114000
X1096000Y-68000
X1080000Y-54000
X1060000
X1046000Y-70000
Y-36000
X1102000
X1168000
Y-100000
Y-152000
X1170000Y-198000
X1166000Y-240000
X1154000Y-276000
X1208000Y-284000
X1216000Y-328000
X1198000Y-326000
X1190000Y-280000
X1180000Y-226000
X1234000Y-280000
X1284000Y-230000
X1234000Y-242000
X1254000Y-194000
X1222000Y-196000
X1228000Y-148000
X1206000
X1206500Y-95250
X1206000Y-16000
X1234000
X1240000Y-104000
X1270000Y-110000
X1272000Y-58000
X1298000
X1286000
X1272000Y-16000
X1298000
X1336000Y-58000
X1352000Y-64000
X1336000Y-16000
X1390000Y-64000
X1404000Y-80000
X1308000Y-106000
X1352000Y-104000
X1388000Y-118000
X1404000Y-136000
X1318000Y-132000
X1324000Y-148000
X1304000
X1306000Y-194000
X1341960Y-197160
X1306000Y-238000
X1261000Y-284000
Y-325000
X1247000Y-346000
X1203000Y-354000
X1206000Y-383000
X1178000Y-384000
X1157000Y-374000
X1136000Y-384000
X1124000Y-372000
X1016000Y-354000
X974000Y-36000
X1462800Y-435660
Y-515160
Y-658260
Y-810900
Y-979440
X72000Y-1114000
X343440Y-1383300
X451560
X610560
X718680
X817260
X912660
X1011240
X1116180
X1227480
X1361040Y-1361040
X1370580Y-1383300
X1510500Y-1243380
Y-1163880
Y-979440
X1511300Y-863600
X1510500Y-734580
Y-585120
Y-422940
X1364220Y-273480
Y-197160
X76320Y-1090740
X143100Y-1157520
X209880Y-1221120
X279840Y-1294260
X346620Y-1361040
X574000Y-1362000
R02X198000
X1170000
X1296000
X1446000Y-1308000
X1422000Y-1298000
X1486000Y-1234000
Y-1120000
Y-1020000
Y-938000
Y-854000
Y-768000
Y-616000
Y-430000
X1452000Y-396000
X1295000Y-395000
X1385000
X1340000Y-270000
X1305000Y-290000
X1350000Y-360000
X1121000Y-327000
X1140000Y-326000
X1153000
X1076000Y-314000
X1044000Y-327000
X1062000
X1074000Y-336000
X1048000Y-364000
X1014000Y-386000
X1249000Y-148000
X1276000
X1409000Y-149000
X1427000Y-163000
X1410000Y-195000
X902000Y-36000
X926000Y-50000
X946000
X924000Y34000
X974000
X1046000
R02X84000
X1318000
X1434000
X1395000Y-245000
X1220000Y-55000
X1140000Y-65000
X1135000Y-160000
X1385000Y-10000
X1032000Y-398000
X617300Y742300
X546100Y742950
X469900
X519120Y691620
X555050Y655690
X590970Y619770
X617300Y663220
X1427300Y-145130
R02Y50800
X1380620Y27300
X1346200Y-304800
X1398210Y-348350
X1239590Y-389930
X1434090Y-337200
X1427300Y-236060
X1389680Y-201920
X1390710Y-294260
X100110Y-484430
R02X50800
X247280Y-461980
R03Y101600
X247650Y-44450
X198130Y-42720
X96530
X3490Y-70930
X-7300Y-120570
Y-222170
Y-272970
Y-323770
Y-425370
X9940Y-525410
X60740Y-525400
X347820Y-529630
X657370Y-473980
X665270Y-524170
X766580Y-529630
R02X101600
X986830Y-481780
R02Y50800
X986500Y-329380
X967280Y-231550
Y-129950
X873730Y-40970
X772160Y-42720
X670560
X619760
X464000Y-40000
X314960Y-42720
X302720Y-92020
Y-193620
Y-244420
Y-295220
Y-396820
X1440970Y-422870
R03X-101600
X1085370Y-422370
X1057870Y-515880
X1157570Y-529630
X1208320Y-532020
X1332940Y-643180
X1434000Y-652000
X345780Y-796330
X447380
X498180
R07X50800
X891160Y-761940
X927090Y-726010
X963010Y-690090
X913760Y-677620
R05X-50800
X619120Y-708100
X585920Y-746550
X535490Y-740370
X484730Y-742250
X433960Y-740370
X77360Y-753070
X94080Y-801040
X1343020Y-1121370
X1241420
X1280090Y-1088430
X1330890
X1381240Y-1081680
X1425380Y-1056520
X1402000Y-1020000
X1334030Y-1019770
X1232570Y-1023500
X1267730Y-986830
X1368880Y-980080
X1432000Y-954000
X1402000Y-916000
X1327190Y-918170
X1276390
X1315060Y-885230
X1365410Y-878480
X1434000Y-852000
X1404000Y-816000
X1275980Y-819410
X1312050Y-783630
X1362400Y-776880
X1436000Y-752000
X1402000Y-712000
X1327170Y-714970
X1241940Y-677620
X1140340
X1042070Y-695720
X970230Y-767560
X898380Y-839400
X849930Y-854670
X748330
X818260Y-928320
X890110Y-1000170
X961950Y-1072010
X1033790Y-1143850
X1105630Y-1215690
X1154420Y-1201530
X1191020Y-1236760
X1184570Y-1287150
X1133780Y-1286360
X1059960Y-1216610
X988120Y-1144760
X916280Y-1072920
X831850Y-990600
X772590Y-929240
X693000Y-867370
X591400
X491410Y-854670
X440820Y-850030
X430010Y-899670
X328420Y-899120
X226820
X125580Y-899620
X74820Y-897650
X72150Y-1050010
X110110Y-1083770
X181950Y-1155610
X253800Y-1227460
X325640Y-1299300
X361560Y-1335220
X463150Y-1336080
R08X101600
X1370880Y-1310920
X1442720Y-1239080
X1456730Y-1190240
Y-1139440
X73770Y-1337300
R02X101600
X209540Y-1261540
X137690Y-1189690
X145680Y-382830
R02Y101600
X107950Y-107950
X94300Y-192900
Y-294500
X428090Y-428030
X454490Y-384630
X645350Y-348410
X770980Y-428030
X872580
X869490Y-330530
X865680Y-229080
X827900Y-144320
R03X-101600
X1111780Y-983020
X1130280Y-884990
X1148950Y-786450
X1049620Y-794640
X1001570Y-879890
X977900Y-939800
X1028460Y-994840
X404500Y-1234480
X556900
X658500
R02X101600
X889070Y-1189400
X817230Y-1117560
X745390Y-1045720
X673550Y-973880
X572190Y-968970
X474290Y-991240
X374530Y-1000720
X272930
X225650Y-1055620
X333410Y-1163380
X787400Y-317500
X713280Y-245920
X446580Y-1132880
R02X101600
X639190Y-1083200
X545020Y-1072200
X1270000Y-1240000
X1322000Y-1298000
X1238250Y-1168400
X1295400
X1238250Y-1200150
X1301750
X1365250Y-1225550
X1400000Y-1120000
X704850Y-723900
X800100Y-755650
X342900Y-647700
Y-673100
X431800Y-647700
X463550
X527050
X654050
X736600
X590550
X584200Y-673100
X831850Y-647700
X927100
X990600
X1054100
X1111250
X1181100
X1301750
X1327150Y-609600
X1403350Y-615950
X1327150Y-514350
X1397000Y-520700
X1333500Y-577850
X1295400Y-584200
X1298000Y-492000
X1346200Y-482600
X1193800Y-476250
X622300Y57150
Y127000
Y215900
Y304800
Y425450
Y527050
Y615950
X387350Y742950
X317500Y749300
X330200Y723900
X326000Y688000
Y630000
Y604000
Y574000
Y518000
Y488000
Y460000
R02Y-28000
Y374000
Y346000
X374650Y628650
X438150Y660400
X450850Y628650
X508000Y590550
X558800Y520700
X438150Y603250
X374650Y571500
X450850
X539750Y488950
X508000Y533400
X376000Y514000
X438150Y546100
X450850Y514350
X520700Y457200
X577850Y558800
X600000Y570000
Y74000
X581000Y98000
X562000Y78000
X543000Y98000
X524000Y78000
X505000Y98000
X486000Y78000
X463550Y57150
Y158750
Y279400
Y342900
X408000Y376000
X378000
X366000Y338000
X414000Y330000
X412750Y254000
X342900Y311150
X387350Y292100
X336550Y209550
X361950Y165100
X501650Y412750
X438150Y488950
X450850Y457200
X374650
Y400050
X438150Y431800
X450850Y400050
X482600Y381000
X514350Y622300
X438150Y704850
X374650Y685800
X571500Y698500
X326000Y660000
X432000Y-56000
X431800Y-127000
X463550Y-209550
X431800Y-273050
X463550Y-533400
X431800
X505000Y-387000
X485000Y-273000
X543000Y-196000
X562000Y-292000
X581000Y-79000
Y-407000
X600000Y-336000
Y-182000
X543000Y-356000
X524000Y-439000
X485000Y-491000
X410000Y39000
X390000
X372000
X409000Y108000
X372000Y-65000
X390000Y-124000
X409000Y-88000
X371000Y-317000
X391000Y-379000
X410000Y-322000
X371000Y-519000
X390000Y-486000
X410000Y-531000
X372000Y-736000
X343000
X390000Y-770000
X410000Y-801000
X401000Y-865000
X342000Y-835000
X144000
X147000Y-740000
X199000Y-742000
X150000Y-797000
X317500Y-482600
X184150Y-774700
X317500Y-800100
X298450Y-730250
Y-533400
Y-628650
X247650Y-590550
Y-685800
Y-768350
X203200Y-514350
X107950
X203200Y-660400
X146050
Y-590550
X1032000Y-504000
X1013000Y-516000
X641350Y-57150
X349250
X882650Y31750
X628650Y-241300
Y-444500
X486000Y-54000
X505000Y-109000
X543000Y-46000
X562000Y-104000
X100000Y-1224000
X145000Y-1290000
X158750Y742950
X215900Y691080
R03Y-57150
X419100Y139700
Y-882650
X381000Y114300
Y-869950
X571500Y-514350
Y38100
Y-558800
X1212850
Y-1104900
X1022350Y-533400
Y-673100
X114300Y-825500
Y-723900
X647650Y-514300
Y-596850
X1270000Y-596900
Y-800100
T02
X355600Y254000
X330200
X279400
X228600
X1206500Y-209550
X1238250
X1276350
X1428750Y-596900
Y-571500
Y-698500
Y-673100
Y-800100
Y-774700
Y-901700
Y-876300
Y-1003300
Y-977900
Y-1104900
Y-1079500
Y-1206500
Y-1181100
Y-495300
Y-469900
X0Y0
X0Y228600
X0Y254000
R08Y25400
X0Y25400
X0Y482600
X0Y508000
R08Y25400
X0Y50800
X0Y736600
X0Y762000
X0Y787400
X0Y76200
R05Y25400
X25400Y0
Y228600
Y254000
R08Y25400
Y25400
Y482600
Y508000
R08Y25400
Y50800
Y736600
Y762000
Y787400
Y76200
R05Y25400
X50800Y0
Y228600
Y254000
R08Y25400
Y25400
Y482600
Y508000
R08Y25400
Y50800
Y736600
Y762000
Y787400
Y76200
R05Y25400
X0Y-1333500
X0Y-1104900
X0Y-1079500
R08Y25400
X0Y-1308100
X0Y-850900
X0Y-825500
R08Y25400
X0Y-1282700
X0Y-596900
X0Y-571500
X0Y-546100
X0Y-1257300
R05Y25400
X25400Y-1333500
Y-1104900
Y-1079500
R08Y25400
Y-1308100
Y-850900
Y-825500
R08Y25400
Y-1282700
Y-596900
Y-571500
Y-546100
Y-1257300
R05Y25400
X50800Y-1333500
Y-1104900
Y-1079500
R08Y25400
Y-1308100
Y-850900
Y-825500
R08Y25400
Y-1282700
Y-596900
Y-571500
Y-546100
Y-1257300
R05Y25400
X133350Y711200
X158750
X190500Y-285750
X215900
X1149350Y-450850
X1174750
T03
X1066800Y-406400
X1162050Y-1295400
X1314450Y-336550
Y-368300
X1104900Y-406400
X1066800Y-355600
X1123950Y-139700
Y-88900
X1162050Y-1225550
T04
X-25400Y-50800
Y838200
Y-1384300
Y-495300
T05
X1511300Y838200
Y-1384300
M30
