G04 ================== begin FILE IDENTIFICATION RECORD ==================*
G04 Layout Name:  D:/Project/Circuit/ORCAD/BVP/04v1/pcb/BVP_04V1.brd*
G04 Film Name:    MASK_BOT*
G04 File Format:  Gerber RS274X*
G04 File Origin:  Cadence Allegro 16.6-S018*
G04 Origin Date:  Fri Nov 08 18:14:27 2013*
G04 *
G04 Layer:  PACKAGE GEOMETRY/SOLDERMASK_BOTTOM*
G04 Layer:  PIN/SOLDERMASK_BOTTOM*
G04 Layer:  VIA CLASS/SOLDERMASK_BOTTOM*
G04 *
G04 Offset:    (0.000 0.000)*
G04 Mirror:    No*
G04 Mode:      Positive*
G04 Rotation:  0*
G04 FullContactRelief:  No*
G04 UndefLineWidth:     0.000*
G04 ================== end FILE IDENTIFICATION RECORD ====================*
%FSLAX34Y34*MOMM*%
%IR0*IPPOS*OFA0.00000B0.00000*MIA0B0*SFA1.00000B1.00000*%
%ADD13C,3.*%
%ADD15C,2.2*%
%ADD10C,4.2*%
%ADD14C,1.8*%
%ADD16C,2.8*%
%ADD11C,1.75*%
%ADD12R,1.75X1.75*%
%LPD*%
G75*
G54D10*
X-25400Y-1384300D03*
Y-495300D03*
Y-50800D03*
Y838200D03*
G54D11*
X25400Y-1308100D03*
X0D03*
X25400Y-1231900D03*
Y-1257300D03*
Y-1282700D03*
X0Y-1231900D03*
Y-1257300D03*
Y-1282700D03*
X25400Y-1155700D03*
Y-1181100D03*
Y-1206500D03*
X0Y-1155700D03*
Y-1181100D03*
Y-1206500D03*
X25400Y-1130300D03*
Y-1079500D03*
X0Y-1130300D03*
Y-1079500D03*
X25400Y-1003300D03*
Y-1028700D03*
Y-1054100D03*
X0Y-1003300D03*
Y-1028700D03*
Y-1054100D03*
X25400Y-927100D03*
Y-952500D03*
Y-977900D03*
X0Y-927100D03*
Y-952500D03*
Y-977900D03*
X25400Y-876300D03*
Y-901700D03*
X0Y-876300D03*
Y-901700D03*
X25400Y-774700D03*
Y-800100D03*
Y-825500D03*
X0Y-774700D03*
Y-800100D03*
Y-825500D03*
X25400Y-698500D03*
Y-723900D03*
Y-749300D03*
X0Y-698500D03*
Y-723900D03*
Y-749300D03*
X25400Y-622300D03*
Y-647700D03*
Y-673100D03*
X0Y-622300D03*
Y-647700D03*
Y-673100D03*
X25400Y-546100D03*
Y-571500D03*
X0Y-546100D03*
Y-571500D03*
X25400Y50800D03*
Y25400D03*
X0Y50800D03*
Y25400D03*
X25400Y127000D03*
Y101600D03*
Y76200D03*
X0Y127000D03*
Y101600D03*
Y76200D03*
X25400Y203200D03*
Y177800D03*
Y152400D03*
X0Y203200D03*
Y177800D03*
Y152400D03*
X25400Y279400D03*
Y254000D03*
X0Y279400D03*
Y254000D03*
X25400Y355600D03*
Y330200D03*
Y304800D03*
X0Y355600D03*
Y330200D03*
Y304800D03*
X25400Y431800D03*
Y406400D03*
Y381000D03*
X0Y431800D03*
Y406400D03*
Y381000D03*
X25400Y508000D03*
Y457200D03*
X0Y508000D03*
Y457200D03*
X25400Y584200D03*
Y558800D03*
Y533400D03*
X0Y584200D03*
Y558800D03*
Y533400D03*
X25400Y660400D03*
Y635000D03*
Y609600D03*
X0Y660400D03*
Y635000D03*
Y609600D03*
X25400Y711200D03*
Y685800D03*
X0Y711200D03*
Y685800D03*
X25400Y787400D03*
Y762000D03*
X0Y787400D03*
Y762000D03*
X50800Y-1308100D03*
Y-1231900D03*
Y-1257300D03*
Y-1282700D03*
Y-1155700D03*
Y-1181100D03*
Y-1206500D03*
Y-1130300D03*
Y-1079500D03*
Y-1003300D03*
Y-1028700D03*
Y-1054100D03*
Y-927100D03*
Y-952500D03*
Y-977900D03*
Y-876300D03*
Y-901700D03*
Y-774700D03*
Y-800100D03*
Y-825500D03*
Y-698500D03*
Y-723900D03*
Y-749300D03*
Y-622300D03*
Y-647700D03*
Y-673100D03*
Y-546100D03*
Y-571500D03*
Y50800D03*
Y25400D03*
Y127000D03*
Y101600D03*
Y76200D03*
Y203200D03*
Y177800D03*
Y152400D03*
Y279400D03*
Y254000D03*
Y355600D03*
Y330200D03*
Y304800D03*
Y431800D03*
Y406400D03*
Y381000D03*
Y508000D03*
Y457200D03*
Y584200D03*
Y558800D03*
Y533400D03*
Y660400D03*
Y635000D03*
Y609600D03*
Y711200D03*
Y685800D03*
Y787400D03*
Y762000D03*
X228600Y254000D03*
X279400D03*
X330200D03*
G54D12*
X25400Y-1333500D03*
X0D03*
X25400Y-1104900D03*
X0D03*
X25400Y-850900D03*
X0D03*
X25400Y-596900D03*
X0D03*
X25400Y0D03*
X0D03*
X25400Y228600D03*
X0D03*
X25400Y482600D03*
X0D03*
X25400Y736600D03*
X0D03*
X50800Y-1333500D03*
Y-1104900D03*
Y-850900D03*
Y-596900D03*
Y0D03*
Y228600D03*
Y482600D03*
Y736600D03*
X190500Y-285750D03*
X133350Y711200D03*
X355600Y254000D03*
X1149350Y-450850D03*
X1428750Y-1206500D03*
Y-1104900D03*
Y-1003300D03*
Y-901700D03*
Y-800100D03*
Y-698500D03*
Y-596900D03*
Y-495300D03*
G54D13*
X50800Y-1384300D03*
Y838200D03*
X1422400Y-1384300D03*
Y838200D03*
G54D14*
X158750Y711200D03*
X215900Y-285750D03*
X1174750Y-450850D03*
X1428750Y-1181100D03*
Y-1079500D03*
Y-977900D03*
Y-876300D03*
Y-774700D03*
Y-673100D03*
Y-571500D03*
Y-469900D03*
G54D15*
X1066800Y-406400D03*
X1104900D03*
X1066800Y-355600D03*
X1162050Y-1225550D03*
Y-1295400D03*
X1123950Y-139700D03*
Y-88900D03*
X1206500Y-209550D03*
X1238250D03*
X1314450Y-336550D03*
Y-368300D03*
X1276350Y-209550D03*
G54D16*
X1511300Y-1384300D03*
Y838200D03*
M02*
