G04 ================== begin FILE IDENTIFICATION RECORD ==================*
G04 Layout Name:  D:/Project/Circuit/ORCAD/BVP/04v1/pcb/BVP_04V1.brd*
G04 Film Name:    MASK_TOP*
G04 File Format:  Gerber RS274X*
G04 File Origin:  Cadence Allegro 16.6-S018*
G04 Origin Date:  Fri Nov 08 18:14:27 2013*
G04 *
G04 Layer:  PACKAGE GEOMETRY/SOLDERMASK_TOP*
G04 Layer:  PIN/SOLDERMASK_TOP*
G04 Layer:  VIA CLASS/SOLDERMASK_TOP*
G04 *
G04 Offset:    (0.000 0.000)*
G04 Mirror:    No*
G04 Mode:      Positive*
G04 Rotation:  0*
G04 FullContactRelief:  No*
G04 UndefLineWidth:     0.000*
G04 ================== end FILE IDENTIFICATION RECORD ====================*
%FSLAX34Y34*MOMM*%
%IR0*IPPOS*OFA0.00000B0.00000*MIA0B0*SFA1.00000B1.00000*%
%ADD27R,.8X1.2*%
%ADD32R,.8X1.3*%
%ADD26R,1.2X.8*%
%ADD20C,1.2*%
%ADD13C,3.*%
%ADD29R,1.3X.8*%
%ADD28C,2.2*%
%ADD24R,2.2X.8*%
%ADD10C,4.2*%
%ADD33R,1.65X.5*%
%ADD23C,1.8*%
%ADD34C,2.8*%
%ADD30R,.8X1.75*%
%ADD11C,1.75*%
%ADD31R,1.65X.65*%
%ADD17R,2.25X2.25*%
%ADD15R,1.45X1.45*%
%ADD12R,1.75X1.75*%
%ADD19R,1.6X1.3*%
%ADD21R,2.2X3.6*%
%ADD14R,1.15X1.6*%
%ADD18R,1.6X1.15*%
%ADD25O,2.35X1.7*%
%ADD16R,1.45X1.27*%
%ADD22R,1.65X1.35*%
%LPD*%
G75*
G54D10*
X-25400Y-1384300D03*
Y-495300D03*
Y-50800D03*
Y838200D03*
G54D11*
X25400Y-1308100D03*
X0D03*
X25400Y-1231900D03*
Y-1257300D03*
Y-1282700D03*
X0Y-1231900D03*
Y-1257300D03*
Y-1282700D03*
X25400Y-1155700D03*
Y-1181100D03*
Y-1206500D03*
X0Y-1155700D03*
Y-1181100D03*
Y-1206500D03*
X25400Y-1130300D03*
Y-1079500D03*
X0Y-1130300D03*
Y-1079500D03*
X25400Y-1003300D03*
Y-1028700D03*
Y-1054100D03*
X0Y-1003300D03*
Y-1028700D03*
Y-1054100D03*
X25400Y-927100D03*
Y-952500D03*
Y-977900D03*
X0Y-927100D03*
Y-952500D03*
Y-977900D03*
X25400Y-876300D03*
Y-901700D03*
X0Y-876300D03*
Y-901700D03*
X25400Y-774700D03*
Y-800100D03*
Y-825500D03*
X0Y-774700D03*
Y-800100D03*
Y-825500D03*
X25400Y-698500D03*
Y-723900D03*
Y-749300D03*
X0Y-698500D03*
Y-723900D03*
Y-749300D03*
X25400Y-622300D03*
Y-647700D03*
Y-673100D03*
X0Y-622300D03*
Y-647700D03*
Y-673100D03*
X25400Y-546100D03*
Y-571500D03*
X0Y-546100D03*
Y-571500D03*
X25400Y50800D03*
Y25400D03*
X0Y50800D03*
Y25400D03*
X25400Y127000D03*
Y101600D03*
Y76200D03*
X0Y127000D03*
Y101600D03*
Y76200D03*
X25400Y203200D03*
Y177800D03*
Y152400D03*
X0Y203200D03*
Y177800D03*
Y152400D03*
X25400Y279400D03*
Y254000D03*
X0Y279400D03*
Y254000D03*
X25400Y355600D03*
Y330200D03*
Y304800D03*
X0Y355600D03*
Y330200D03*
Y304800D03*
X25400Y431800D03*
Y406400D03*
Y381000D03*
X0Y431800D03*
Y406400D03*
Y381000D03*
X25400Y508000D03*
Y457200D03*
X0Y508000D03*
Y457200D03*
X25400Y584200D03*
Y558800D03*
Y533400D03*
X0Y584200D03*
Y558800D03*
Y533400D03*
X25400Y660400D03*
Y635000D03*
Y609600D03*
X0Y660400D03*
Y635000D03*
Y609600D03*
X25400Y711200D03*
Y685800D03*
X0Y711200D03*
Y685800D03*
X25400Y787400D03*
Y762000D03*
X0Y787400D03*
Y762000D03*
X50800Y-1308100D03*
Y-1231900D03*
Y-1257300D03*
Y-1282700D03*
Y-1155700D03*
Y-1181100D03*
Y-1206500D03*
Y-1130300D03*
Y-1079500D03*
Y-1003300D03*
Y-1028700D03*
Y-1054100D03*
Y-927100D03*
Y-952500D03*
Y-977900D03*
Y-876300D03*
Y-901700D03*
Y-774700D03*
Y-800100D03*
Y-825500D03*
Y-698500D03*
Y-723900D03*
Y-749300D03*
Y-622300D03*
Y-647700D03*
Y-673100D03*
Y-546100D03*
Y-571500D03*
Y50800D03*
Y25400D03*
Y127000D03*
Y101600D03*
Y76200D03*
Y203200D03*
Y177800D03*
Y152400D03*
Y279400D03*
Y254000D03*
Y355600D03*
Y330200D03*
Y304800D03*
Y431800D03*
Y406400D03*
Y381000D03*
Y508000D03*
Y457200D03*
Y584200D03*
Y558800D03*
Y533400D03*
Y660400D03*
Y635000D03*
Y609600D03*
Y711200D03*
Y685800D03*
Y787400D03*
Y762000D03*
X228600Y254000D03*
X279400D03*
X330200D03*
G54D20*
X165100Y0D03*
X114300Y285750D03*
X177800Y742950D03*
X1009650Y-6350D03*
G54D21*
X177800Y203200D03*
X212800D03*
X357150D03*
X392150D03*
X865150Y0D03*
X900150D03*
G54D12*
X25400Y-1333500D03*
X0D03*
X25400Y-1104900D03*
X0D03*
X25400Y-850900D03*
X0D03*
X25400Y-596900D03*
X0D03*
X25400Y0D03*
X0D03*
X25400Y228600D03*
X0D03*
X25400Y482600D03*
X0D03*
X25400Y736600D03*
X0D03*
X50800Y-1333500D03*
Y-1104900D03*
Y-850900D03*
Y-596900D03*
Y0D03*
Y228600D03*
Y482600D03*
Y736600D03*
X190500Y-285750D03*
X133350Y711200D03*
X355600Y254000D03*
X1149350Y-450850D03*
X1428750Y-1206500D03*
Y-1104900D03*
Y-1003300D03*
Y-901700D03*
Y-800100D03*
Y-698500D03*
Y-596900D03*
Y-495300D03*
G54D30*
X1098550Y-249250D03*
Y-195250D03*
X1136650Y-249250D03*
X1123950D03*
X1111250D03*
Y-195250D03*
X1123950D03*
X1136650D03*
X1390650Y-134950D03*
X1377950D03*
X1365250D03*
X1352550D03*
Y-80950D03*
X1365250D03*
X1377950D03*
X1390650D03*
G54D22*
X155000Y249000D03*
Y231000D03*
X419100Y206900D03*
Y224900D03*
X927100Y-34400D03*
Y-16400D03*
X1035050Y-250300D03*
Y-232300D03*
X1060450Y-67200D03*
Y-85200D03*
X1130300Y-313800D03*
Y-295800D03*
X1219200Y-129650D03*
Y-111650D03*
X1276350Y-91550D03*
Y-73550D03*
X1352550Y-180450D03*
Y-162450D03*
X1409700D03*
Y-180450D03*
G54D31*
X1101500Y-104550D03*
Y-111050D03*
Y-117550D03*
Y-124050D03*
X1057500D03*
Y-117550D03*
Y-111050D03*
Y-104550D03*
G54D13*
X50800Y-1384300D03*
Y838200D03*
X1422400Y-1384300D03*
Y838200D03*
G54D14*
X98400Y-698500D03*
X79400D03*
X98400Y-723900D03*
X79400D03*
X98400Y508000D03*
X79400D03*
X98400Y482600D03*
X79400D03*
X98400Y457200D03*
X79400D03*
Y533400D03*
X98400D03*
X79400Y558800D03*
X98400D03*
X79400Y584200D03*
X98400D03*
X79400Y609600D03*
X98400D03*
X339750Y361950D03*
Y444500D03*
Y387350D03*
Y419100D03*
Y501650D03*
Y476250D03*
Y558800D03*
Y590550D03*
Y533400D03*
Y615950D03*
Y673100D03*
Y647700D03*
Y704850D03*
X358750Y361950D03*
Y444500D03*
Y387350D03*
Y419100D03*
Y501650D03*
Y476250D03*
Y558800D03*
Y590550D03*
Y533400D03*
Y615950D03*
Y673100D03*
Y647700D03*
Y704850D03*
X1381100Y-1181100D03*
X1362100D03*
X1381100Y-1104900D03*
X1362100D03*
X1381100Y-1003300D03*
X1362100D03*
X1381100Y-901700D03*
X1362100D03*
X1381100Y-800100D03*
X1362100D03*
X1381100Y-698500D03*
X1362100D03*
X1381100Y-596900D03*
X1362100D03*
X1381100Y-495300D03*
X1362100D03*
G54D23*
X158750Y711200D03*
X215900Y-285750D03*
X1174750Y-450850D03*
X1428750Y-1181100D03*
Y-1079500D03*
Y-977900D03*
Y-876300D03*
Y-774700D03*
Y-673100D03*
Y-571500D03*
Y-469900D03*
G54D32*
X1216050Y-342600D03*
X1235050D03*
Y-368600D03*
X1225550D03*
X1216050D03*
G54D15*
X85600Y-641850D03*
Y-602750D03*
Y-578350D03*
Y-539250D03*
X108200Y202700D03*
X76200D03*
X108200Y241800D03*
X76200D03*
X161800Y-883150D03*
Y-844050D03*
X158750Y-718550D03*
Y-642350D03*
Y-679450D03*
X117600Y-641850D03*
X158750Y-578850D03*
Y-603250D03*
X117600Y-602750D03*
Y-578350D03*
X158750Y-539750D03*
X117600Y-539250D03*
X193800Y-883150D03*
Y-844050D03*
X190750Y-718550D03*
Y-642350D03*
Y-679450D03*
Y-578850D03*
Y-603250D03*
Y-539750D03*
X565150Y-724900D03*
Y-685800D03*
X597150Y-724900D03*
Y-685800D03*
G54D33*
X1254350Y-137000D03*
Y-132000D03*
Y-127000D03*
Y-122000D03*
Y-117000D03*
X1298350D03*
Y-122000D03*
Y-127000D03*
Y-132000D03*
Y-137000D03*
G54D24*
X228600Y-787400D03*
Y-774700D03*
Y-762000D03*
Y-749300D03*
Y-736600D03*
Y-723900D03*
Y-711200D03*
Y-698500D03*
Y-647700D03*
Y-635000D03*
Y-622300D03*
Y-685800D03*
Y-673100D03*
Y-609600D03*
Y-596900D03*
Y-584200D03*
Y-571500D03*
Y-558800D03*
Y-546100D03*
Y-533400D03*
X224500Y76200D03*
Y88900D03*
Y101600D03*
Y114300D03*
Y127000D03*
Y139700D03*
Y152400D03*
Y165100D03*
X321600Y-774700D03*
Y-787400D03*
Y-698500D03*
Y-711200D03*
Y-723900D03*
Y-736600D03*
Y-749300D03*
Y-762000D03*
Y-622300D03*
Y-635000D03*
Y-647700D03*
Y-673100D03*
Y-685800D03*
Y-546100D03*
Y-558800D03*
Y-571500D03*
Y-584200D03*
Y-596900D03*
Y-609600D03*
Y-533400D03*
X317500Y139700D03*
Y127000D03*
Y114300D03*
Y101600D03*
Y88900D03*
Y76200D03*
Y165100D03*
Y152400D03*
G54D16*
X85600Y-628650D03*
Y-615950D03*
Y-565150D03*
Y-552450D03*
X108200Y215900D03*
X76200D03*
X108200Y228600D03*
X76200D03*
X161800Y-869950D03*
Y-857250D03*
X158750Y-705350D03*
Y-629150D03*
Y-692650D03*
X117600Y-628650D03*
X158750Y-565650D03*
Y-552950D03*
Y-616450D03*
X117600Y-615950D03*
Y-552450D03*
Y-565150D03*
X193800Y-857250D03*
Y-869950D03*
X190750Y-705350D03*
Y-629150D03*
Y-692650D03*
Y-552950D03*
Y-565650D03*
Y-616450D03*
X565150Y-711700D03*
Y-699000D03*
X597150D03*
Y-711700D03*
G54D25*
X222250Y361950D03*
Y419100D03*
Y444500D03*
Y387350D03*
Y476250D03*
Y501650D03*
X221150Y533400D03*
Y558800D03*
Y590550D03*
Y615950D03*
Y647700D03*
Y673100D03*
Y704850D03*
Y730250D03*
X312250Y361950D03*
Y444500D03*
Y419100D03*
Y387350D03*
Y501650D03*
Y476250D03*
X311150Y558800D03*
Y533400D03*
Y590550D03*
Y615950D03*
Y673100D03*
Y647700D03*
Y730250D03*
Y704850D03*
G54D34*
X1511300Y-1384300D03*
Y838200D03*
G54D17*
X101600Y46900D03*
Y3900D03*
X95250Y638900D03*
Y681900D03*
G54D26*
X345300Y739750D03*
X368300Y749250D03*
Y730250D03*
G54D18*
X95250Y123850D03*
Y142850D03*
X114300Y123850D03*
Y142850D03*
X361950Y66700D03*
Y85700D03*
X381000Y66700D03*
Y85700D03*
X1009650Y-320700D03*
Y-339700D03*
X1073150Y-250800D03*
X1054100D03*
X1092200Y-314300D03*
Y-295300D03*
X1073150Y-231800D03*
X1054100D03*
X1149350Y-1266800D03*
Y-1247800D03*
Y-358750D03*
Y-339750D03*
X1168400D03*
Y-358750D03*
X1111250Y-314300D03*
Y-295300D03*
X1149350D03*
Y-314300D03*
X1168400D03*
Y-295300D03*
X1225550D03*
Y-314300D03*
X1244600Y-295300D03*
Y-314300D03*
X1219200Y-180950D03*
Y-161950D03*
X1263650Y-358750D03*
Y-339750D03*
X1276350Y-180950D03*
Y-161950D03*
X1371600Y-180950D03*
X1390650D03*
X1333500D03*
X1371600Y-161950D03*
X1390650D03*
X1333500D03*
G54D27*
X542900Y-472300D03*
X552400Y-495300D03*
X533400D03*
X638150Y-472300D03*
X628650Y-495300D03*
X581000Y-472300D03*
X590500Y-495300D03*
X571500D03*
X647650D03*
G54D19*
X88900Y304800D03*
Y321800D03*
X184150Y101600D03*
Y84600D03*
X203200Y-772550D03*
Y-789550D03*
X222250Y-40250D03*
Y-23250D03*
X317500Y-499500D03*
Y-516500D03*
X336550Y-40250D03*
Y-23250D03*
Y42300D03*
Y59300D03*
X444500Y-40250D03*
Y-23250D03*
X419100Y169300D03*
Y186300D03*
X641350Y-40250D03*
Y-23250D03*
X946150Y-33900D03*
Y-16900D03*
X1009650Y-300600D03*
Y-283600D03*
X1092200Y-340750D03*
Y-357750D03*
X1073150Y-199000D03*
Y-182000D03*
X1060450Y-143900D03*
Y-160900D03*
X1079500Y-143900D03*
Y-160900D03*
Y-84700D03*
Y-67700D03*
X1168400Y-1265800D03*
Y-1248800D03*
X1111250Y-357750D03*
Y-340750D03*
X1130300Y-357750D03*
Y-340750D03*
X1187450Y-357750D03*
Y-340750D03*
X1238250Y-162950D03*
Y-179950D03*
X1282700Y-357750D03*
Y-340750D03*
X1314450Y-179950D03*
Y-162950D03*
X1257300D03*
Y-179950D03*
X1295400Y-91050D03*
Y-74050D03*
X1333500Y-91050D03*
Y-74050D03*
G54D28*
X1066800Y-406400D03*
X1104900D03*
X1066800Y-355600D03*
X1162050Y-1225550D03*
Y-1295400D03*
X1123950Y-139700D03*
Y-88900D03*
X1206500Y-209550D03*
X1238250D03*
X1314450Y-336550D03*
Y-368300D03*
X1276350Y-209550D03*
G54D29*
X1034750Y-314300D03*
Y-304800D03*
Y-295300D03*
X1060750D03*
Y-304800D03*
Y-314300D03*
M02*
