G04 ================== begin FILE IDENTIFICATION RECORD ==================*
G04 Layout Name:  D:/Project/Circuit/ORCAD/BVP/04v1/pcb/BVP_04V1.brd*
G04 Film Name:    TOP*
G04 File Format:  Gerber RS274X*
G04 File Origin:  Cadence Allegro 16.6-S018*
G04 Origin Date:  Fri Nov 08 18:14:28 2013*
G04 *
G04 Layer:  VIA CLASS/TOP*
G04 Layer:  PIN/TOP*
G04 Layer:  ETCH/TOP*
G04 *
G04 Offset:    (0.000 0.000)*
G04 Mirror:    No*
G04 Mode:      Positive*
G04 Rotation:  0*
G04 FullContactRelief:  No*
G04 UndefLineWidth:     0.250*
G04 ================== end FILE IDENTIFICATION RECORD ====================*
%FSLAX34Y34*MOMM*%
%IR0*IPPOS*OFA0.00000B0.00000*MIA0B0*SFA1.00000B1.00000*%
%ADD26R,.6X1.*%
%ADD31R,.6X1.1*%
%ADD25R,1.X.6*%
%ADD28R,1.1X.6*%
%ADD23R,2.X.6*%
%ADD13C,1.*%
%ADD27C,2.*%
%ADD10C,4.*%
%ADD32R,1.45X.3*%
%ADD22C,1.6*%
%ADD29R,.6X1.55*%
%ADD14R,.95X1.4*%
%ADD30R,1.45X.45*%
%ADD18R,1.4X.95*%
%ADD11C,1.55*%
%ADD17R,2.05X2.05*%
%ADD15R,1.15X1.15*%
%ADD12R,1.55X1.55*%
%ADD19R,1.4X1.1*%
%ADD20R,2.X3.4*%
%ADD24O,2.15X1.5*%
%ADD16R,1.15X1.05*%
%ADD33C,.2*%
%ADD21R,1.45X1.15*%
%ADD34C,.4*%
%ADD35C,.5*%
%ADD36C,.25*%
%ADD39C,2.104*%
%ADD41C,1.504*%
%ADD40C,2.504*%
%ADD37C,2.054*%
%ADD42C,1.704*%
%ADD38C,2.154*%
G75*
%LPD*%
G75*
G36*
G01X1038820Y-287610D02*
G02X1039030Y-287100I720J2D01*
G03X1039170Y-286960I-2597J2737D01*
G02X1039190Y-286940I717J-697D01*
G01X1048560Y-277580D01*
G02X1050380Y-276820I1828J-1818D01*
G01X1140380D01*
G03X1147530Y-273860I-3J10122D01*
G01X1156510Y-264880D01*
G03X1159470Y-257730I-7162J7153D01*
G01Y-211410D01*
G03X1159460Y-210870I-10122J83D01*
G02X1160050Y-209900I998J57D01*
G01X1161750Y-209140D01*
G02X1162870Y-209350I408J-914D01*
G01X1163870Y-210360D01*
G02X1164630Y-212180I-1818J-1828D01*
G01Y-225980D01*
G03X1167590Y-233130I10122J3D01*
G01X1220300Y-285830D01*
G02X1220510Y-286920I-711J-702D01*
G01X1220400Y-287200D01*
X1219900Y-287530D01*
X1216530D01*
G03X1215530Y-288530I0J-1000D01*
G01Y-302070D01*
G03X1216530Y-303070I1000J0D01*
G01X1253620D01*
G03X1254620Y-302070I0J1000D01*
G01Y-288530D01*
G03X1253620Y-287530I-1000J0D01*
G01X1250560D01*
G02X1249630Y-286910I-4J1001D01*
G01X1249520Y-286630D01*
X1249630Y-286050D01*
X1296210Y-239480D01*
G03X1299170Y-232330I-7162J7153D01*
G01Y-155020D01*
G03X1296210Y-147870I-10122J-3D01*
G01X1291550Y-143220D01*
G02X1291340Y-142130I711J702D01*
G01X1291450Y-141850D01*
X1291950Y-141520D01*
X1306890D01*
G02X1307600Y-141810I6J-1000D01*
G01X1309920Y-144140D01*
G02X1310680Y-145960I-1818J-1828D01*
G01Y-153430D01*
G02X1309680Y-154430I-1000J0D01*
G01X1305430D01*
G03X1304430Y-155430I0J-1000D01*
G01Y-170970D01*
X1304640Y-171180D01*
G02X1304930Y-171880I-710J-704D01*
G01Y-186970D01*
G03X1305930Y-187970I1000J0D01*
G01X1323980D01*
Y-188220D01*
X1341280D01*
G02X1342280Y-189220I0J-1000D01*
G01X1347780D01*
G02X1348780Y-190220I0J-1000D01*
G01Y-276780D01*
G03X1351740Y-283930I10122J3D01*
G01X1494070Y-426260D01*
G02X1494830Y-428080I-1818J-1828D01*
G01Y-1235620D01*
G02X1494070Y-1237440I-2578J8D01*
G01X1364440Y-1367070D01*
G02X1362620Y-1367830I-1828J1818D01*
G01X345530D01*
G02X343710Y-1367070I8J2578D01*
G01X68030Y-1091390D01*
G03X60880Y-1088430I-7153J-7162D01*
G01X59500D01*
G02X58500Y-1087430I0J1000D01*
G01Y-1087240D01*
X58640Y-1086890D01*
X58760Y-1086760D01*
G03X60650Y-1083870I-7955J7265D01*
G02X61560Y-1083270I916J-399D01*
G01X79920D01*
G02X81740Y-1084030I-8J-2578D01*
G01X351070Y-1353360D01*
G03X358220Y-1356320I7153J7162D01*
G01X1349930D01*
G03X1357080Y-1353360I-3J10122D01*
G01X1474010Y-1236430D01*
G03X1476970Y-1229280I-7162J7153D01*
G01Y-434420D01*
G03X1474010Y-427270I-10122J-3D01*
G01X1452330Y-405590D01*
G03X1445180Y-402630I-7153J-7162D01*
G01X1118080D01*
G02X1117140Y-401970I0J1000D01*
G03Y-410830I-12240J-4430D01*
G02X1118080Y-410170I940J-340D01*
G01X1445170D01*
G02X1446990Y-410930I-8J-2578D01*
G01X1468670Y-432610D01*
G02X1469430Y-434430I-1818J-1828D01*
G01Y-1229270D01*
G02X1468670Y-1231090I-2578J8D01*
G01X1351740Y-1348020D01*
G02X1349920Y-1348780I-1828J1818D01*
G01X358230D01*
G02X356410Y-1348020I8J2578D01*
G01X87080Y-1078690D01*
G03X79930Y-1075730I-7153J-7162D01*
G01X61560D01*
G02X60650Y-1075140I2J1000D01*
G03X41750Y-1085350I-9845J-4373D01*
G01X41900Y-1085570D01*
X41930Y-1086120D01*
X40950Y-1087910D01*
G02X40080Y-1088430I-877J479D01*
G01X35520D01*
G02X34640Y-1087900I3J1000D01*
G01X33810Y-1086330D01*
G02X33870Y-1085300I885J465D01*
G03X18100Y-1086730I-8476J5800D01*
G01X18240Y-1086870D01*
X18390Y-1087230D01*
Y-1087430D01*
G02X17390Y-1088430I-1000J0D01*
G01X15330D01*
G02X13510Y-1087670I8J2578D01*
G01X10060Y-1084230D01*
X9940Y-1083660D01*
X10050Y-1083380D01*
G03X3880Y-1089550I-10050J3880D01*
G01X4160Y-1089440D01*
X4730Y-1089560D01*
X7600Y-1092430D01*
G02X7810Y-1093520I-711J-702D01*
G01X7700Y-1093800D01*
X7200Y-1094130D01*
X-9770D01*
G03X-10770Y-1095130I0J-1000D01*
G01Y-1114670D01*
G03X-9770Y-1115670I1000J0D01*
G01X9770D01*
G03X10770Y-1114670I0J1000D01*
G01Y-1097700D01*
G02X11140Y-1096920I1000J3D01*
G01X12540Y-1095800D01*
X12970Y-1095690D01*
X13190Y-1095740D01*
G03X14240Y-1095910I2140J9890D01*
G01X14620Y-1095950D01*
X15130Y-1096520D01*
Y-1114170D01*
G03X16130Y-1115170I1000J0D01*
G01X34670D01*
G03X35670Y-1114170I0J1000D01*
G01Y-1096970D01*
G02X36670Y-1095970I1000J0D01*
G01X39030D01*
G02X40030Y-1096970I0J-1000D01*
G01Y-1114670D01*
G03X41030Y-1115670I1000J0D01*
G01X60570D01*
G03X61570Y-1114670I0J1000D01*
G01Y-1098010D01*
G02X62190Y-1097080I1001J4D01*
G01X62470Y-1096970D01*
X63050Y-1097080D01*
X338370Y-1372410D01*
G03X345520Y-1375370I7153J7162D01*
G01X1362630D01*
G03X1369780Y-1372410I-3J10122D01*
G01X1499410Y-1242780D01*
G03X1502370Y-1235630I-7162J7153D01*
G01Y-428070D01*
G03X1499410Y-420920I-10122J-3D01*
G01X1357080Y-278590D01*
G02X1356320Y-276770I1818J1828D01*
G01Y-190220D01*
G02X1357320Y-189220I1000J0D01*
G01X1362320D01*
X1362530Y-189010D01*
G02X1363230Y-188720I704J-710D01*
G01X1398930D01*
X1399140Y-188930D01*
G03X1399840Y-189220I704J710D01*
G01X1418970D01*
G03X1419970Y-188220I0J1000D01*
G01Y-172180D01*
X1419760Y-171970D01*
G02X1419470Y-171270I710J704D01*
G01Y-155180D01*
G03X1418470Y-154180I-1000J0D01*
G01X1395260D01*
G02X1394280Y-153390I-2J1000D01*
G03X1388370Y-148630I-5910J-1289D01*
G01X1371600D01*
G02X1369260Y-147140I0J2582D01*
G01X1369170Y-146940D01*
Y-146720D01*
G02X1370170Y-145720I1000J0D01*
G01X1383470D01*
X1383680Y-145510D01*
G02X1384380Y-145220I704J-710D01*
G01X1395170D01*
G03X1396170Y-144220I0J1000D01*
G01Y-125680D01*
G03X1395170Y-124680I-1000J0D01*
G01X1384470D01*
X1384260Y-124470D01*
G03X1383560Y-124180I-704J-710D01*
G01X1382720D01*
G02X1381720Y-123180I0J1000D01*
G01Y-120650D01*
G03X1371600Y-110530I-10120J0D01*
G01X1329770D01*
G03X1322620Y-113490I3J-10122D01*
G01X1318640Y-117470D01*
G02X1316820Y-118230I-1828J1818D01*
G01X1309620D01*
G02X1308620Y-117230I0J1000D01*
G01Y-113480D01*
G03X1307620Y-112480I-1000J0D01*
G01X1302570D01*
X1302020Y-112020D01*
X1301950Y-111660D01*
G03X1301100Y-109100I-9945J-1881D01*
G02X1301000Y-108730I898J441D01*
G03X1300120Y-106350I-4509J-314D01*
G02X1299920Y-105750I800J600D01*
G01Y-100570D01*
G02X1300920Y-99570I1000J0D01*
G01X1304840D01*
X1305420Y-98990D01*
Y-98700D01*
X1307880Y-97530D01*
X1308450Y-97600D01*
X1308680Y-97780D01*
G03X1314990Y-100020I6315J7782D01*
G01X1320000D01*
G03X1322830Y-99610I-7J10019D01*
G01X1322970Y-99570D01*
X1342520D01*
G03X1343520Y-98570I0J1000D01*
G01Y-95940D01*
X1343940Y-95400D01*
X1344270Y-95320D01*
G03X1347740Y-93470I-2001J7932D01*
G02X1348220Y-93230I671J-741D01*
G03X1351810Y-91860I-2019J10680D01*
G02X1352320Y-91720I510J-861D01*
G01X1383470D01*
X1383680Y-91510D01*
G02X1384380Y-91220I704J-710D01*
G01X1395170D01*
G03X1396170Y-90220I0J1000D01*
G01Y-71680D01*
G03X1395170Y-70680I-1000J0D01*
G01X1384470D01*
X1384260Y-70470D01*
G03X1383560Y-70180I-704J-710D01*
G01X1381990D01*
G02X1381090Y-69630I-6J1001D01*
G01Y-69620D01*
G03X1375450Y-66080I-5640J-2723D01*
G01X1367750D01*
G03X1362110Y-69610I0J-6271D01*
G01Y-69630D01*
G02X1361210Y-70180I-894J451D01*
G01X1347530D01*
G03X1346530Y-71180I0J-1000D01*
G01Y-84350D01*
G02X1346200Y-84380I-330J1800D01*
G01X1344520D01*
G02X1343520Y-83380I0J1000D01*
G01Y-83030D01*
X1343310Y-82820D01*
G02X1343020Y-82120I710J704D01*
G01Y-67030D01*
G03X1342020Y-66030I-1000J0D01*
G01X1331020D01*
G02X1330020Y-65030I0J1000D01*
G01Y5000D01*
G03X1320000Y15020I-10020J0D01*
G01X926020D01*
G02X925020Y16020I0J1000D01*
G01Y20000D01*
G03X915000Y30020I-10020J0D01*
G01X900000D01*
G03X890020Y20930I0J-10024D01*
G01X889990Y20540D01*
X889420Y20020D01*
X888130D01*
G03X887130Y19020I0J-1000D01*
G01Y-19020D01*
G03X888130Y-20020I1000J0D01*
G01X889420D01*
X889990Y-20540D01*
X890020Y-20930D01*
G03X900000Y-30020I9980J934D01*
G01X916330D01*
G02X917330Y-31020I0J-1000D01*
G01Y-41670D01*
G03X918330Y-42670I1000J0D01*
G01X936290D01*
X936870Y-42090D01*
Y-41920D01*
X954670D01*
G03X955670Y-40920I0J1000D01*
G01Y-31020D01*
G02X956670Y-30020I1000J0D01*
G01X978980D01*
G02X979980Y-31020I0J-1000D01*
G01Y-300000D01*
G03X990000Y-310020I10020J0D01*
G01X995000D01*
G03X998970Y-309200I0J10020D01*
G01X999160Y-309120D01*
X1004130D01*
G02X1005130Y-310120I0J-1000D01*
G01Y-311930D01*
G02X1004130Y-312930I-1000J0D01*
G01X1000630D01*
G03X999630Y-313930I0J-1000D01*
G01Y-327470D01*
G03X1000630Y-328470I1000J0D01*
G01X1018670D01*
G03X1019670Y-327470I0J1000D01*
G01Y-313930D01*
G03X1018670Y-312930I-1000J0D01*
G01X1015170D01*
G02X1014170Y-311930I0J1000D01*
G01Y-310120D01*
G02X1015170Y-309120I1000J0D01*
G01X1018670D01*
G03X1019670Y-308120I0J1000D01*
G01Y-306540D01*
G02X1020290Y-305610I1001J4D01*
G01X1020850Y-305380D01*
G02X1021080Y-305540I-930J-1582D01*
G02X1021150Y-305610I-672J-742D01*
G01X1021670Y-306140D01*
G03X1025580Y-308640I7676J7698D01*
G01X1025870Y-308750D01*
X1026230Y-309260D01*
Y-319320D01*
G03X1027230Y-320320I1000J0D01*
G01X1029980D01*
G02X1030980Y-321320I0J-1000D01*
G01Y-334570D01*
G02X1030620Y-335340I-1001J-1D01*
G02X1028970Y-335930I-1643J1992D01*
G01X1020670D01*
G02X1019670Y-334930I0J1000D01*
G01Y-332930D01*
G03X1018670Y-331930I-1000J0D01*
G01X1000630D01*
G03X999630Y-332930I0J-1000D01*
G01Y-346470D01*
G03X1000630Y-347470I1000J0D01*
G01X1018670D01*
G03X1019670Y-346470I0J1000D01*
G01Y-344470D01*
G02X1020670Y-343470I1000J0D01*
G01X1028980D01*
G02X1029680Y-343760I-4J-1000D01*
G01X1030690Y-344770D01*
G02X1030980Y-345470I-710J-704D01*
G01Y-346920D01*
G02X1030220Y-348740I-2578J8D01*
G01X1002490Y-376470D01*
G03X999530Y-383620I7162J-7153D01*
G01Y-526340D01*
G02X999090Y-527170I-1001J-1D01*
G03X998140Y-538870I4210J-6230D01*
G02X998390Y-539970I-680J-733D01*
G01X997700Y-541700D01*
G02X996770Y-542330I-929J370D01*
G01X616660D01*
G02X615830Y-541890I-1J1001D01*
G03X603370I-6230J-4210D01*
G02X602540Y-542330I-829J561D01*
G01X335620D01*
G02X334620Y-541330I0J1000D01*
G01Y-528380D01*
G03X333620Y-527380I-1000J0D01*
G01X322160D01*
G02X322020Y-526670I1691J702D01*
G01Y-526020D01*
G02X323020Y-525020I1000J0D01*
G01X326520D01*
G03X327520Y-524020I0J1000D01*
G01Y-508480D01*
X327310Y-508270D01*
G02X327020Y-507570I710J704D01*
G01Y-492480D01*
G03X326020Y-491480I-1000J0D01*
G01X308980D01*
G03X307980Y-492480I0J-1000D01*
G01Y-507480D01*
X307770Y-507690D01*
G03X307480Y-508390I710J-704D01*
G01Y-510980D01*
G02X306480Y-511980I-1000J0D01*
G01X291020D01*
G02X290020Y-510980I0J1000D01*
G01Y-31020D01*
G02X291020Y-30020I1000J0D01*
G01X325530D01*
G02X326530Y-31020I0J-1000D01*
G01Y-31270D01*
X326740Y-31480D01*
G02X327030Y-32180I-710J-704D01*
G01Y-47270D01*
G03X328030Y-48270I1000J0D01*
G01X345070D01*
G03X346070Y-47270I0J1000D01*
G01Y-32270D01*
X346280Y-32060D01*
G03X346570Y-31360I-710J704D01*
G01Y-31020D01*
G02X347570Y-30020I1000J0D01*
G01X433480D01*
G02X434480Y-31020I0J-1000D01*
G01Y-31270D01*
X434690Y-31480D01*
G02X434980Y-32180I-710J-704D01*
G01Y-47270D01*
G03X435980Y-48270I1000J0D01*
G01X453020D01*
G03X454020Y-47270I0J1000D01*
G01Y-32270D01*
X454230Y-32060D01*
G03X454520Y-31360I-710J704D01*
G01Y-31020D01*
G02X455520Y-30020I1000J0D01*
G01X630330D01*
G02X631330Y-31020I0J-1000D01*
G01Y-31270D01*
X631540Y-31480D01*
G02X631830Y-32180I-710J-704D01*
G01Y-47270D01*
G03X632830Y-48270I1000J0D01*
G01X649870D01*
G03X650870Y-47270I0J1000D01*
G01Y-32270D01*
X651080Y-32060D01*
G03X651370Y-31360I-710J704D01*
G01Y-31020D01*
G02X652370Y-30020I1000J0D01*
G01X865000D01*
G03X874980Y-20930I0J10024D01*
G01X875010Y-20540D01*
X875580Y-20020D01*
X877170D01*
G03X878170Y-19020I0J1000D01*
G01Y19020D01*
G03X877170Y20020I-1000J0D01*
G01X875580D01*
X875010Y20540D01*
X874980Y20930D01*
G03X865000Y30020I-9980J-934D01*
G01X616930D01*
G02X616020Y30590I-7J1001D01*
G01X615250Y32230D01*
G02X615390Y33300I906J426D01*
G03X613810Y44330I-5790J4799D01*
G02X613370Y45160I561J829D01*
G01Y575230D01*
G03X610410Y582380I-10122J-3D01*
G01X461730Y731060D01*
G03X454580Y734020I-7153J-7162D01*
G01X377320D01*
G02X376320Y735020I0J1000D01*
G01Y735270D01*
G03X375320Y736270I-1000J0D01*
G01X361280D01*
G03X360280Y735270I0J-1000D01*
G01Y725230D01*
G03X361280Y724230I1000J0D01*
G01X375320D01*
G03X376320Y725230I0J1000D01*
G01Y725480D01*
G02X377320Y726480I1000J0D01*
G01X454570D01*
G02X456390Y725720I-8J-2578D01*
G01X605070Y577040D01*
G02X605830Y575220I-1818J-1828D01*
G01Y45160D01*
G02X605390Y44330I-1001J-1D01*
G03X603810Y33300I4210J-6231D01*
G02X603950Y32230I-766J-644D01*
G01X603180Y30590D01*
G02X602270Y30020I-903J431D01*
G01X597880D01*
G02X596970Y30590I-7J1001D01*
G01X596200Y32230D01*
G02X596340Y33300I906J426D01*
G03X594760Y44330I-5790J4799D01*
G02X594320Y45160I561J829D01*
G01Y568880D01*
G03X591360Y576030I-10122J-3D01*
G01X449030Y718360D01*
G03X441880Y721320I-7153J-7162D01*
G01X342900D01*
G03X336100Y715680I0J-6919D01*
G01X336040Y715330D01*
X335480Y714870D01*
X332980D01*
G03X331980Y713870I0J-1000D01*
G01Y710370D01*
G02X330980Y709370I-1000J0D01*
G01X324510D01*
G02X323630Y709890I-2J1001D01*
G03X314400Y715370I-9230J-5033D01*
G01X311000D01*
G02X310000Y716370I0J1000D01*
G01Y718730D01*
G02X311000Y719730I1000J0D01*
G01X314400D01*
G03X324490Y733200I0J10514D01*
G01Y733220D01*
G02X324740Y734190I962J269D01*
G01X325240Y734690D01*
G02X326530Y735230I1297J-1288D01*
G01X336280D01*
G02X337280Y734230I0J-1000D01*
G01X337780Y733730D01*
X352320D01*
G03X353320Y734730I0J1000D01*
G01Y744770D01*
G03X352320Y745770I-1000J0D01*
G01X338280D01*
G03X337280Y744770I0J-1000D01*
G01X336780Y744270D01*
X326520D01*
G03X318840Y741090I3J-10872D01*
G01X318340Y740590D01*
G02X317370Y740340I-701J712D01*
G01X317360D01*
G03X314400Y740770I-2977J-10088D01*
G01X311000D01*
G02X310000Y741770I0J1000D01*
G01Y750000D01*
G02X315000Y755000I5000J0D01*
G01X359280D01*
G02X360280Y754000I0J-1000D01*
G01Y744230D01*
G03X361280Y743230I1000J0D01*
G01X375320D01*
G03X376320Y744230I0J1000D01*
G01Y754000D01*
G02X377320Y755000I1000J0D01*
G01X625000D01*
G02X630000Y750000I0J-5000D01*
G01Y45000D01*
G03X635000Y40000I5000J0D01*
G01X1435000D01*
G02X1440000Y35000I0J-5000D01*
G01Y-320000D01*
G03X1444950Y-329960I12495J0D01*
G01X1445000Y-330000D01*
X1515000Y-400000D01*
G02X1520080Y-410370I-12614J-12608D01*
G02X1520090Y-410490I-988J-143D01*
G01X1520000Y-1240000D01*
G02X1515000Y-1250000I-12500J0D01*
G01X1380000Y-1385000D01*
G02X1370070Y-1389990I-12500J12500D01*
G02X1369930Y-1390000I-141J990D01*
G01X345000D01*
G02X335000Y-1385000I0J12500D01*
G01X300290Y-1350290D01*
G03X299590Y-1350000I-704J-710D01*
G01X-15000D01*
G02X-20000Y-1345000I0J5000D01*
G01Y-518110D01*
X-19590Y-517580D01*
X-19270Y-517490D01*
G03Y-473110I-6130J22190D01*
G01X-19590Y-473020D01*
X-20000Y-472490D01*
Y-73610D01*
X-19590Y-73080D01*
X-19270Y-72990D01*
G03X-10190Y-33520I-6130J22190D01*
G02X-10470Y-32410I657J756D01*
G01X-9800Y-30670D01*
G02X-8870Y-30020I935J-348D01*
G01X211230D01*
G02X212230Y-31020I0J-1000D01*
G01Y-31270D01*
X212440Y-31480D01*
G02X212730Y-32180I-710J-704D01*
G01Y-47270D01*
G03X213730Y-48270I1000J0D01*
G01X230770D01*
G03X231770Y-47270I0J1000D01*
G01Y-32270D01*
X231980Y-32060D01*
G03X232270Y-31360I-710J704D01*
G01Y-31020D01*
G02X233270Y-30020I1000J0D01*
G01X258980D01*
G02X259980Y-31020I0J-1000D01*
G01Y-496130D01*
G02X258980Y-497130I-1000J0D01*
G01X104220D01*
G03X96540Y-500310I3J-10872D01*
G01X84260Y-512590D01*
G03X81080Y-520270I7692J-7683D01*
G01Y-529480D01*
G02X80080Y-530480I-1000J0D01*
G01X77830D01*
G03X76830Y-531480I0J-1000D01*
G01Y-586120D01*
G03X77830Y-587120I1000J0D01*
G01X80080D01*
G02X81080Y-588120I0J-1000D01*
G01Y-592980D01*
G02X80080Y-593980I-1000J0D01*
G01X77830D01*
G03X76830Y-594980I0J-1000D01*
G01Y-649620D01*
G03X77830Y-650620I1000J0D01*
G01X93370D01*
G03X94370Y-649620I0J1000D01*
G01Y-594980D01*
G03X93370Y-593980I-1000J0D01*
G01X91120D01*
G02X90120Y-592980I0J1000D01*
G01Y-588120D01*
G02X91120Y-587120I1000J0D01*
G01X93370D01*
G03X94370Y-586120I0J1000D01*
G01Y-531480D01*
G03X93370Y-530480I-1000J0D01*
G01X91120D01*
G02X90120Y-529480I0J1000D01*
G01Y-520280D01*
G02X90660Y-518990I1828J-7D01*
G01X102940Y-506710D01*
G02X104230Y-506170I1297J-1288D01*
G01X258980D01*
G02X259980Y-507170I0J-1000D01*
G01Y-667580D01*
G02X258980Y-668580I-1000J0D01*
G01X242620D01*
G02X241620Y-667580I0J1000D01*
G01X241120Y-667080D01*
X216580D01*
G03X215580Y-668080I0J-1000D01*
G01Y-681030D01*
G02X214580Y-682030I-1000J0D01*
G01X212180D01*
G02X210360Y-681270I8J2578D01*
G01X207730Y-678640D01*
G03X200580Y-675680I-7153J-7162D01*
G01X200520D01*
G02X199520Y-674680I0J1000D01*
G01Y-671680D01*
G03X198520Y-670680I-1000J0D01*
G01X182980D01*
G03X181980Y-671680I0J-1000D01*
G01Y-726320D01*
G03X182980Y-727320I1000J0D01*
G01X198520D01*
G03X199520Y-726320I0J1000D01*
G01Y-723320D01*
G02X200520Y-722320I1000J0D01*
G01X200570D01*
G02X202390Y-723080I-8J-2578D01*
G01X204020Y-724710D01*
G03X211170Y-727670I7153J7162D01*
G01X214580D01*
G02X215580Y-728670I0J-1000D01*
G01Y-782420D01*
X215130Y-782970D01*
X214780Y-783040D01*
G03X214460Y-783110I1588J-8024D01*
G01X214340Y-783140D01*
X214220D01*
G02X213220Y-782140I0J1000D01*
G01Y-781530D01*
X213010Y-781320D01*
G02X212720Y-780620I710J704D01*
G01Y-765530D01*
G03X211720Y-764530I-1000J0D01*
G01X194680D01*
G03X193680Y-765530I0J-1000D01*
G01Y-780530D01*
X193470Y-780740D01*
G03X193180Y-781440I710J-704D01*
G01Y-797070D01*
G03X194180Y-798070I1000J0D01*
G01X212220D01*
G03X213220Y-797070I0J1000D01*
G01Y-794240D01*
X213590Y-793720D01*
X213890Y-793620D01*
G03X214230Y-793490I-2751J7705D01*
G01X214410Y-793420D01*
X240620D01*
G03X241620Y-792420I0J1000D01*
G01X242120Y-791920D01*
X259720D01*
X260250Y-792330D01*
X260340Y-792650D01*
G03X270000Y-800020I9660J2646D01*
G01X280000D01*
G03X290020Y-790000I0J10020D01*
G01Y-665920D01*
G02X291020Y-664920I1000J0D01*
G01X591630D01*
G02X592630Y-665920I0J-1000D01*
G01Y-676030D01*
G02X591630Y-677030I-1000J0D01*
G01X589380D01*
G03X588380Y-678030I0J-1000D01*
G01Y-732670D01*
G03X589380Y-733670I1000J0D01*
G01X604920D01*
G03X605920Y-732670I0J1000D01*
G01Y-678030D01*
G03X604920Y-677030I-1000J0D01*
G01X602670D01*
G02X601670Y-676030I0J1000D01*
G01Y-665920D01*
G02X602670Y-664920I1000J0D01*
G01X996060D01*
G02X996970Y-665500I2J-1001D01*
G01X997730Y-667150D01*
G02X997580Y-668220I-908J-418D01*
G03X995920Y-674530I5721J-4878D01*
G01X995970Y-674780D01*
X995820Y-675250D01*
X862790Y-808270D01*
G02X860970Y-809030I-1828J1818D01*
G01X140410D01*
G02X139580Y-808590I-1J1001D01*
G03X128190Y-818270I-6232J-4208D01*
G02X128440Y-819370I-680J-733D01*
G01X127750Y-821100D01*
G02X126820Y-821730I-929J370D01*
G01X121360D01*
G02X120530Y-821290I-1J1001D01*
G03Y-829710I-6230J-4210D01*
G02X121360Y-829270I829J-561D01*
G01X450670D01*
G02X451600Y-829900I1J-1000D01*
G01X452290Y-831630D01*
G02X452040Y-832730I-930J-367D01*
G03X463430Y-842410I5158J-5472D01*
G02X464260Y-841970I829J-561D01*
G01X507820D01*
G02X508750Y-842600I1J-1000D01*
G01X509440Y-844330D01*
G02X509190Y-845430I-930J-367D01*
G03X520580Y-855110I5158J-5472D01*
G02X521410Y-854670I829J-561D01*
G01X714920D01*
G02X716740Y-855430I-8J-2578D01*
G01X1128920Y-1267610D01*
G03X1136070Y-1270570I7153J7162D01*
G01X1138330D01*
G02X1139330Y-1271570I0J-1000D01*
G01Y-1273570D01*
G03X1140330Y-1274570I1000J0D01*
G01X1158790D01*
X1159370Y-1273990D01*
Y-1273820D01*
X1176920D01*
G03X1177920Y-1272820I0J1000D01*
G01Y-1257820D01*
X1178130Y-1257610D01*
G03X1178420Y-1256910I-710J704D01*
G01Y-1241280D01*
G03X1177420Y-1240280I-1000J0D01*
G01X1166630D01*
G02X1166570Y-1239820I1770J465D01*
G01Y-1238440D01*
G02X1167180Y-1237520I999J0D01*
G03X1156920I-5130J11970D01*
G02X1157530Y-1238440I-389J-920D01*
G01Y-1239030D01*
G02X1156530Y-1240030I-1000J0D01*
G01X1140330D01*
G03X1139330Y-1241030I0J-1000D01*
G01Y-1254570D01*
G03X1140330Y-1255570I1000J0D01*
G01X1157380D01*
G02X1158380Y-1256570I0J-1000D01*
G01Y-1258030D01*
G02X1157380Y-1259030I-1000J0D01*
G01X1140330D01*
G03X1139330Y-1260030I0J-1000D01*
G01Y-1262030D01*
G02X1138330Y-1263030I-1000J0D01*
G01X1136080D01*
G02X1134260Y-1262270I8J2578D01*
G01X722080Y-850090D01*
G03X714930Y-847130I-7153J-7162D01*
G01X521410D01*
G02X520580Y-846690I-1J1001D01*
G03X519510Y-845430I-6232J-4208D01*
G02X519260Y-844330I680J733D01*
G01X519950Y-842600D01*
G02X520880Y-841970I929J-370D01*
G01X873680D01*
G03X880830Y-839010I-3J10122D01*
G01X1039250Y-680580D01*
X1039720Y-680430D01*
X1039970Y-680480D01*
G03X1047120Y-668220I1429J7382D01*
G02X1046970Y-667150I758J652D01*
G01X1047730Y-665500D01*
G02X1048640Y-664920I908J-421D01*
G01X1413420D01*
G02X1414710Y-665460I-7J-1828D01*
G01X1418000Y-668750D01*
G02X1418250Y-669760I-704J-710D01*
G03X1437870Y-679280I10502J-3334D01*
G01X1437880Y-679270D01*
G02X1438600Y-678850I817J-573D01*
G01X1440140Y-678700D01*
G02X1440940Y-678990I93J-992D01*
G01X1442740Y-680790D01*
G02X1443280Y-682080I-1288J-1297D01*
G01Y-766060D01*
G02X1442990Y-766770I-1000J-6D01*
G01X1440110Y-769640D01*
G02X1439960Y-769780I-1322J1266D01*
G02X1438450Y-769470I-627J781D01*
G03X1438550Y-779750I-9699J-5235D01*
G02X1439380Y-779210I887J-455D01*
G03X1440900Y-779020I-585J10856D01*
G01X1441120Y-778980D01*
X1441550Y-779080D01*
X1442920Y-780210D01*
G02X1443280Y-780980I-641J-769D01*
G01Y-867660D01*
G02X1442990Y-868370I-1000J-6D01*
G01X1440110Y-871240D01*
G02X1439960Y-871380I-1322J1266D01*
G02X1438450Y-871070I-627J781D01*
G03X1438550Y-881350I-9699J-5235D01*
G02X1439380Y-880810I887J-455D01*
G03X1440900Y-880620I-585J10856D01*
G01X1441120Y-880580D01*
X1441550Y-880680D01*
X1442920Y-881810D01*
G02X1443280Y-882580I-641J-769D01*
G01Y-969260D01*
G02X1442990Y-969970I-1000J-6D01*
G01X1440110Y-972840D01*
G02X1439960Y-972980I-1322J1266D01*
G02X1438450Y-972670I-627J781D01*
G03X1438550Y-982950I-9699J-5235D01*
G02X1439380Y-982410I887J-455D01*
G03X1440900Y-982220I-585J10856D01*
G01X1441120Y-982180D01*
X1441550Y-982280D01*
X1442920Y-983410D01*
G02X1443280Y-984180I-641J-769D01*
G01Y-1073150D01*
G02X1441450Y-1074980I-1830J0D01*
G01X1439430D01*
G02X1438540Y-1074440I-2J1000D01*
G03Y-1084560I-9790J-5060D01*
G02X1439430Y-1084020I888J-460D01*
G01X1441450D01*
G03X1452320Y-1073150I0J10870D01*
G01Y-682070D01*
G03X1449140Y-674390I-10872J-3D01*
G01X1448560Y-673810D01*
G02Y-672390I700J710D01*
G01X1449140Y-671810D01*
G03X1452320Y-664130I-7692J7683D01*
G01Y-476250D01*
G03X1441450Y-465380I-10870J0D01*
G01X1439430D01*
G02X1438540Y-464840I-2J1000D01*
G03Y-474960I-9790J-5060D01*
G02X1439430Y-474420I888J-460D01*
G01X1441450D01*
G02X1443280Y-476250I0J-1830D01*
G01Y-565220D01*
G02X1442920Y-565990I-1001J-1D01*
G01X1441550Y-567120D01*
X1441120Y-567220D01*
X1440900Y-567180D01*
G03X1439380Y-566990I-2105J-10666D01*
G02X1438550Y-566450I57J995D01*
G03X1438450Y-576730I-9799J-5045D01*
G02X1439960Y-576420I883J-471D01*
G02X1440110Y-576560I-1171J-1405D01*
G01X1442990Y-579430D01*
G02X1443280Y-580140I-710J-704D01*
G01Y-664120D01*
G02X1442740Y-665410I-1828J7D01*
G01X1440940Y-667210D01*
G02X1440140Y-667500I-707J702D01*
G01X1438600Y-667350D01*
G02X1437880Y-666930I97J993D01*
G01X1437870Y-666920D01*
G03X1425410Y-662600I-9122J-6180D01*
G02X1424400Y-662350I-300J954D01*
G01X1421110Y-659060D01*
G03X1413430Y-655880I-7683J-7692D01*
G01X291020D01*
G02X290020Y-654880I0J1000D01*
G01Y-653220D01*
G02X291020Y-652220I1000J0D01*
G01X307580D01*
G02X308580Y-653220I0J-1000D01*
G01X309080Y-653720D01*
X333620D01*
G03X334620Y-652720I0J1000D01*
G01Y-639770D01*
G02X335620Y-638770I1000J0D01*
G01X1307390D01*
G02X1308220Y-639210I1J-1001D01*
G03Y-630790I6230J4210D01*
G02X1307390Y-631230I-829J561D01*
G01X539930D01*
G02X539000Y-630600I-1J1000D01*
G01X538310Y-628870D01*
G02X538560Y-627770I930J367D01*
G03X539630Y-626510I-5162J5468D01*
G02X540460Y-626070I829J-561D01*
G01X1299250D01*
G03X1305520Y-619800I0J6270D01*
G01Y-603250D01*
G02X1308100Y-600670I2580J0D01*
G01X1353330D01*
G02X1354330Y-601670I0J-1000D01*
G01Y-605920D01*
G03X1355330Y-606920I1000J0D01*
G01X1368870D01*
G03X1369870Y-605920I0J1000D01*
G01Y-587880D01*
G03X1368870Y-586880I-1000J0D01*
G01X1355330D01*
G03X1354330Y-587880I0J-1000D01*
G01Y-592130D01*
G02X1353330Y-593130I-1000J0D01*
G01X1308100D01*
G03X1297980Y-603250I0J-10120D01*
G01Y-606490D01*
G02X1296980Y-607490I-1000J0D01*
G01X1296670D01*
X1296170Y-607150D01*
X1296050Y-606850D01*
G03X1282820Y-605390I-6999J-2750D01*
G02X1281990Y-605830I-829J561D01*
G01X1276530D01*
G02X1275600Y-605200I-1J1000D01*
G01X1274910Y-603470D01*
G02X1275160Y-602370I930J367D01*
G03X1263770Y-592690I-5158J5472D01*
G02X1262940Y-593130I-829J561D01*
G01X1257480D01*
G02X1256550Y-592500I-1J1000D01*
G01X1255860Y-590770D01*
G02X1256110Y-589670I930J367D01*
G03X1244720Y-579990I-5158J5472D01*
G02X1243890Y-580430I-829J561D01*
G01X1238430D01*
G02X1237500Y-579800I-1J1000D01*
G01X1236810Y-578070D01*
G02X1237060Y-576970I930J367D01*
G03X1225670Y-567290I-5158J5472D01*
G02X1224840Y-567730I-829J561D01*
G01X1219380D01*
G02X1218450Y-567100I-1J1000D01*
G01X1217760Y-565370D01*
G02X1218010Y-564270I930J367D01*
G03X1206620Y-554590I-5158J5472D01*
G02X1205790Y-555030I-829J561D01*
G01X1200330D01*
G02X1199400Y-554400I-1J1000D01*
G01X1198710Y-552670D01*
G02X1198960Y-551570I930J367D01*
G03X1187570Y-541890I-5158J5472D01*
G02X1186740Y-542330I-829J561D01*
G01X1047930D01*
G02X1047000Y-541700I-1J1000D01*
G01X1046310Y-539970D01*
G02X1046560Y-538870I930J367D01*
G03X1045610Y-527170I-5160J5470D01*
G02X1045170Y-526340I561J829D01*
G01Y-402680D01*
G02X1045930Y-400860I2578J-8D01*
G01X1054910Y-391880D01*
G02X1056730Y-391120I1828J-1818D01*
G01X1121320D01*
G02X1123140Y-391880I-8J-2578D01*
G01X1125770Y-394510D01*
G03X1132920Y-397470I7153J7162D01*
G01X1210230D01*
G03X1217380Y-394510I-3J10122D01*
G01X1226360Y-385530D01*
G03X1229320Y-378380I-7162J7153D01*
G01Y-378120D01*
G02X1230320Y-377120I1000J0D01*
G01X1231070D01*
X1231280Y-376910D01*
G02X1231980Y-376620I704J-710D01*
G01X1239570D01*
G03X1240570Y-375620I0J1000D01*
G01Y-360370D01*
G02X1241570Y-359370I1000J0D01*
G01X1242390D01*
G02X1243500Y-359830I-5J-1580D01*
G03X1249980Y-362520I6480J6460D01*
G01X1252630D01*
G02X1253630Y-363520I0J-1000D01*
G01Y-365520D01*
G03X1254630Y-366520I1000J0D01*
G01X1273090D01*
X1273670Y-365940D01*
Y-365770D01*
X1291220D01*
G03X1292220Y-364770I0J1000D01*
G01Y-349770D01*
X1292430Y-349560D01*
G03X1292720Y-348860I-710J704D01*
G01Y-345520D01*
G02X1293720Y-344520I1000J0D01*
G01X1295100D01*
G03X1300640Y-342870I2J10120D01*
G01X1300810Y-342760D01*
X1301200Y-342680D01*
X1302790Y-343030D01*
G02X1303420Y-343470I-213J-976D01*
G01X1303430Y-343480D01*
G03X1302030Y-332640I11020J6934D01*
G02X1301390Y-333290I-956J301D01*
G03X1297400Y-335740I3158J-9616D01*
G01X1296920Y-336220D01*
G02X1295100Y-336980I-1828J1818D01*
G01X1293720D01*
G02X1292720Y-335980I0J1000D01*
G01Y-333230D01*
G03X1291720Y-332230I-1000J0D01*
G01X1273670D01*
Y-331980D01*
X1254630D01*
G03X1253630Y-332980I0J-1000D01*
G01Y-346520D01*
G03X1254630Y-347520I1000J0D01*
G01X1271680D01*
G02X1272680Y-348520I0J-1000D01*
G01Y-349980D01*
G02X1271680Y-350980I-1000J0D01*
G01X1254630D01*
G03X1253630Y-351980I0J-1000D01*
G01Y-353980D01*
G02X1252630Y-354980I-1000J0D01*
G01X1249970D01*
G02X1248840Y-354510I7J1610D01*
G03X1242390Y-351830I-6457J-6440D01*
G01X1242070D01*
G02X1241070Y-350830I0J1000D01*
G01Y-333120D01*
G02X1241360Y-332420I1000J-4D01*
G01X1245410Y-328380D01*
G03X1248230Y-322900I-7163J7152D01*
G01X1248290Y-322530D01*
X1248840Y-322070D01*
X1253620D01*
G03X1254620Y-321070I0J1000D01*
G01Y-307530D01*
G03X1253620Y-306530I-1000J0D01*
G01X1216530D01*
G03X1215530Y-307530I0J-1000D01*
G01Y-321070D01*
G03X1216530Y-322070I1000J0D01*
G01X1220780D01*
G02X1221780Y-323070I0J-1000D01*
G01Y-333080D01*
G02X1220780Y-334080I-1000J0D01*
G01X1211030D01*
G03X1210030Y-335080I0J-1000D01*
G01Y-335230D01*
G02X1209030Y-336230I-1000J0D01*
G01X1198470D01*
G02X1197470Y-335230I0J1000D01*
G01Y-333230D01*
G03X1196470Y-332230I-1000J0D01*
G01X1192970D01*
G02X1191970Y-331230I0J1000D01*
G01Y-294720D01*
G03X1188790Y-287040I-10872J-3D01*
G01X1186160Y-284410D01*
G03X1178480Y-281230I-7683J-7692D01*
G01X1141700D01*
X1141340Y-281080D01*
X1141290Y-281030D01*
X1119520D01*
X1119160Y-281180D01*
X1119110Y-281230D01*
X1054100D01*
G03X1043810Y-288600I0J-10868D01*
G02X1042860Y-289280I-947J320D01*
G01X1039820D01*
G02X1038820Y-288280I0J1000D01*
G01Y-287610D01*
G37*
G36*
G01X270000Y-795000D02*
G02X265000Y-790000I0J5000D01*
G01Y-30000D01*
G03X260000Y-25000I-5000J0D01*
G01X232770D01*
G02X231770Y-24000I0J1000D01*
G01Y-16230D01*
G03X230770Y-15230I-1000J0D01*
G01X213730D01*
G03X212730Y-16230I0J-1000D01*
G01Y-24000D01*
G02X211730Y-25000I-1000J0D01*
G01X-15000D01*
G02X-20000Y-20000I0J5000D01*
G01Y55000D01*
G02X-15000Y60000I5000J0D01*
G01X-10550D01*
G02X-9660Y59470I7J-1001D01*
G01X-8700Y57650D01*
X-8740Y57110D01*
X-8890Y56870D01*
G03X8890I8890J-6070D01*
G01X8740Y57110D01*
X8700Y57650D01*
X9660Y59470D01*
G02X10550Y60000I883J-471D01*
G01X14850D01*
G02X15740Y59470I7J-1001D01*
G01X16700Y57650D01*
X16660Y57110D01*
X16510Y56870D01*
G03X34290I8890J-6070D01*
G01X34140Y57110D01*
X34100Y57650D01*
X35060Y59470D01*
G02X35950Y60000I883J-471D01*
G01X40250D01*
G02X41140Y59470I7J-1001D01*
G01X42100Y57650D01*
X42060Y57110D01*
X41910Y56870D01*
G03X58230Y43000I8896J-6069D01*
G02X58920Y43280I694J-719D01*
G01X81420D01*
G02X82100Y43020I7J-1001D01*
G03X87610Y39930I9360J10232D01*
G01X87940Y39830D01*
X88330Y39310D01*
Y34630D01*
G03X89330Y33630I1000J0D01*
G01X113870D01*
G03X114870Y34630I0J1000D01*
G01Y57350D01*
G02X115440Y58250I1000J-3D01*
G01X117060Y59030D01*
G02X118120Y58910I435J-901D01*
G02X120000Y55000I-3126J-3910D01*
G01Y30000D01*
G03X125000Y25000I5000J0D01*
G01X425000D01*
G03X430000Y30000I0J5000D01*
G01Y340000D01*
G03X425000Y345000I-5000J0D01*
G01X390000D01*
G02X385000Y350000I0J5000D01*
G01Y360000D01*
G02X390000Y365000I5000J0D01*
G01X445000D01*
G02X450000Y360000I0J-5000D01*
G01Y30000D01*
G03X455000Y25000I5000J0D01*
G01X865000D01*
G02X869310Y22530I0J-4995D01*
G02X869320Y21530I-861J-509D01*
G01X868450Y20020D01*
G02X867590Y19520I-866J499D01*
G01X853630D01*
G03X852630Y18520I0J-1000D01*
G01Y-18520D01*
G03X853630Y-19520I1000J0D01*
G01X867590D01*
G02X868450Y-20020I-6J-999D01*
G01X869320Y-21530D01*
G02X869310Y-22530I-871J-491D01*
G02X865000Y-25000I-4310J2525D01*
G01X651870D01*
G02X650870Y-24000I0J1000D01*
G01Y-16230D01*
G03X649870Y-15230I-1000J0D01*
G01X632830D01*
G03X631830Y-16230I0J-1000D01*
G01Y-24000D01*
G02X630830Y-25000I-1000J0D01*
G01X455020D01*
G02X454020Y-24000I0J1000D01*
G01Y-16230D01*
G03X453020Y-15230I-1000J0D01*
G01X435980D01*
G03X434980Y-16230I0J-1000D01*
G01Y-24000D01*
G02X433980Y-25000I-1000J0D01*
G01X347070D01*
G02X346070Y-24000I0J1000D01*
G01Y-16230D01*
G03X345070Y-15230I-1000J0D01*
G01X328030D01*
G03X327030Y-16230I0J-1000D01*
G01Y-24000D01*
G02X326030Y-25000I-1000J0D01*
G01X290000D01*
G03X285000Y-30000I0J-5000D01*
G01Y-790000D01*
G02X280000Y-795000I-5000J0D01*
G01X270000D01*
G37*
G36*
G01X241620Y-781880D02*
Y-678620D01*
G02X242620Y-677620I1000J0D01*
G01X258980D01*
G02X259980Y-678620I0J-1000D01*
G01Y-781880D01*
G02X258980Y-782880I-1000J0D01*
G01X242620D01*
G02X241620Y-781880I0J1000D01*
G37*
G36*
G01X290020Y-642180D02*
Y-522020D01*
G02X291020Y-521020I1000J0D01*
G01X306480D01*
G02X307480Y-522020I0J-1000D01*
G01Y-524020D01*
G03X308480Y-525020I1000J0D01*
G01X311980D01*
G02X312980Y-526020I0J-1000D01*
G01Y-526380D01*
G02X311980Y-527380I-1000J0D01*
G01X309580D01*
G03X308580Y-528380I0J-1000D01*
G01Y-642180D01*
G02X307580Y-643180I-1000J0D01*
G01X291020D01*
G02X290020Y-642180I0J1000D01*
G37*
G36*
G01X310000Y31020D02*
Y69180D01*
G02X311000Y70180I1000J0D01*
G01X331030D01*
G02X332030Y69180I0J-1000D01*
G01Y68820D01*
G02X331030Y67820I-1000J0D01*
G01X327530D01*
G03X326530Y66820I0J-1000D01*
G01Y51280D01*
X326740Y51070D01*
G02X327030Y50370I-710J-704D01*
G01Y35280D01*
G03X328030Y34280I1000J0D01*
G01X345070D01*
G03X346070Y35280I0J1000D01*
G01Y50280D01*
X346280Y50490D01*
G03X346570Y51190I-710J704D01*
G01Y61920D01*
G02X347070Y62790I1001J3D01*
G01X348810Y63790D01*
X349330D01*
X349570Y63650D01*
G03X351280Y62850I5443J9408D01*
G01X351570Y62740D01*
X351930Y62230D01*
Y59930D01*
G03X352930Y58930I1000J0D01*
G01X390020D01*
G03X391020Y59930I0J1000D01*
G01Y73470D01*
G03X390020Y74470I-1000J0D01*
G01X351440D01*
G02X350730Y74760I-6J1001D01*
G01X347960Y77540D01*
G03X343110Y80340I-7677J-7698D01*
G02X342570Y80710I264J965D01*
G03X332110Y82270I-6019J-4510D01*
G01X331980Y82170D01*
X331690Y82080D01*
X330520D01*
Y82220D01*
X330020Y82720D01*
Y95080D01*
X330230Y95290D01*
G03X330520Y95990I-710J704D01*
G01Y96830D01*
G02X331520Y97830I1000J0D01*
G01X354890D01*
G02X355720Y97390I1J-1000D01*
G03X357740Y95370I6230J4210D01*
G01X357950Y95230D01*
X358180Y94790D01*
Y94470D01*
G02X357180Y93470I-1000J0D01*
G01X352930D01*
G03X351930Y92470I0J-1000D01*
G01Y78930D01*
G03X352930Y77930I1000J0D01*
G01X390020D01*
G03X391020Y78930I0J1000D01*
G01Y92470D01*
G03X390020Y93470I-1000J0D01*
G01X385770D01*
G02X384770Y94470I0J1000D01*
G01Y107240D01*
G02X385210Y108070I1000J1D01*
G03X386160Y119770I-4210J6230D01*
G01X385930Y119990D01*
X385800Y120580D01*
X386600Y122600D01*
G02X387530Y123230I929J-369D01*
G01X392990D01*
G02X393820Y122790I1J-1000D01*
G03X405210Y132470I6231J4209D01*
G01X404980Y132690D01*
X404850Y133280D01*
X405650Y135300D01*
G02X406580Y135930I929J-369D01*
G01X412040D01*
G02X412870Y135490I1J-1000D01*
G03X422170Y132830I6234J4208D01*
G01X422410Y132940D01*
X422900Y132900D01*
X424520Y131850D01*
G02X424980Y131010I-540J-842D01*
G01Y31020D01*
G02X423980Y30020I-1000J0D01*
G01X311000D01*
G02X310000Y31020I0J1000D01*
G37*
G36*
G01X455020D02*
Y360000D01*
G03X445000Y370020I-10020J0D01*
G01X390000D01*
G03X379980Y360000I0J-10020D01*
G01Y350000D01*
G03X390000Y339980I10020J0D01*
G01X423980D01*
G02X424980Y338980I0J-1000D01*
G01Y234170D01*
G02X423980Y233170I-1000J0D01*
G01X410330D01*
G03X409330Y232170I0J-1000D01*
G01Y216170D01*
X409120Y215960D01*
G03X408830Y215260I710J-704D01*
G01Y212420D01*
G02X407830Y211420I-1000J0D01*
G01X406170D01*
G02X405170Y212420I0J1000D01*
G01Y222220D01*
G03X404170Y223220I-1000J0D01*
G01X380130D01*
G03X379130Y222220I0J-1000D01*
G01Y184180D01*
G03X380130Y183180I1000J0D01*
G01X404170D01*
G03X405170Y184180I0J1000D01*
G01Y201380D01*
G02X406170Y202380I1000J0D01*
G01X407830D01*
G02X408830Y201380I0J-1000D01*
G01Y199130D01*
G03X409830Y198130I1000J0D01*
G01X413580D01*
G02X414580Y197130I0J-1000D01*
G01Y195820D01*
G02X413580Y194820I-1000J0D01*
G01X410080D01*
G03X409080Y193820I0J-1000D01*
G01Y178280D01*
X409290Y178070D01*
G02X409580Y177370I-710J-704D01*
G01Y162280D01*
G03X410580Y161280I1000J0D01*
G01X423980D01*
G02X424980Y160280I0J-1000D01*
G01Y157920D01*
G02X423980Y156920I-1000J0D01*
G01X343040D01*
G02X342280Y157270I0J1000D01*
G03X332110Y158470I-5730J-4870D01*
G01X331980Y158370D01*
X331690Y158280D01*
X330520D01*
Y158420D01*
X330020Y158920D01*
Y169620D01*
G03X329020Y170620I-1000J0D01*
G01X313540D01*
G02X312570Y171370I-2J1000D01*
G01X312080Y173240D01*
G02X312560Y174370I970J255D01*
G02X315000Y175000I2430J-4373D01*
G01X325000D01*
G03X330000Y180000I0J5000D01*
G01Y242370D01*
G02X330270Y243050I1000J-4D01*
G01X330670Y243480D01*
G02X331290Y243790I730J-685D01*
G03Y264210I-1090J10210D01*
G02X330670Y264520I110J995D01*
G01X330270Y264950D01*
G02X330000Y265630I730J684D01*
G01Y335000D01*
G03X325000Y340000I-5000J0D01*
G01X315000D01*
G02X310000Y345000I0J5000D01*
G01Y350430D01*
G02X311000Y351430I1000J0D01*
G01X315500D01*
G03X324730Y356910I0J10513D01*
G02X325610Y357430I878J-481D01*
G01X330980D01*
G02X331980Y356430I0J-1000D01*
G01Y352930D01*
G03X332980Y351930I1000J0D01*
G01X346520D01*
G03X347520Y352930I0J1000D01*
G01Y370970D01*
G03X346520Y371970I-1000J0D01*
G01X332980D01*
G03X331980Y370970I0J-1000D01*
G01Y367470D01*
G02X330980Y366470I-1000J0D01*
G01X325610D01*
G02X324730Y366990I-2J1001D01*
G03X315500Y372470I-9230J-5033D01*
G01X311000D01*
G02X310000Y373470I0J1000D01*
G01Y375830D01*
G02X311000Y376830I1000J0D01*
G01X315500D01*
G03X324730Y382310I0J10513D01*
G02X325610Y382830I878J-481D01*
G01X330980D01*
G02X331980Y381830I0J-1000D01*
G01Y378330D01*
G03X332980Y377330I1000J0D01*
G01X346520D01*
G03X347520Y378330I0J1000D01*
G01Y396370D01*
G03X346520Y397370I-1000J0D01*
G01X332980D01*
G03X331980Y396370I0J-1000D01*
G01Y392870D01*
G02X330980Y391870I-1000J0D01*
G01X325610D01*
G02X324730Y392390I-2J1001D01*
G03X315500Y397870I-9230J-5033D01*
G01X311000D01*
G02X310000Y398870I0J1000D01*
G01Y407580D01*
G02X311000Y408580I1000J0D01*
G01X315500D01*
G03X324730Y414060I0J10513D01*
G02X325610Y414580I878J-481D01*
G01X330980D01*
G02X331980Y413580I0J-1000D01*
G01Y410080D01*
G03X332980Y409080I1000J0D01*
G01X346520D01*
G03X347520Y410080I0J1000D01*
G01Y428120D01*
G03X346520Y429120I-1000J0D01*
G01X332980D01*
G03X331980Y428120I0J-1000D01*
G01Y424620D01*
G02X330980Y423620I-1000J0D01*
G01X325610D01*
G02X324730Y424140I-2J1001D01*
G03X315500Y429620I-9230J-5033D01*
G01X311000D01*
G02X310000Y430620I0J1000D01*
G01Y432980D01*
G02X311000Y433980I1000J0D01*
G01X315500D01*
G03X324730Y439460I0J10513D01*
G02X325610Y439980I878J-481D01*
G01X330980D01*
G02X331980Y438980I0J-1000D01*
G01Y435480D01*
G03X332980Y434480I1000J0D01*
G01X346520D01*
G03X347520Y435480I0J1000D01*
G01Y453520D01*
G03X346520Y454520I-1000J0D01*
G01X332980D01*
G03X331980Y453520I0J-1000D01*
G01Y450020D01*
G02X330980Y449020I-1000J0D01*
G01X325610D01*
G02X324730Y449540I-2J1001D01*
G03X315500Y455020I-9230J-5033D01*
G01X311000D01*
G02X310000Y456020I0J1000D01*
G01Y464730D01*
G02X311000Y465730I1000J0D01*
G01X315500D01*
G03X324730Y471210I0J10513D01*
G02X325610Y471730I878J-481D01*
G01X330980D01*
G02X331980Y470730I0J-1000D01*
G01Y467230D01*
G03X332980Y466230I1000J0D01*
G01X346520D01*
G03X347520Y467230I0J1000D01*
G01Y485270D01*
G03X346520Y486270I-1000J0D01*
G01X332980D01*
G03X331980Y485270I0J-1000D01*
G01Y481770D01*
G02X330980Y480770I-1000J0D01*
G01X325610D01*
G02X324730Y481290I-2J1001D01*
G03X315500Y486770I-9230J-5033D01*
G01X311000D01*
G02X310000Y487770I0J1000D01*
G01Y490130D01*
G02X311000Y491130I1000J0D01*
G01X315500D01*
G03X324730Y496610I0J10513D01*
G02X325610Y497130I878J-481D01*
G01X330980D01*
G02X331980Y496130I0J-1000D01*
G01Y492630D01*
G03X332980Y491630I1000J0D01*
G01X346520D01*
G03X347520Y492630I0J1000D01*
G01Y510670D01*
G03X346520Y511670I-1000J0D01*
G01X332980D01*
G03X331980Y510670I0J-1000D01*
G01Y507170D01*
G02X330980Y506170I-1000J0D01*
G01X325610D01*
G02X324730Y506690I-2J1001D01*
G03X315500Y512170I-9230J-5033D01*
G01X311000D01*
G02X310000Y513170I0J1000D01*
G01Y521880D01*
G02X311000Y522880I1000J0D01*
G01X314400D01*
G03X323630Y528360I0J10513D01*
G02X324510Y528880I878J-481D01*
G01X330980D01*
G02X331980Y527880I0J-1000D01*
G01Y524380D01*
G03X332980Y523380I1000J0D01*
G01X346520D01*
G03X347520Y524380I0J1000D01*
G01Y542420D01*
G03X346520Y543420I-1000J0D01*
G01X332980D01*
G03X331980Y542420I0J-1000D01*
G01Y538920D01*
G02X330980Y537920I-1000J0D01*
G01X324510D01*
G02X323630Y538440I-2J1001D01*
G03X314400Y543920I-9230J-5033D01*
G01X311000D01*
G02X310000Y544920I0J1000D01*
G01Y547280D01*
G02X311000Y548280I1000J0D01*
G01X314400D01*
G03X323630Y553760I0J10513D01*
G02X324510Y554280I878J-481D01*
G01X330980D01*
G02X331980Y553280I0J-1000D01*
G01Y549780D01*
G03X332980Y548780I1000J0D01*
G01X346520D01*
G03X347520Y549780I0J1000D01*
G01Y567820D01*
G03X346520Y568820I-1000J0D01*
G01X332980D01*
G03X331980Y567820I0J-1000D01*
G01Y564320D01*
G02X330980Y563320I-1000J0D01*
G01X324510D01*
G02X323630Y563840I-2J1001D01*
G03X314400Y569320I-9230J-5033D01*
G01X311000D01*
G02X310000Y570320I0J1000D01*
G01Y579030D01*
G02X311000Y580030I1000J0D01*
G01X314400D01*
G03X323630Y585510I0J10513D01*
G02X324510Y586030I878J-481D01*
G01X330980D01*
G02X331980Y585030I0J-1000D01*
G01Y581530D01*
G03X332980Y580530I1000J0D01*
G01X346520D01*
G03X347520Y581530I0J1000D01*
G01Y599570D01*
G03X346520Y600570I-1000J0D01*
G01X332980D01*
G03X331980Y599570I0J-1000D01*
G01Y596070D01*
G02X330980Y595070I-1000J0D01*
G01X324510D01*
G02X323630Y595590I-2J1001D01*
G03X314400Y601070I-9230J-5033D01*
G01X311000D01*
G02X310000Y602070I0J1000D01*
G01Y604430D01*
G02X311000Y605430I1000J0D01*
G01X314400D01*
G03X323630Y610910I0J10513D01*
G02X324510Y611430I878J-481D01*
G01X330980D01*
G02X331980Y610430I0J-1000D01*
G01Y606930D01*
G03X332980Y605930I1000J0D01*
G01X346520D01*
G03X347520Y606930I0J1000D01*
G01Y624970D01*
G03X346520Y625970I-1000J0D01*
G01X332980D01*
G03X331980Y624970I0J-1000D01*
G01Y621470D01*
G02X330980Y620470I-1000J0D01*
G01X324510D01*
G02X323630Y620990I-2J1001D01*
G03X314400Y626470I-9230J-5033D01*
G01X311000D01*
G02X310000Y627470I0J1000D01*
G01Y636180D01*
G02X311000Y637180I1000J0D01*
G01X314400D01*
G03X323630Y642660I0J10513D01*
G02X324510Y643180I878J-481D01*
G01X330980D01*
G02X331980Y642180I0J-1000D01*
G01Y638680D01*
G03X332980Y637680I1000J0D01*
G01X346520D01*
G03X347520Y638680I0J1000D01*
G01Y656720D01*
G03X346520Y657720I-1000J0D01*
G01X332980D01*
G03X331980Y656720I0J-1000D01*
G01Y653220D01*
G02X330980Y652220I-1000J0D01*
G01X324510D01*
G02X323630Y652740I-2J1001D01*
G03X314400Y658220I-9230J-5033D01*
G01X311000D01*
G02X310000Y659220I0J1000D01*
G01Y661580D01*
G02X311000Y662580I1000J0D01*
G01X314400D01*
G03X323630Y668060I0J10513D01*
G02X324510Y668580I878J-481D01*
G01X330980D01*
G02X331980Y667580I0J-1000D01*
G01Y664080D01*
G03X332980Y663080I1000J0D01*
G01X346520D01*
G03X347520Y664080I0J1000D01*
G01Y682120D01*
G03X346520Y683120I-1000J0D01*
G01X332980D01*
G03X331980Y682120I0J-1000D01*
G01Y678620D01*
G02X330980Y677620I-1000J0D01*
G01X324510D01*
G02X323630Y678140I-2J1001D01*
G03X314400Y683620I-9230J-5033D01*
G01X311000D01*
G02X310000Y684620I0J1000D01*
G01Y693330D01*
G02X311000Y694330I1000J0D01*
G01X314400D01*
G03X323630Y699810I0J10513D01*
G02X324510Y700330I878J-481D01*
G01X330980D01*
G02X331980Y699330I0J-1000D01*
G01Y695830D01*
G03X332980Y694830I1000J0D01*
G01X346520D01*
G03X347520Y695830I0J1000D01*
G01Y712780D01*
G02X348520Y713780I1000J0D01*
G01X349980D01*
G02X350980Y712780I0J-1000D01*
G01Y695830D01*
G03X351980Y694830I1000J0D01*
G01X365520D01*
G03X366520Y695830I0J1000D01*
G01Y699330D01*
G02X367520Y700330I1000J0D01*
G01X387210D01*
G02X387970Y699980I0J-1000D01*
G03X398860Y710320I5731J4869D01*
G01X398630Y710540D01*
X398500Y711130D01*
X399300Y713150D01*
G02X400230Y713780I929J-369D01*
G01X441870D01*
G02X443690Y713020I-8J-2578D01*
G01X586020Y570690D01*
G02X586780Y568870I-1818J-1828D01*
G01Y45160D01*
G02X586340Y44330I-1000J-1D01*
G03X584760Y33300I4210J-6231D01*
G01X584950Y33070D01*
X585020Y32500D01*
X584130Y30590D01*
G02X583220Y30020I-903J431D01*
G01X578830D01*
G02X577920Y30590I-7J1001D01*
G01X577030Y32500D01*
X577100Y33070D01*
X577290Y33300D01*
G03X575710Y44330I-5790J4799D01*
G02X575270Y45160I560J829D01*
G01Y543470D01*
G03X572310Y550630I-10122J7D01*
G01X449030Y673910D01*
G03X441870Y676870I-7153J-7162D01*
G01X367520D01*
G02X366520Y677870I0J1000D01*
G01Y682120D01*
G03X365520Y683120I-1000J0D01*
G01X351980D01*
G03X350980Y682120I0J-1000D01*
G01Y664080D01*
G03X351980Y663080I1000J0D01*
G01X365520D01*
G03X366520Y664080I0J1000D01*
G01Y668330D01*
G02X367520Y669330I1000J0D01*
G01X441870D01*
G02X443690Y668570I-8J-2578D01*
G01X566970Y545290D01*
G02X567730Y543470I-1818J-1828D01*
G01Y45160D01*
G02X567290Y44330I-1000J-1D01*
G03X565710Y33300I4210J-6231D01*
G01X565900Y33070D01*
X565970Y32500D01*
X565080Y30590D01*
G02X564170Y30020I-903J431D01*
G01X559780D01*
G02X558870Y30590I-7J1001D01*
G01X557980Y32500D01*
X558050Y33070D01*
X558240Y33300D01*
G03X556660Y44330I-5790J4799D01*
G02X556220Y45160I560J829D01*
G01Y505370D01*
G03X553260Y512530I-10122J7D01*
G01X449030Y616760D01*
G03X441870Y619720I-7153J-7162D01*
G01X367520D01*
G02X366520Y620720I0J1000D01*
G01Y624970D01*
G03X365520Y625970I-1000J0D01*
G01X351980D01*
G03X350980Y624970I0J-1000D01*
G01Y606930D01*
G03X351980Y605930I1000J0D01*
G01X365520D01*
G03X366520Y606930I0J1000D01*
G01Y611180D01*
G02X367520Y612180I1000J0D01*
G01X441870D01*
G02X443690Y611420I-8J-2578D01*
G01X547920Y507190D01*
G02X548680Y505370I-1818J-1828D01*
G01Y45160D01*
G02X548240Y44330I-1000J-1D01*
G03X546660Y33300I4210J-6231D01*
G01X546850Y33070D01*
X546920Y32500D01*
X546030Y30590D01*
G02X545120Y30020I-903J431D01*
G01X540730D01*
G02X539820Y30590I-7J1001D01*
G01X538930Y32500D01*
X539000Y33070D01*
X539190Y33300D01*
G03X537610Y44330I-5790J4799D01*
G02X537170Y45160I560J829D01*
G01Y467270D01*
G03X534210Y474430I-10122J7D01*
G01X449030Y559610D01*
G03X441870Y562570I-7153J-7162D01*
G01X367520D01*
G02X366520Y563570I0J1000D01*
G01Y567820D01*
G03X365520Y568820I-1000J0D01*
G01X351980D01*
G03X350980Y567820I0J-1000D01*
G01Y549780D01*
G03X351980Y548780I1000J0D01*
G01X365520D01*
G03X366520Y549780I0J1000D01*
G01Y554030D01*
G02X367520Y555030I1000J0D01*
G01X441870D01*
G02X443690Y554270I-8J-2578D01*
G01X528870Y469090D01*
G02X529630Y467270I-1818J-1828D01*
G01Y45160D01*
G02X529190Y44330I-1000J-1D01*
G03X527610Y33300I4210J-6231D01*
G01X527800Y33070D01*
X527870Y32500D01*
X526980Y30590D01*
G02X526070Y30020I-903J431D01*
G01X521680D01*
G02X520770Y30590I-7J1001D01*
G01X519880Y32500D01*
X519950Y33070D01*
X520140Y33300D01*
G03X518560Y44330I-5790J4799D01*
G02X518120Y45160I560J829D01*
G01Y429170D01*
G03X515160Y436330I-10122J7D01*
G01X449030Y502460D01*
G03X441870Y505420I-7153J-7162D01*
G01X367520D01*
G02X366520Y506420I0J1000D01*
G01Y510670D01*
G03X365520Y511670I-1000J0D01*
G01X351980D01*
G03X350980Y510670I0J-1000D01*
G01Y492630D01*
G03X351980Y491630I1000J0D01*
G01X365520D01*
G03X366520Y492630I0J1000D01*
G01Y496880D01*
G02X367520Y497880I1000J0D01*
G01X441870D01*
G02X443690Y497120I-8J-2578D01*
G01X509820Y430990D01*
G02X510580Y429170I-1818J-1828D01*
G01Y45160D01*
G02X510140Y44330I-1000J-1D01*
G03X508560Y33300I4210J-6231D01*
G01X508750Y33070D01*
X508820Y32500D01*
X507930Y30590D01*
G02X507020Y30020I-903J431D01*
G01X502630D01*
G02X501720Y30590I-7J1001D01*
G01X500830Y32500D01*
X500900Y33070D01*
X501090Y33300D01*
G03X499510Y44330I-5790J4799D01*
G02X499070Y45160I560J829D01*
G01Y391070D01*
G03X496110Y398230I-10122J7D01*
G01X449030Y445310D01*
G03X441870Y448270I-7153J-7162D01*
G01X367520D01*
G02X366520Y449270I0J1000D01*
G01Y453520D01*
G03X365520Y454520I-1000J0D01*
G01X351980D01*
G03X350980Y453520I0J-1000D01*
G01Y435480D01*
G03X351980Y434480I1000J0D01*
G01X365520D01*
G03X366520Y435480I0J1000D01*
G01Y439730D01*
G02X367520Y440730I1000J0D01*
G01X441870D01*
G02X443690Y439970I-8J-2578D01*
G01X490770Y392890D01*
G02X491530Y391070I-1818J-1828D01*
G01Y45160D01*
G02X491090Y44330I-1000J-1D01*
G03X489510Y33300I4210J-6231D01*
G01X489700Y33070D01*
X489770Y32500D01*
X488880Y30590D01*
G02X487970Y30020I-903J431D01*
G01X483580D01*
G02X482670Y30590I-7J1001D01*
G01X481780Y32500D01*
X481850Y33070D01*
X482040Y33300D01*
G03X480460Y44330I-5790J4799D01*
G02X480020Y45160I560J829D01*
G01Y352970D01*
G03X477060Y360130I-10122J7D01*
G01X449030Y388160D01*
G03X441870Y391120I-7153J-7162D01*
G01X367520D01*
G02X366520Y392120I0J1000D01*
G01Y396370D01*
G03X365520Y397370I-1000J0D01*
G01X351980D01*
G03X350980Y396370I0J-1000D01*
G01Y378330D01*
G03X351980Y377330I1000J0D01*
G01X365520D01*
G03X366520Y378330I0J1000D01*
G01Y382580D01*
G02X367520Y383580I1000J0D01*
G01X441870D01*
G02X443690Y382820I-8J-2578D01*
G01X471720Y354790D01*
G02X472480Y352970I-1818J-1828D01*
G01Y45160D01*
G02X472040Y44330I-1000J-1D01*
G03X470460Y33300I4210J-6231D01*
G01X470650Y33070D01*
X470720Y32500D01*
X469830Y30590D01*
G02X468920Y30020I-903J431D01*
G01X456020D01*
G02X455020Y31020I0J1000D01*
G37*
G36*
G01X990000Y-305000D02*
G02X985000Y-300000I0J5000D01*
G01Y-30000D01*
G03X980000Y-25000I-5000J0D01*
G01X957750D01*
X957170Y-24420D01*
Y-24380D01*
X956670Y-23880D01*
Y-8880D01*
G03X955670Y-7880I-1000J0D01*
G01X938450D01*
X937870Y-7300D01*
Y-7130D01*
X917330D01*
G03X916330Y-8130I0J-1000D01*
G01Y-24130D01*
X915980Y-24480D01*
X915830Y-24840D01*
Y-25000D01*
X900000D01*
G02X897290Y-24200I0J4990D01*
G02X896870Y-23080I539J841D01*
G01X897410Y-21240D01*
G02X898370Y-20520I960J-280D01*
G01X912670D01*
G03X913670Y-19520I0J1000D01*
G01Y19520D01*
G03X912670Y20520I-1000J0D01*
G01X898370D01*
G02X897410Y21240I0J1000D01*
G01X896870Y23080D01*
G02X897290Y24200I959J279D01*
G02X900000Y25000I2710J-4190D01*
G01X915000D01*
G02X920000Y20000I0J-5000D01*
G01Y15000D01*
G03X925000Y10000I5000J0D01*
G01X1320000D01*
G02X1325000Y5000I0J-5000D01*
G01Y-63530D01*
G02X1324000Y-64530I-1000J0D01*
G01X1323480D01*
G03X1322480Y-65530I0J-1000D01*
G01Y-83070D01*
X1322690Y-83280D01*
G02X1322980Y-83980I-710J-704D01*
G01Y-93480D01*
G02X1322480Y-94340I-1000J6D01*
G02X1320000Y-95000I-2480J4329D01*
G01X1315000D01*
G02X1310000Y-90000I0J5000D01*
G01Y-10000D01*
G03X1305000Y-5000I-5000J0D01*
G01X1265000D01*
G03X1260000Y-10000I0J-5000D01*
G01Y-90000D01*
G02X1255000Y-95000I-5000J0D01*
G01X1250000D01*
G02X1245000Y-90000I0J5000D01*
G01Y-10000D01*
G03X1240000Y-5000I-5000J0D01*
G01X1036000D01*
G03X1035000Y-6000I0J-1000D01*
G01Y-9000D01*
G03X1036000Y-10000I1000J0D01*
G01X1190000D01*
G02X1195000Y-15000I0J-5000D01*
G01Y-202160D01*
G02X1194860Y-202670I-1000J0D01*
G03X1193410Y-212920I11641J-6874D01*
G02X1193050Y-213960I-970J-247D01*
G02X1190000Y-215000I-3050J3952D01*
G01X1185000D01*
G02X1180000Y-210000I0J5000D01*
G01Y-30000D01*
G03X1175000Y-25000I-5000J0D01*
G01X1040000D01*
G03X1035000Y-30000I0J-5000D01*
G01Y-200000D01*
G02X1030000Y-205000I-5000J0D01*
G01X1025000D01*
G02X1020000Y-200000I0J5000D01*
G01Y-30000D01*
G03X1015000Y-25000I-5000J0D01*
G01X1005000D01*
G03X1000000Y-30000I0J-5000D01*
G01Y-273080D01*
G02X999000Y-274080I-1000J0D01*
G01X998630Y-274450D01*
Y-292620D01*
X998840Y-292830D01*
G02X999130Y-293530I-710J-704D01*
G01Y-302490D01*
G02X998910Y-303110I-999J5D01*
G02X995000Y-305000I-3910J3099D01*
G01X990000D01*
G37*
G36*
G01X1008230Y-539090D02*
X1008460Y-538870D01*
G03X1007510Y-527170I-5160J5470D01*
G02X1007070Y-526340I560J829D01*
G01Y-383630D01*
G02X1007830Y-381810I2578J-8D01*
G01X1035560Y-354080D01*
G03X1038520Y-346920I-7162J7153D01*
G01Y-321320D01*
G02X1039520Y-320320I1000J0D01*
G01X1042270D01*
G03X1043270Y-319320I0J1000D01*
G01Y-309620D01*
X1043690Y-309080D01*
X1044030Y-309000D01*
G03X1050860Y-303800I-2635J10546D01*
G01X1050990Y-303570D01*
X1051460Y-303300D01*
X1051730D01*
G02X1052730Y-304300I0J-1000D01*
G01Y-307780D01*
X1052520Y-307990D01*
G03X1052230Y-308690I710J-704D01*
G01Y-319320D01*
G03X1053230Y-320320I1000J0D01*
G01X1063520D01*
G02X1064230Y-320610I6J-1000D01*
G01X1068270Y-324660D01*
G03X1075430Y-327620I7153J7162D01*
G01X1087290D01*
X1087420D01*
X1088130Y-328330D01*
G02X1088430Y-329040I-698J-713D01*
G01Y-331230D01*
G02X1087430Y-332230I-1000J0D01*
G01X1083180D01*
G03X1082180Y-333230I0J-1000D01*
G01Y-351540D01*
G02X1081180Y-352540I-1000J0D01*
G01X1080970D01*
X1080780Y-352450D01*
G03X1079820Y-352110I-2955J-6817D01*
G02X1079150Y-351460I280J959D01*
G03X1078340Y-361630I-12348J-4134D01*
G02X1078890Y-361150I888J-462D01*
G01X1079460Y-360950D01*
G02X1080180Y-360970I334J-943D01*
G03X1081390Y-361350I2824J6874D01*
G01X1081740Y-361420D01*
X1082180Y-361970D01*
Y-365270D01*
G03X1083180Y-366270I1000J0D01*
G01X1106480D01*
G02X1107480Y-367270I0J-1000D01*
G01Y-368300D01*
G02X1104900Y-370880I-2580J0D01*
G01X1044030D01*
G03X1036870Y-373840I-7J-10122D01*
G01X1021540Y-389170D01*
G03X1018580Y-396330I7162J-7153D01*
G01Y-526340D01*
G02X1018140Y-527170I-1000J-1D01*
G03X1017190Y-538870I4210J-6230D01*
G01X1017420Y-539090D01*
X1017550Y-539680D01*
X1016750Y-541700D01*
G02X1015820Y-542330I-929J369D01*
G01X1009830D01*
G02X1008900Y-541700I-1J999D01*
G01X1008100Y-539680D01*
X1008230Y-539090D01*
G37*
G36*
G01X1023790Y-296800D02*
X1023560Y-296710D01*
G03X1020970Y-296130I-3653J-10240D01*
G02X1020340Y-295820I98J994D01*
G01X1019940Y-295390D01*
G02X1019670Y-294710I729J683D01*
G01Y-292580D01*
X1019460Y-292370D01*
G02X1019170Y-291670I710J704D01*
G01Y-276580D01*
G03X1018170Y-275580I-1000J0D01*
G01X1006020D01*
G02X1005020Y-274580I0J1000D01*
G01Y-31020D01*
G02X1006020Y-30020I1000J0D01*
G01X1013980D01*
G02X1014980Y-31020I0J-1000D01*
G01Y-200000D01*
G03X1025000Y-210020I10020J0D01*
G01X1030000D01*
G03X1039140Y-204110I0J10023D01*
G01X1039260Y-203840D01*
X1039750Y-203520D01*
X1062130D01*
G02X1063130Y-204520I0J-1000D01*
G01Y-206520D01*
G03X1064130Y-207520I1000J0D01*
G01X1082170D01*
G03X1083170Y-206520I0J1000D01*
G01Y-204520D01*
G02X1084170Y-203520I1000J0D01*
G01X1085890D01*
G03X1089810Y-202790I4J10870D01*
G01X1090050Y-202700D01*
X1090520Y-202750D01*
X1092100Y-203830D01*
G02X1092530Y-204650I-571J-822D01*
G01Y-205020D01*
G03X1093530Y-206020I1000J0D01*
G01X1103010D01*
G02X1103930Y-206640I-4J-998D01*
G01X1104050Y-206920D01*
X1103930Y-207500D01*
X1098940Y-212490D01*
G02X1097120Y-213250I-1828J1818D01*
G01X1092810D01*
G03X1085650Y-216210I-7J-10122D01*
G01X1078130Y-223740D01*
G02X1077420Y-224030I-704J710D01*
G01X1045820D01*
X1045610Y-223820D01*
G03X1044910Y-223530I-704J-710D01*
G01X1025780D01*
G03X1024780Y-224530I0J-1000D01*
G01Y-240570D01*
X1024990Y-240780D01*
G02X1025280Y-241480I-710J-704D01*
G01Y-257570D01*
G03X1026280Y-258570I1000J0D01*
G01X1082170D01*
G03X1083170Y-257570I0J1000D01*
G01Y-248780D01*
G02X1083460Y-248070I1000J6D01*
G01X1090830Y-240700D01*
G02X1091920Y-240490I702J-712D01*
G01X1092200Y-240600D01*
X1092530Y-241100D01*
Y-259020D01*
G03X1093530Y-260020I1000J0D01*
G01X1094800D01*
X1095280Y-260320D01*
X1095410Y-260580D01*
G03X1101050Y-264120I5640J2723D01*
G01X1108750D01*
G03X1114390Y-260580I0J6263D01*
G01X1114520Y-260320D01*
X1115000Y-260020D01*
X1116770D01*
X1116980Y-259810D01*
G02X1117680Y-259520I704J-710D01*
G01X1141170D01*
G03X1142170Y-258520I0J1000D01*
G01Y-239980D01*
G03X1141170Y-238980I-1000J0D01*
G01X1117770D01*
X1117560Y-238770D01*
G03X1116860Y-238480I-704J-710D01*
G01X1095460D01*
G02X1094540Y-237860I4J998D01*
G01X1094420Y-237580D01*
X1094540Y-237000D01*
X1098880Y-232660D01*
G02X1100700Y-231900I1828J-1818D01*
G01X1102740D01*
G03X1109900Y-228940I7J10122D01*
G01X1124760Y-214080D01*
G03X1127720Y-207010I-7162J7153D01*
G01Y-206590D01*
X1128300Y-206020D01*
X1141670D01*
G03X1142670Y-205020I0J1000D01*
G01Y-203490D01*
G02X1143290Y-202570I998J-4D01*
G01X1143570Y-202450D01*
X1144150Y-202570D01*
X1151170Y-209590D01*
G02X1151930Y-211410I-1818J-1828D01*
G01Y-257720D01*
G02X1151170Y-259540I-2578J8D01*
G01X1142190Y-268520D01*
G02X1140370Y-269280I-1828J1818D01*
G01X1050380D01*
G03X1043220Y-272240I-7J-10122D01*
G01X1033710Y-281760D01*
G03X1031280Y-287520I5829J-5852D01*
G01Y-287710D01*
X1031130Y-288070D01*
X1030980Y-288220D01*
Y-288280D01*
G02X1029980Y-289280I-1000J0D01*
G01X1027230D01*
G03X1026230Y-290280I0J-1000D01*
G01Y-294830D01*
G02X1025810Y-295650I-1001J-5D01*
G01X1024270Y-296730D01*
X1023790Y-296800D01*
G37*
G36*
G01X1027280Y-539090D02*
X1027510Y-538870D01*
G03X1026560Y-527170I-5160J5470D01*
G02X1026120Y-526340I560J829D01*
G01Y-396330D01*
G02X1026880Y-394510I2578J-8D01*
G01X1042210Y-379180D01*
G02X1044030Y-378420I1828J-1818D01*
G01X1104900D01*
G03X1115020Y-368300I0J10120D01*
G01Y-367270D01*
G02X1116020Y-366270I1000J0D01*
G01X1120770D01*
X1120980Y-366060D01*
G02X1121680Y-365770I704J-710D01*
G01X1139830D01*
Y-366020D01*
X1157880D01*
X1158090Y-366230D01*
G03X1158790Y-366520I704J710D01*
G01X1163630D01*
G02X1164630Y-367520I0J-1000D01*
G01Y-388930D01*
G02X1163630Y-389930I-1000J0D01*
G01X1132930D01*
G02X1131110Y-389170I8J2578D01*
G01X1128480Y-386540D01*
G03X1121320Y-383580I-7153J-7162D01*
G01X1056730D01*
G03X1049570Y-386540I-7J-10122D01*
G01X1040590Y-395520D01*
G03X1037630Y-402680I7162J-7153D01*
G01Y-526340D01*
G02X1037190Y-527170I-1000J-1D01*
G03X1036240Y-538870I4210J-6230D01*
G01X1036470Y-539090D01*
X1036600Y-539680D01*
X1035800Y-541700D01*
G02X1034870Y-542330I-929J369D01*
G01X1028880D01*
G02X1027950Y-541700I-1J999D01*
G01X1027150Y-539680D01*
X1027280Y-539090D01*
G37*
G36*
G01X1075430Y-320080D02*
G02X1073610Y-319320I8J2578D01*
G01X1069560Y-315280D01*
G02X1069270Y-314570I710J704D01*
G01Y-308780D01*
X1069060Y-308570D01*
G02X1068770Y-307870I710J704D01*
G01Y-301820D01*
X1069130Y-301460D01*
G02X1069450Y-301240I717J-700D01*
G01X1069660Y-301160D01*
G02X1070750Y-301380I381J-925D01*
G01X1074970Y-305610D01*
G03X1081270Y-308530I7148J7165D01*
G02X1082180Y-309530I-91J-997D01*
G01Y-319080D01*
G02X1081180Y-320080I-1000J0D01*
G01X1075430D01*
G37*
G36*
G01X1040020Y-193480D02*
Y-115130D01*
G02X1040610Y-114220I1001J-2D01*
G01X1042540Y-113350D01*
X1043120Y-113440D01*
X1043340Y-113630D01*
G03X1045930Y-114790I3157J3577D01*
G02X1046540Y-115090I-110J-993D01*
G01X1046950Y-115520D01*
G02X1047230Y-116220I-720J-694D01*
G01Y-128320D01*
G03X1048230Y-129320I1000J0D01*
G01X1052730D01*
G02X1053730Y-130320I0J-1000D01*
G01Y-130850D01*
G03X1053970Y-132910I8791J-20D01*
G01X1054030Y-133140D01*
X1053930Y-133580D01*
X1052820Y-135000D01*
G02X1052030Y-135380I-785J621D01*
G01X1051430D01*
G03X1050430Y-136380I0J-1000D01*
G01Y-151920D01*
X1050640Y-152130D01*
G02X1050930Y-152830I-710J-704D01*
G01Y-167920D01*
G03X1051930Y-168920I1000J0D01*
G01X1068980D01*
X1069190Y-169130D01*
G03X1069890Y-169420I704J710D01*
G01X1088520D01*
G03X1089520Y-168420I0J1000D01*
G01Y-165670D01*
G02X1090520Y-164670I1000J0D01*
G01X1091720D01*
G02X1093540Y-165430I-8J-2578D01*
G01X1106720Y-178610D01*
G02X1107480Y-180430I-1818J-1828D01*
G01Y-183480D01*
G02X1106480Y-184480I-1000J0D01*
G01X1093530D01*
G03X1092530Y-185480I0J-1000D01*
G01Y-190560D01*
X1092140Y-191080D01*
X1091810Y-191180D01*
G03X1087210Y-193910I3078J-10427D01*
G01X1087180Y-193940D01*
G02X1085890Y-194480I-1297J1288D01*
G01X1084170D01*
G02X1083170Y-193480I0J1000D01*
G01Y-190980D01*
X1082960Y-190770D01*
G02X1082670Y-190070I710J704D01*
G01Y-174980D01*
G03X1081670Y-173980I-1000J0D01*
G01X1064630D01*
G03X1063630Y-174980I0J-1000D01*
G01Y-189980D01*
X1063420Y-190190D01*
G03X1063130Y-190890I710J-704D01*
G01Y-193480D01*
G02X1062130Y-194480I-1000J0D01*
G01X1041020D01*
G02X1040020Y-193480I0J1000D01*
G37*
G36*
G01X1089520Y-156130D02*
Y-138410D01*
G02X1090140Y-137490I998J-4D01*
G01X1090420Y-137370D01*
X1091000Y-137490D01*
X1136300Y-182780D01*
G02X1136510Y-183870I-712J-702D01*
G01X1136400Y-184150D01*
X1135900Y-184480D01*
X1116020D01*
G02X1115020Y-183480I0J1000D01*
G01Y-180430D01*
G03X1112060Y-173270I-10122J7D01*
G01X1098880Y-160090D01*
G03X1091720Y-157130I-7153J-7162D01*
G01X1090520D01*
G02X1089520Y-156130I0J1000D01*
G37*
G36*
G01X1229240Y-287070D02*
X1229180Y-286700D01*
G03X1226360Y-281220I-9983J-1672D01*
G01X1172930Y-227790D01*
G02X1172170Y-225970I1818J1828D01*
G01Y-212180D01*
G03X1169210Y-205020I-10122J7D01*
G01X1120120Y-155940D01*
G02X1119940Y-154780I708J704D01*
G01X1120950Y-152790D01*
X1121530Y-152500D01*
X1121860Y-152550D01*
G03X1124080Y-126680I2091J12851D01*
G01X1123880D01*
X1123520Y-126530D01*
X1119710Y-122710D01*
G03X1113070Y-119580I-7684J-7692D01*
G02X1112440Y-119270I99J995D01*
G01X1112040Y-118840D01*
G02X1111770Y-118160I730J683D01*
G01Y-112780D01*
X1111560Y-112570D01*
G02X1111270Y-111870I710J704D01*
G01Y-110320D01*
X1111480Y-110110D01*
G03X1111770Y-109410I-710J704D01*
G01Y-109070D01*
G03X1119710Y-105890I253J10870D01*
G01X1123520Y-102070D01*
X1123880Y-101920D01*
X1124080D01*
G03X1114090Y-97410I-135J13021D01*
G01X1114350Y-97710D01*
X1114320Y-98480D01*
X1113310Y-99490D01*
G02X1112020Y-100030I-1297J1288D01*
G01X1111840D01*
X1111420Y-100050D01*
X1110820Y-99490D01*
X1110810Y-99280D01*
X1090290D01*
X1089790Y-98930D01*
X1089670Y-98630D01*
G03X1088490Y-96340I-10186J-3800D01*
G01X1088330Y-96110D01*
X1088300Y-95560D01*
X1089400Y-93470D01*
G03X1089520Y-93000I-878J475D01*
G01Y-76680D01*
X1089310Y-76470D01*
G02X1089020Y-75770I710J704D01*
G01Y-60680D01*
G03X1088020Y-59680I-1000J0D01*
G01X1070800D01*
X1070220Y-59100D01*
Y-58930D01*
X1051680D01*
G03X1050680Y-59930I0J-1000D01*
G01Y-75930D01*
X1050470Y-76140D01*
G03X1050180Y-76840I710J-704D01*
G01Y-79680D01*
G02X1049180Y-80680I-1000J0D01*
G01X1041020D01*
G02X1040020Y-79680I0J1000D01*
G01Y-31020D01*
G02X1041020Y-30020I1000J0D01*
G01X1173980D01*
G02X1174980Y-31020I0J-1000D01*
G01Y-210000D01*
G03X1185000Y-220020I10020J0D01*
G01X1190000D01*
G03X1195660Y-218270I0J10028D01*
G02X1196960Y-218410I569J-822D01*
G03X1202620Y-197120I9540J8861D01*
G01X1202380Y-197200D01*
X1201920Y-197120D01*
X1200430Y-196020D01*
G02X1200020Y-195210I590J807D01*
G01Y-167470D01*
G02X1201020Y-166470I1000J0D01*
G01X1208180D01*
G02X1209180Y-167470I0J-1000D01*
G01Y-168720D01*
G03X1210180Y-169720I1000J0D01*
G01X1227230D01*
G02X1228230Y-170720I0J-1000D01*
G01Y-172180D01*
G02X1227230Y-173180I-1000J0D01*
G01X1210180D01*
G03X1209180Y-174180I0J-1000D01*
G01Y-187720D01*
G03X1210180Y-188720I1000J0D01*
G01X1229220D01*
Y-188470D01*
X1233480D01*
G02X1234480Y-189470I0J-1000D01*
G01Y-196690D01*
X1234120Y-197200D01*
X1233820Y-197310D01*
G03X1250490Y-213980I4430J-12240D01*
G01X1250600Y-213680D01*
X1251110Y-213320D01*
X1252390D01*
G03X1259550Y-210360I7J10122D01*
G01X1260470Y-209430D01*
G02X1261520Y-209190I713J-703D01*
G01X1263500Y-209910D01*
X1263850Y-210370D01*
X1263880Y-210660D01*
G03X1277460Y-197080I12470J1110D01*
G01X1277170Y-197050D01*
X1276710Y-196700D01*
X1275990Y-194720D01*
G02X1276230Y-193670I943J337D01*
G01X1277160Y-192750D01*
G03X1279400Y-189350I-7161J7156D01*
G01X1279510Y-189060D01*
X1280020Y-188720D01*
X1285370D01*
G03X1286370Y-187720I0J1000D01*
G01Y-174180D01*
G03X1285370Y-173180I-1000J0D01*
G01X1268320D01*
G02X1267320Y-172180I0J1000D01*
G01Y-170220D01*
G02X1268320Y-169220I1000J0D01*
G01X1284870D01*
G03X1285870Y-168220I0J1000D01*
G01Y-155680D01*
G03X1284870Y-154680I-1000J0D01*
G01X1267320D01*
Y-154430D01*
X1243020D01*
G02X1242020Y-153430I0J1000D01*
G01Y-141770D01*
G02X1243020Y-140770I1000J0D01*
G01X1243500D01*
X1244080Y-141350D01*
Y-141520D01*
X1263620D01*
G03X1264620Y-140520I0J1000D01*
G01Y-131770D01*
G02X1265620Y-130770I1000J0D01*
G01X1267370D01*
G02X1269190Y-131530I-8J-2578D01*
G01X1290870Y-153210D01*
G02X1291630Y-155030I-1818J-1828D01*
G01Y-232320D01*
G02X1290870Y-234140I-2578J8D01*
G01X1243790Y-281220D01*
G03X1240970Y-286700I7163J-7152D01*
G01X1240910Y-287070D01*
X1240360Y-287530D01*
X1229790D01*
X1229240Y-287070D01*
G37*
G36*
G01X1139820Y-350480D02*
Y-349770D01*
X1140030Y-349560D01*
G03X1140320Y-348860I-710J704D01*
G01Y-348520D01*
G02X1141320Y-347520I1000J0D01*
G01X1176430D01*
G02X1177430Y-348520I0J-1000D01*
G01Y-349980D01*
G02X1176430Y-350980I-1000J0D01*
G01X1158880D01*
X1158670Y-351190D01*
G02X1157970Y-351480I-704J710D01*
G01X1140820D01*
G02X1139820Y-350480I0J1000D01*
G37*
G36*
G01X1115020Y-331230D02*
Y-323070D01*
G02X1116020Y-322070I1000J0D01*
G01X1139570D01*
X1139780Y-321860D01*
G02X1140480Y-321570I704J-710D01*
G01X1157880D01*
X1158090Y-321780D01*
G03X1158790Y-322070I704J710D01*
G01X1177420D01*
G03X1178420Y-321070I0J1000D01*
G01Y-319820D01*
G02X1179420Y-318820I1000J0D01*
G01X1181670D01*
X1181910D01*
X1182630Y-319520D01*
G02X1182930Y-320240I-701J-715D01*
G01Y-331230D01*
G02X1181930Y-332230I-1000J0D01*
G01X1178420D01*
Y-331980D01*
X1139330D01*
Y-332230D01*
X1116020D01*
G02X1115020Y-331230I0J1000D01*
G37*
G36*
G01X1172170Y-388930D02*
Y-367520D01*
G02X1173170Y-366520I1000J0D01*
G01X1177840D01*
X1178420Y-365940D01*
Y-365770D01*
X1195970D01*
G03X1196970Y-364770I0J1000D01*
G01Y-349770D01*
X1197180Y-349560D01*
G03X1197470Y-348860I-710J704D01*
G01Y-346270D01*
G02X1198470Y-345270I1000J0D01*
G01X1206390D01*
G02X1207100Y-345560I6J-1001D01*
G01X1208360Y-346830D01*
G03X1209070Y-347120I705J712D01*
G01X1209450D01*
X1210030Y-347700D01*
Y-350120D01*
G03X1211030Y-351120I1000J0D01*
G01X1220780D01*
G02X1221780Y-352120I0J-1000D01*
G01Y-359080D01*
G02X1220780Y-360080I-1000J0D01*
G01X1211030D01*
G03X1210030Y-361080I0J-1000D01*
G01Y-376120D01*
G03X1211030Y-377120I1000J0D01*
G01X1220780D01*
G02X1221780Y-378120I0J-1000D01*
G01Y-378370D01*
G02X1221020Y-380190I-2578J8D01*
G01X1212040Y-389170D01*
G02X1210220Y-389930I-1828J1818D01*
G01X1173170D01*
G02X1172170Y-388930I0J1000D01*
G37*
G36*
G01X1178420Y-308780D02*
Y-307530D01*
G03X1177420Y-306530I-1000J0D01*
G01X1158880D01*
X1158670Y-306740D01*
G02X1157970Y-307030I-704J710D01*
G01X1141070D01*
G02X1140070Y-306030I0J1000D01*
G01Y-305070D01*
X1140280Y-304860D01*
G03X1140570Y-304160I-710J704D01*
G01Y-304070D01*
G02X1141570Y-303070I1000J0D01*
G01X1177420D01*
G03X1178420Y-302070I0J1000D01*
G01Y-291870D01*
G02X1179040Y-290950I999J-4D01*
G01X1179320Y-290830D01*
X1179900Y-290950D01*
X1182390Y-293440D01*
G02X1182930Y-294730I-1288J-1297D01*
G01Y-308740D01*
G02X1182240Y-309690I-1000J1D01*
G02X1181670Y-309780I-567J1740D01*
G01X1179420D01*
G02X1178420Y-308780I0J1000D01*
G37*
G36*
G01X1266330Y-188720D02*
X1268110D01*
G02X1269030Y-189340I-4J-998D01*
G01X1269150Y-189620D01*
X1269030Y-190200D01*
X1254210Y-205020D01*
G02X1252390Y-205780I-1828J1818D01*
G01X1251110D01*
X1250600Y-205420D01*
X1250490Y-205120D01*
G03X1242680Y-197310I-12240J-4430D01*
G01X1242380Y-197200D01*
X1242020Y-196690D01*
Y-189470D01*
G02X1243020Y-188470I1000J0D01*
G01X1247770D01*
X1247980Y-188260D01*
G02X1248680Y-187970I704J-710D01*
G01X1265750D01*
X1266330Y-188550D01*
Y-188720D01*
G37*
G36*
G01X1200020Y-156430D02*
Y-15000D01*
G03X1199710Y-12520I-10021J7D01*
G01X1199650Y-12280D01*
X1199740Y-11840D01*
X1200850Y-10410D01*
G02X1201640Y-10020I793J-611D01*
G01X1238980D01*
G02X1239980Y-11020I0J-1000D01*
G01Y-90000D01*
G03X1250000Y-100020I10020J0D01*
G01X1255000D01*
G03X1262690Y-96430I0J10031D01*
G02X1263450Y-96070I768J-639D01*
G01X1265080D01*
G02X1266080Y-97070I0J-1000D01*
G01Y-99320D01*
G03X1267080Y-100320I1000J0D01*
G01X1286040D01*
X1286620Y-99740D01*
Y-99570D01*
X1289880D01*
G02X1290880Y-100570I0J-1000D01*
G01Y-103180D01*
G02X1289880Y-104180I-1000J0D01*
G01X1289050D01*
G03X1278930Y-114300I0J-10120D01*
G01Y-127000D01*
G03X1279000Y-128140I8772J-34D01*
G01X1279040Y-128380D01*
X1278890Y-128800D01*
X1278720Y-128970D01*
G02X1277310I-705J705D01*
G01X1274530Y-126190D01*
G03X1267370Y-123230I-7153J-7162D01*
G01X1265620D01*
G02X1264620Y-122230I0J1000D01*
G01Y-117980D01*
X1264410Y-117770D01*
G02X1264120Y-117070I710J704D01*
G01Y-113980D01*
G03X1263120Y-112980I-1000J0D01*
G01X1245580D01*
G03X1244580Y-113980I0J-1000D01*
G01Y-116980D01*
X1244370Y-117190D01*
G03X1244080Y-117890I710J-704D01*
G01X1243740Y-118230D01*
X1242230D01*
G02X1240410Y-117470I8J2578D01*
G01X1233780Y-110840D01*
G03X1230120Y-108510I-7139J-7174D01*
G01X1229830Y-108400D01*
X1229470Y-107880D01*
Y-103880D01*
G03X1228470Y-102880I-1000J0D01*
G01X1209930D01*
G03X1208930Y-103880I0J-1000D01*
G01Y-137420D01*
G03X1209930Y-138420I1000J0D01*
G01X1228470D01*
G03X1229470Y-137420I0J1000D01*
G01Y-137190D01*
X1231140Y-135760D01*
X1231560Y-135640D01*
X1231780Y-135680D01*
G03X1232970Y-135770I1179J7681D01*
G01X1234080D01*
G02X1235080Y-136770I0J-1000D01*
G01Y-136970D01*
X1235000Y-137160D01*
G03X1234480Y-139700I5943J-2540D01*
G01Y-153430D01*
G02X1233480Y-154430I-1000J0D01*
G01X1229220D01*
Y-154180D01*
X1210180D01*
G03X1209180Y-155180I0J-1000D01*
G01Y-156430D01*
G02X1208180Y-157430I-1000J0D01*
G01X1201020D01*
G02X1200020Y-156430I0J1000D01*
G37*
G36*
G01X1329780Y-118070D02*
X1341040D01*
G02X1341960Y-118690I-4J-998D01*
G01X1342080Y-118970D01*
X1341960Y-119550D01*
X1332690Y-128820D01*
G03X1329730Y-135980I7162J-7153D01*
G01Y-153180D01*
G02X1328730Y-154180I-1000J0D01*
G01X1323480D01*
Y-154430D01*
X1319220D01*
G02X1318220Y-153430I0J1000D01*
G01Y-145960D01*
G03X1315260Y-138800I-10122J7D01*
G01X1312650Y-136190D01*
G03X1309250Y-133950I-7156J-7161D01*
G01X1308960Y-133840D01*
X1308620Y-133330D01*
Y-126770D01*
G02X1309620Y-125770I1000J0D01*
G01X1316820D01*
G03X1323980Y-122810I7J10122D01*
G01X1327960Y-118830D01*
G02X1329780Y-118070I1828J-1818D01*
G37*
G36*
G01X1286120Y-66030D02*
Y-65860D01*
X1285540Y-65280D01*
X1266020D01*
G02X1265020Y-64280I0J1000D01*
G01Y-11020D01*
G02X1266020Y-10020I1000J0D01*
G01X1303980D01*
G02X1304980Y-11020I0J-1000D01*
G01Y-65030D01*
G02X1303980Y-66030I-1000J0D01*
G01X1286120D01*
G37*
%LPC*%
G75*
G36*
G01X594320Y-464260D02*
Y-467530D01*
G03X595320Y-468530I1000J0D01*
G01X631130D01*
G03X632130Y-467530I0J1000D01*
G01Y-465280D01*
G02X633130Y-464280I1000J0D01*
G01X643170D01*
G02X644170Y-465280I0J-1000D01*
G01Y-479320D01*
G02X643170Y-480320I-1000J0D01*
G01X633130D01*
G02X632130Y-479320I0J1000D01*
G01Y-477070D01*
G03X631130Y-476070I-1000J0D01*
G01X588020D01*
G03X587020Y-477070I0J-1000D01*
G01Y-479320D01*
G02X586020Y-480320I-1000J0D01*
G01X575980D01*
G02X574980Y-479320I0J1000D01*
G01Y-477070D01*
G03X573980Y-476070I-1000J0D01*
G01X549920D01*
G03X548920Y-477070I0J-1000D01*
G01Y-479320D01*
G02X547920Y-480320I-1000J0D01*
G01X537880D01*
G02X536880Y-479320I0J1000D01*
G01Y-465280D01*
G02X537880Y-464280I1000J0D01*
G01X547920D01*
G02X548920Y-465280I0J-1000D01*
G01Y-467530D01*
G03X549920Y-468530I1000J0D01*
G01X573980D01*
G03X574980Y-467530I0J1000D01*
G01Y-465280D01*
G02X575980Y-464280I1000J0D01*
G01X582500D01*
G03X583380Y-463760I2J1001D01*
G01X584360Y-461990D01*
X584340Y-461440D01*
X584190Y-461210D01*
G02X594760Y-463430I6360J4010D01*
G03X594320Y-464260I561J-829D01*
G37*
G36*
G01X1321510Y-491530D02*
X1353330D01*
G03X1354330Y-490530I0J1000D01*
G01Y-486280D01*
G02X1355330Y-485280I1000J0D01*
G01X1368870D01*
G02X1369870Y-486280I0J-1000D01*
G01Y-504320D01*
G02X1368870Y-505320I-1000J0D01*
G01X1355330D01*
G02X1354330Y-504320I0J1000D01*
G01Y-500070D01*
G03X1353330Y-499070I-1000J0D01*
G01X1321510D01*
G03X1320680Y-499510I-1J-1001D01*
G02Y-491090I-6230J4210D01*
G03X1321510Y-491530I829J561D01*
G37*
G36*
G01X1417980Y-490530D02*
Y-485530D01*
G02X1418980Y-484530I1000J0D01*
G01X1438520D01*
G02X1439520Y-485530I0J-1000D01*
G01Y-505070D01*
G02X1438520Y-506070I-1000J0D01*
G01X1418980D01*
G02X1417980Y-505070I0J1000D01*
G01Y-500070D01*
G03X1416980Y-499070I-1000J0D01*
G01X1389870D01*
G03X1388870Y-500070I0J-1000D01*
G01Y-504320D01*
G02X1387870Y-505320I-1000J0D01*
G01X1374330D01*
G02X1373330Y-504320I0J1000D01*
G01Y-486280D01*
G02X1374330Y-485280I1000J0D01*
G01X1387870D01*
G02X1388870Y-486280I0J-1000D01*
G01Y-490530D01*
G03X1389870Y-491530I1000J0D01*
G01X1416980D01*
G03X1417980Y-490530I0J1000D01*
G37*
G36*
G01X643880Y-507240D02*
Y-504320D01*
G03X642880Y-503320I-1000J0D01*
G01X642630D01*
G02X641630Y-502320I0J1000D01*
G01Y-488280D01*
G02X642630Y-487280I1000J0D01*
G01X652670D01*
G02X653670Y-488280I0J-1000D01*
G01Y-502320D01*
G02X652670Y-503320I-1000J0D01*
G01X652420D01*
G03X651420Y-504320I0J-1000D01*
G01Y-507240D01*
G03X651860Y-508070I1001J-1D01*
G02X643440I-4210J-6230D01*
G03X643880Y-507240I-561J829D01*
G37*
G36*
G01X586730D02*
Y-504320D01*
G03X585730Y-503320I-1000J0D01*
G01X585480D01*
G02X584480Y-502320I0J1000D01*
G01Y-488280D01*
G02X585480Y-487280I1000J0D01*
G01X595520D01*
G02X596520Y-488280I0J-1000D01*
G01Y-502320D01*
G02X595520Y-503320I-1000J0D01*
G01X595270D01*
G03X594270Y-504320I0J-1000D01*
G01Y-507240D01*
G03X594710Y-508070I1001J-1D01*
G02X586290I-4210J-6230D01*
G03X586730Y-507240I-561J829D01*
G37*
G36*
G01X548630D02*
Y-504320D01*
G03X547630Y-503320I-1000J0D01*
G01X547380D01*
G02X546380Y-502320I0J1000D01*
G01Y-488280D01*
G02X547380Y-487280I1000J0D01*
G01X557420D01*
G02X558420Y-488280I0J-1000D01*
G01Y-502320D01*
G02X557420Y-503320I-1000J0D01*
G01X557170D01*
G03X556170Y-504320I0J-1000D01*
G01Y-507240D01*
G03X556610Y-508070I1001J-1D01*
G02X548190I-4210J-6230D01*
G03X548630Y-507240I-561J829D01*
G37*
G36*
G01X624880Y-507290D02*
Y-504320D01*
G03X623880Y-503320I-1000J0D01*
G01X623630D01*
G02X622630Y-502320I0J1000D01*
G01Y-488280D01*
G02X623630Y-487280I1000J0D01*
G01X633670D01*
G02X634670Y-488280I0J-1000D01*
G01Y-502320D01*
G02X633670Y-503320I-1000J0D01*
G01X633420D01*
G03X632420Y-504320I0J-1000D01*
G01Y-507290D01*
G03X632860Y-508120I1001J-1D01*
G02X624440I-4210J-6230D01*
G03X624880Y-507290I-561J829D01*
G37*
G36*
G01X567730D02*
Y-504320D01*
G03X566730Y-503320I-1000J0D01*
G01X566480D01*
G02X565480Y-502320I0J1000D01*
G01Y-488280D01*
G02X566480Y-487280I1000J0D01*
G01X576520D01*
G02X577520Y-488280I0J-1000D01*
G01Y-502320D01*
G02X576520Y-503320I-1000J0D01*
G01X576270D01*
G03X575270Y-504320I0J-1000D01*
G01Y-507290D01*
G03X575710Y-508120I1001J-1D01*
G02X567290I-4210J-6230D01*
G03X567730Y-507290I-561J829D01*
G37*
G36*
G01X529630D02*
Y-504320D01*
G03X528630Y-503320I-1000J0D01*
G01X528380D01*
G02X527380Y-502320I0J1000D01*
G01Y-488280D01*
G02X528380Y-487280I1000J0D01*
G01X538420D01*
G02X539420Y-488280I0J-1000D01*
G01Y-502320D01*
G02X538420Y-503320I-1000J0D01*
G01X538170D01*
G03X537170Y-504320I0J-1000D01*
G01Y-507290D01*
G03X537610Y-508120I1001J-1D01*
G02X529190I-4210J-6230D01*
G03X529630Y-507290I-561J829D01*
G37*
G36*
G01X129420Y-584260D02*
X129180Y-584110D01*
X128650Y-584100D01*
X126880Y-585090D01*
G03X126370Y-585970I491J-872D01*
G01Y-586120D01*
G02X125370Y-587120I-1000J0D01*
G01X109830D01*
G02X108830Y-586120I0J1000D01*
G01Y-531480D01*
G02X109830Y-530480I1000J0D01*
G01X125370D01*
G02X126370Y-531480I0J-1000D01*
G01Y-534480D01*
G03X127370Y-535480I1000J0D01*
G01X133010D01*
G03X133790Y-535100I-5J1000D01*
G02X145930Y-535540I5909J-4650D01*
G03X146760Y-535980I829J561D01*
G01X148980D01*
G03X149980Y-534980I0J1000D01*
G01Y-531980D01*
G02X150980Y-530980I1000J0D01*
G01X166520D01*
G02X167520Y-531980I0J-1000D01*
G01Y-586620D01*
G02X166520Y-587620I-1000J0D01*
G01X150980D01*
G02X149980Y-586620I0J1000D01*
G01Y-583620D01*
G03X148980Y-582620I-1000J0D01*
G01X139620D01*
G03X138880Y-582940I-7J-1000D01*
G02X129420Y-584260I-5532J5091D01*
G37*
G36*
G01X1417980Y-592130D02*
Y-587130D01*
G02X1418980Y-586130I1000J0D01*
G01X1438520D01*
G02X1439520Y-587130I0J-1000D01*
G01Y-606670D01*
G02X1438520Y-607670I-1000J0D01*
G01X1418980D01*
G02X1417980Y-606670I0J1000D01*
G01Y-601670D01*
G03X1416980Y-600670I-1000J0D01*
G01X1389870D01*
G03X1388870Y-601670I0J-1000D01*
G01Y-605920D01*
G02X1387870Y-606920I-1000J0D01*
G01X1374330D01*
G02X1373330Y-605920I0J1000D01*
G01Y-587880D01*
G02X1374330Y-586880I1000J0D01*
G01X1387870D01*
G02X1388870Y-587880I0J-1000D01*
G01Y-592130D01*
G03X1389870Y-593130I1000J0D01*
G01X1416980D01*
G03X1417980Y-592130I0J1000D01*
G37*
G36*
G01X129630Y-648200D02*
X129400Y-648020D01*
X128830Y-647950D01*
X126940Y-648860D01*
G03X126370Y-649760I429J-902D01*
G01Y-650040D01*
X125790Y-650620D01*
X109830D01*
G02X108830Y-649620I0J1000D01*
G01Y-594980D01*
G02X109830Y-593980I1000J0D01*
G01X125370D01*
G02X126370Y-594980I0J-1000D01*
G01Y-597980D01*
G03X127370Y-598980I1000J0D01*
G01X133010D01*
G03X133790Y-598600I-5J1000D01*
G02X145930Y-599040I5909J-4650D01*
G03X146760Y-599480I829J561D01*
G01X148980D01*
G03X149980Y-598480I0J1000D01*
G01Y-595480D01*
G02X150980Y-594480I1000J0D01*
G01X166520D01*
G02X167520Y-595480I0J-1000D01*
G01Y-650120D01*
G02X166520Y-651120I-1000J0D01*
G01X150980D01*
G02X149980Y-650120I0J1000D01*
G01Y-647120D01*
G03X148980Y-646120I-1000J0D01*
G01X141410D01*
G03X140580Y-646560I-1J-1001D01*
G02X129630Y-648200I-6229J4211D01*
G37*
G36*
G01X1296110Y-694730D02*
X1353330D01*
G03X1354330Y-693730I0J1000D01*
G01Y-689480D01*
G02X1355330Y-688480I1000J0D01*
G01X1368870D01*
G02X1369870Y-689480I0J-1000D01*
G01Y-707520D01*
G02X1368870Y-708520I-1000J0D01*
G01X1355330D01*
G02X1354330Y-707520I0J1000D01*
G01Y-703270D01*
G03X1353330Y-702270I-1000J0D01*
G01X1296110D01*
G03X1295280Y-702710I-1J-1001D01*
G02Y-694290I-6230J4210D01*
G03X1296110Y-694730I829J561D01*
G37*
G36*
G01X1417980Y-693730D02*
Y-688730D01*
G02X1418980Y-687730I1000J0D01*
G01X1438520D01*
G02X1439520Y-688730I0J-1000D01*
G01Y-708270D01*
G02X1438520Y-709270I-1000J0D01*
G01X1418980D01*
G02X1417980Y-708270I0J1000D01*
G01Y-703270D01*
G03X1416980Y-702270I-1000J0D01*
G01X1389870D01*
G03X1388870Y-703270I0J-1000D01*
G01Y-707520D01*
G02X1387870Y-708520I-1000J0D01*
G01X1374330D01*
G02X1373330Y-707520I0J1000D01*
G01Y-689480D01*
G02X1374330Y-688480I1000J0D01*
G01X1387870D01*
G02X1388870Y-689480I0J-1000D01*
G01Y-693730D01*
G03X1389870Y-694730I1000J0D01*
G01X1416980D01*
G03X1417980Y-693730I0J1000D01*
G37*
G36*
G01X1277060Y-796330D02*
X1353330D01*
G03X1354330Y-795330I0J1000D01*
G01Y-791080D01*
G02X1355330Y-790080I1000J0D01*
G01X1368870D01*
G02X1369870Y-791080I0J-1000D01*
G01Y-809120D01*
G02X1368870Y-810120I-1000J0D01*
G01X1355330D01*
G02X1354330Y-809120I0J1000D01*
G01Y-804870D01*
G03X1353330Y-803870I-1000J0D01*
G01X1277060D01*
G03X1276230Y-804310I-1J-1001D01*
G02Y-795890I-6230J4210D01*
G03X1277060Y-796330I829J561D01*
G37*
G36*
G01X1417980Y-795330D02*
Y-790330D01*
G02X1418980Y-789330I1000J0D01*
G01X1438520D01*
G02X1439520Y-790330I0J-1000D01*
G01Y-809870D01*
G02X1438520Y-810870I-1000J0D01*
G01X1418980D01*
G02X1417980Y-809870I0J1000D01*
G01Y-804870D01*
G03X1416980Y-803870I-1000J0D01*
G01X1389870D01*
G03X1388870Y-804870I0J-1000D01*
G01Y-809120D01*
G02X1387870Y-810120I-1000J0D01*
G01X1374330D01*
G02X1373330Y-809120I0J1000D01*
G01Y-791080D01*
G02X1374330Y-790080I1000J0D01*
G01X1387870D01*
G02X1388870Y-791080I0J-1000D01*
G01Y-795330D01*
G03X1389870Y-796330I1000J0D01*
G01X1416980D01*
G03X1417980Y-795330I0J1000D01*
G37*
G36*
G01X392990Y-848320D02*
X368480D01*
G03X367550Y-848950I-1J-1000D01*
G01X366860Y-850680D01*
G03X367110Y-851780I930J-367D01*
G02Y-862720I-5160J-5470D01*
G03X366860Y-863820I680J-733D01*
G01X367550Y-865550D01*
G03X368480Y-866180I929J370D01*
G01X373940D01*
G03X374770Y-865740I1J1001D01*
G02X386160Y-875420I6232J-4208D01*
G03X385910Y-876520I680J-733D01*
G01X386600Y-878250D01*
G03X387530Y-878880I929J370D01*
G01X412040D01*
G03X412870Y-878440I1J1001D01*
G02Y-886860I6230J-4210D01*
G03X412040Y-886420I-829J-561D01*
G01X204540D01*
G03X203840Y-886710I4J-1000D01*
G01X203780Y-886770D01*
X203420Y-886920D01*
X203150D01*
X202570Y-887500D01*
Y-890920D01*
G02X201570Y-891920I-1000J0D01*
G01X186030D01*
G02X185030Y-890920I0J1000D01*
G01Y-836280D01*
G02X186030Y-835280I1000J0D01*
G01X201570D01*
G02X202570Y-836280I0J-1000D01*
G01Y-839280D01*
G03X203570Y-840280I1000J0D01*
G01X203630D01*
X203840Y-840490D01*
G03X204540Y-840780I704J710D01*
G01X392990D01*
G03X393820Y-840340I1J1001D01*
G02Y-848760I6230J-4210D01*
G03X392990Y-848320I-829J-561D01*
G37*
G36*
G01X1258010Y-897930D02*
X1353330D01*
G03X1354330Y-896930I0J1000D01*
G01Y-892680D01*
G02X1355330Y-891680I1000J0D01*
G01X1368870D01*
G02X1369870Y-892680I0J-1000D01*
G01Y-910720D01*
G02X1368870Y-911720I-1000J0D01*
G01X1355330D01*
G02X1354330Y-910720I0J1000D01*
G01Y-906470D01*
G03X1353330Y-905470I-1000J0D01*
G01X1258010D01*
G03X1257180Y-905910I-1J-1001D01*
G02Y-897490I-6230J4210D01*
G03X1258010Y-897930I829J561D01*
G37*
G36*
G01X1417980Y-896930D02*
Y-891930D01*
G02X1418980Y-890930I1000J0D01*
G01X1438520D01*
G02X1439520Y-891930I0J-1000D01*
G01Y-911470D01*
G02X1438520Y-912470I-1000J0D01*
G01X1418980D01*
G02X1417980Y-911470I0J1000D01*
G01Y-906470D01*
G03X1416980Y-905470I-1000J0D01*
G01X1389870D01*
G03X1388870Y-906470I0J-1000D01*
G01Y-910720D01*
G02X1387870Y-911720I-1000J0D01*
G01X1374330D01*
G02X1373330Y-910720I0J1000D01*
G01Y-892680D01*
G02X1374330Y-891680I1000J0D01*
G01X1387870D01*
G02X1388870Y-892680I0J-1000D01*
G01Y-896930D01*
G03X1389870Y-897930I1000J0D01*
G01X1416980D01*
G03X1417980Y-896930I0J1000D01*
G37*
G36*
G01X1238960Y-999530D02*
X1353330D01*
G03X1354330Y-998530I0J1000D01*
G01Y-994280D01*
G02X1355330Y-993280I1000J0D01*
G01X1368870D01*
G02X1369870Y-994280I0J-1000D01*
G01Y-1012320D01*
G02X1368870Y-1013320I-1000J0D01*
G01X1355330D01*
G02X1354330Y-1012320I0J1000D01*
G01Y-1008070D01*
G03X1353330Y-1007070I-1000J0D01*
G01X1238960D01*
G03X1238130Y-1007510I-1J-1001D01*
G02Y-999090I-6230J4210D01*
G03X1238960Y-999530I829J561D01*
G37*
G36*
G01X1417980Y-998530D02*
Y-993530D01*
G02X1418980Y-992530I1000J0D01*
G01X1438520D01*
G02X1439520Y-993530I0J-1000D01*
G01Y-1013070D01*
G02X1438520Y-1014070I-1000J0D01*
G01X1418980D01*
G02X1417980Y-1013070I0J1000D01*
G01Y-1008070D01*
G03X1416980Y-1007070I-1000J0D01*
G01X1389870D01*
G03X1388870Y-1008070I0J-1000D01*
G01Y-1012320D01*
G02X1387870Y-1013320I-1000J0D01*
G01X1374330D01*
G02X1373330Y-1012320I0J1000D01*
G01Y-994280D01*
G02X1374330Y-993280I1000J0D01*
G01X1387870D01*
G02X1388870Y-994280I0J-1000D01*
G01Y-998530D01*
G03X1389870Y-999530I1000J0D01*
G01X1416980D01*
G03X1417980Y-998530I0J1000D01*
G37*
G36*
G01X1219910Y-1101130D02*
X1353330D01*
G03X1354330Y-1100130I0J1000D01*
G01Y-1095880D01*
G02X1355330Y-1094880I1000J0D01*
G01X1368870D01*
G02X1369870Y-1095880I0J-1000D01*
G01Y-1113920D01*
G02X1368870Y-1114920I-1000J0D01*
G01X1355330D01*
G02X1354330Y-1113920I0J1000D01*
G01Y-1109670D01*
G03X1353330Y-1108670I-1000J0D01*
G01X1219910D01*
G03X1219080Y-1109110I-1J-1001D01*
G02Y-1100690I-6230J4210D01*
G03X1219910Y-1101130I829J561D01*
G37*
G36*
G01X1417980Y-1100130D02*
Y-1095130D01*
G02X1418980Y-1094130I1000J0D01*
G01X1438520D01*
G02X1439520Y-1095130I0J-1000D01*
G01Y-1114670D01*
G02X1438520Y-1115670I-1000J0D01*
G01X1418980D01*
G02X1417980Y-1114670I0J1000D01*
G01Y-1109670D01*
G03X1416980Y-1108670I-1000J0D01*
G01X1389870D01*
G03X1388870Y-1109670I0J-1000D01*
G01Y-1113920D01*
G02X1387870Y-1114920I-1000J0D01*
G01X1374330D01*
G02X1373330Y-1113920I0J1000D01*
G01Y-1095880D01*
G02X1374330Y-1094880I1000J0D01*
G01X1387870D01*
G02X1388870Y-1095880I0J-1000D01*
G01Y-1100130D01*
G03X1389870Y-1101130I1000J0D01*
G01X1416980D01*
G03X1417980Y-1100130I0J1000D01*
G37*
G36*
G01X1200860Y-1177330D02*
X1353330D01*
G03X1354330Y-1176330I0J1000D01*
G01Y-1172080D01*
G02X1355330Y-1171080I1000J0D01*
G01X1368870D01*
G02X1369870Y-1172080I0J-1000D01*
G01Y-1190120D01*
G02X1368870Y-1191120I-1000J0D01*
G01X1355330D01*
G02X1354330Y-1190120I0J1000D01*
G01Y-1185870D01*
G03X1353330Y-1184870I-1000J0D01*
G01X1200860D01*
G03X1200030Y-1185310I-1J-1001D01*
G02Y-1176890I-6230J4210D01*
G03X1200860Y-1177330I829J561D01*
G37*
G36*
G01X1418630Y-1185470D02*
X1418510Y-1185190D01*
X1418020Y-1184870D01*
X1389870D01*
G03X1388870Y-1185870I0J-1000D01*
G01Y-1190120D01*
G02X1387870Y-1191120I-1000J0D01*
G01X1374330D01*
G02X1373330Y-1190120I0J1000D01*
G01Y-1172080D01*
G02X1374330Y-1171080I1000J0D01*
G01X1387870D01*
G02X1388870Y-1172080I0J-1000D01*
G01Y-1176330D01*
G03X1389870Y-1177330I1000J0D01*
G01X1418020D01*
X1418510Y-1177010D01*
X1418630Y-1176730D01*
G02Y-1185470I10120J-4370D01*
G37*
G36*
G01X34670Y-1343770D02*
X16130D01*
G02X15130Y-1342770I0J1000D01*
G01Y-1324230D01*
G02X16130Y-1323230I1000J0D01*
G01X34670D01*
G02X35670Y-1324230I0J-1000D01*
G01Y-1342770D01*
G02X34670Y-1343770I-1000J0D01*
G37*
G36*
G01X9770Y-1344270D02*
X-9770D01*
G02X-10770Y-1343270I0J1000D01*
G01Y-1323730D01*
G02X-9770Y-1322730I1000J0D01*
G01X9770D01*
G02X10770Y-1323730I0J-1000D01*
G01Y-1343270D01*
G02X9770Y-1344270I-1000J0D01*
G37*
G36*
G01X34670Y-607170D02*
X16130D01*
G02X15130Y-606170I0J1000D01*
G01Y-587630D01*
G02X16130Y-586630I1000J0D01*
G01X34670D01*
G02X35670Y-587630I0J-1000D01*
G01Y-606170D01*
G02X34670Y-607170I-1000J0D01*
G37*
G36*
G01X9770Y-607670D02*
X-9770D01*
G02X-10770Y-606670I0J1000D01*
G01Y-587130D01*
G02X-9770Y-586130I1000J0D01*
G01X9770D01*
G02X10770Y-587130I0J-1000D01*
G01Y-606670D01*
G02X9770Y-607670I-1000J0D01*
G37*
G36*
G01X60570Y-1344270D02*
X41030D01*
G02X40030Y-1343270I0J1000D01*
G01Y-1323730D01*
G02X41030Y-1322730I1000J0D01*
G01X60570D01*
G02X61570Y-1323730I0J-1000D01*
G01Y-1343270D01*
G02X60570Y-1344270I-1000J0D01*
G37*
G36*
G01Y-607670D02*
X41030D01*
G02X40030Y-606670I0J1000D01*
G01Y-587130D01*
G02X41030Y-586130I1000J0D01*
G01X60570D01*
G02X61570Y-587130I0J-1000D01*
G01Y-606670D01*
G02X60570Y-607670I-1000J0D01*
G37*
G36*
G01X199770Y-296020D02*
X181230D01*
G02X180230Y-295020I0J1000D01*
G01Y-276480D01*
G02X181230Y-275480I1000J0D01*
G01X199770D01*
G02X200770Y-276480I0J-1000D01*
G01Y-295020D01*
G02X199770Y-296020I-1000J0D01*
G37*
G36*
G01X1158620Y-461120D02*
X1140080D01*
G02X1139080Y-460120I0J1000D01*
G01Y-441580D01*
G02X1140080Y-440580I1000J0D01*
G01X1158620D01*
G02X1159620Y-441580I0J-1000D01*
G01Y-460120D01*
G02X1158620Y-461120I-1000J0D01*
G37*
G36*
G01X1438020Y-1216770D02*
X1419480D01*
G02X1418480Y-1215770I0J1000D01*
G01Y-1197230D01*
G02X1419480Y-1196230I1000J0D01*
G01X1438020D01*
G02X1439020Y-1197230I0J-1000D01*
G01Y-1215770D01*
G02X1438020Y-1216770I-1000J0D01*
G37*
G36*
G01X521410Y-682030D02*
X555380D01*
G03X556380Y-681030I0J1000D01*
G01Y-678030D01*
G02X557380Y-677030I1000J0D01*
G01X572920D01*
G02X573920Y-678030I0J-1000D01*
G01Y-732670D01*
G02X572920Y-733670I-1000J0D01*
G01X557380D01*
G02X556380Y-732670I0J1000D01*
G01Y-729670D01*
G03X555380Y-728670I-1000J0D01*
G01X555320D01*
X554610Y-727960D01*
G03X553910Y-727670I-704J-710D01*
G01X483310D01*
G03X482480Y-728110I-1J-1001D01*
G02X470020I-6230J4210D01*
G03X469190Y-727670I-829J-561D01*
G01X335620D01*
G03X334620Y-728670I0J-1000D01*
G01Y-780720D01*
X334120Y-781220D01*
Y-791920D01*
G02X333120Y-792920I-1000J0D01*
G01X310080D01*
G02X309080Y-791920I0J1000D01*
G01Y-781220D01*
X308870Y-781010D01*
G02X308580Y-780310I710J704D01*
G01Y-679780D01*
X309080Y-679280D01*
Y-668580D01*
G02X310080Y-667580I1000J0D01*
G01X333120D01*
G02X334120Y-668580I0J-1000D01*
G01Y-679280D01*
X334330Y-679490D01*
G02X334620Y-680190I-710J-704D01*
G01Y-681030D01*
G03X335620Y-682030I1000J0D01*
G01X507290D01*
G03X508120Y-681590I1J1001D01*
G02X520580I6230J-4210D01*
G03X521410Y-682030I829J561D01*
G37*
G36*
G01X212170Y-593130D02*
X214580D01*
G03X215580Y-592130I0J1000D01*
G01Y-588970D01*
G03X214580Y-587970I-1000J0D01*
G01X211170D01*
G02X204020Y-585010I3J10122D01*
G01X202390Y-583380D01*
G03X200570Y-582620I-1828J-1818D01*
G01X200520D01*
G03X199520Y-583620I0J-1000D01*
G01Y-586620D01*
G02X198520Y-587620I-1000J0D01*
G01X182980D01*
G02X181980Y-586620I0J1000D01*
G01Y-531980D01*
G02X182980Y-530980I1000J0D01*
G01X198520D01*
G02X199520Y-531980I0J-1000D01*
G01Y-534980D01*
G03X200520Y-535980I1000J0D01*
G01X200580D01*
G02X207730Y-538940I-3J-10122D01*
G01X210360Y-541570D01*
G03X212180Y-542330I1828J1818D01*
G01X214580D01*
G03X215580Y-541330I0J1000D01*
G01Y-540080D01*
X216080Y-539580D01*
Y-528880D01*
G02X217080Y-527880I1000J0D01*
G01X240120D01*
G02X241120Y-528880I0J-1000D01*
G01Y-539580D01*
X241330Y-539790D01*
G02X241620Y-540490I-710J-704D01*
G01Y-641020D01*
X241120Y-641520D01*
Y-652220D01*
G02X240120Y-653220I-1000J0D01*
G01X217080D01*
G02X216080Y-652220I0J1000D01*
G01Y-641520D01*
X215870Y-641310D01*
G02X215580Y-640610I710J704D01*
G01Y-639770D01*
G03X214580Y-638770I-1000J0D01*
G01X212180D01*
G03X210360Y-639530I8J-2578D01*
G01X206990Y-642900D01*
G02X201960Y-645110I-5366J5384D01*
G01X201950D01*
G03X201300Y-645400I56J-999D01*
G01X200870Y-645830D01*
G02X200170Y-646120I-704J710D01*
G01X200100D01*
X199520Y-646700D01*
Y-650120D01*
G02X198520Y-651120I-1000J0D01*
G01X182980D01*
G02X181980Y-650120I0J1000D01*
G01Y-595480D01*
G02X182980Y-594480I1000J0D01*
G01X198520D01*
G02X199520Y-595480I0J-1000D01*
G01Y-598480D01*
G03X200520Y-599480I1000J0D01*
G01X200570D01*
G03X202390Y-598720I-8J2578D01*
G01X205020Y-596090D01*
G02X212170Y-593130I7153J-7162D01*
G37*
G36*
G01X17390Y-740370D02*
X15320D01*
G02X8170Y-737410I3J10122D01*
G01X4730Y-733960D01*
X4160Y-733840D01*
X3880Y-733950D01*
G02X10050Y-727780I-3880J10050D01*
G01X9940Y-728060D01*
X10060Y-728630D01*
X13510Y-732070D01*
G03X15330Y-732830I1828J1818D01*
G01X17390D01*
G03X18390Y-731830I0J1000D01*
G01Y-731630D01*
X18240Y-731270D01*
X18100Y-731130D01*
G02Y-716670I7300J7230D01*
G01X18240Y-716530D01*
X18390Y-716170D01*
Y-715970D01*
G03X17390Y-714970I-1000J0D01*
G01X15320D01*
G02X8170Y-712010I3J10122D01*
G01X4730Y-708560D01*
X4160Y-708440D01*
X3880Y-708550D01*
G02X10050Y-702380I-3880J10050D01*
G01X9940Y-702660D01*
X10060Y-703230D01*
X13510Y-706670D01*
G03X15330Y-707430I1828J1818D01*
G01X17390D01*
G03X18390Y-706430I0J1000D01*
G01Y-706230D01*
X18240Y-705870D01*
X18100Y-705730D01*
G02Y-691270I7300J7230D01*
G01X18240Y-691130D01*
X18390Y-690770D01*
Y-690570D01*
G03X17390Y-689570I-1000J0D01*
G01X15320D01*
G02X8170Y-686610I3J10122D01*
G01X4730Y-683160D01*
X4160Y-683040D01*
X3880Y-683150D01*
G02X10050Y-676980I-3880J10050D01*
G01X9940Y-677260D01*
X10060Y-677830D01*
X13510Y-681270D01*
G03X15330Y-682030I1828J1818D01*
G01X17390D01*
G03X18390Y-681030I0J1000D01*
G01Y-680830D01*
X18240Y-680470D01*
X18100Y-680330D01*
G02Y-665870I7300J7230D01*
G01X18240Y-665730D01*
X18390Y-665370D01*
Y-665170D01*
G03X17390Y-664170I-1000J0D01*
G01X15320D01*
G02X8170Y-661210I3J10122D01*
G01X4730Y-657760D01*
X4160Y-657640D01*
X3880Y-657750D01*
G02X10050Y-651580I-3880J10050D01*
G01X9940Y-651860D01*
X10060Y-652430D01*
X13510Y-655870D01*
G03X15330Y-656630I1828J1818D01*
G01X17390D01*
G03X18390Y-655630I0J1000D01*
G01Y-655430D01*
X18240Y-655070D01*
X18100Y-654930D01*
G02X33870Y-653500I7294J7230D01*
G03X33810Y-654530I825J-565D01*
G01X34640Y-656100D01*
G03X35520Y-656630I883J470D01*
G01X40080D01*
G03X40950Y-656110I-7J999D01*
G01X41930Y-654320D01*
X41900Y-653770D01*
X41750Y-653550D01*
G02X59850I9050J5850D01*
G01X59700Y-653770D01*
X59670Y-654320D01*
X60650Y-656110D01*
G03X61520Y-656630I877J479D01*
G01X124380D01*
G02X131530Y-659590I-3J-10122D01*
G01X146860Y-674920D01*
G03X148680Y-675680I1828J1818D01*
G01X148980D01*
G03X149980Y-674680I0J1000D01*
G01Y-671680D01*
G02X150980Y-670680I1000J0D01*
G01X166520D01*
G02X167520Y-671680I0J-1000D01*
G01Y-726320D01*
G02X166520Y-727320I-1000J0D01*
G01X150980D01*
G02X149980Y-726320I0J1000D01*
G01Y-723320D01*
G03X148980Y-722320I-1000J0D01*
G01X147680D01*
G03X145860Y-723080I8J-2578D01*
G01X131530Y-737410D01*
G02X124380Y-740370I-7153J7162D01*
G01X61520D01*
G03X60650Y-740890I7J-999D01*
G01X59670Y-742680D01*
X59700Y-743230D01*
X59850Y-743450D01*
G02X41750I-9050J-5850D01*
G01X41900Y-743230D01*
X41930Y-742680D01*
X40950Y-740890D01*
G03X40080Y-740370I-877J-479D01*
G01X35520D01*
G03X34640Y-740900I3J-1000D01*
G01X33810Y-742470D01*
G03X33870Y-743500I885J-465D01*
G02X18100Y-742070I-8476J-5800D01*
G01X18240Y-741930D01*
X18390Y-741570D01*
Y-741370D01*
G03X17390Y-740370I-1000J0D01*
G37*
G36*
G01X35480Y-867370D02*
X33410D01*
G03X32410Y-868370I0J-1000D01*
G01Y-868570D01*
X32560Y-868930D01*
X32700Y-869070D01*
G02X18100I-7300J-7230D01*
G01X18240Y-868930D01*
X18390Y-868570D01*
Y-868370D01*
G03X17390Y-867370I-1000J0D01*
G01X15320D01*
G02X8170Y-864410I3J10122D01*
G01X5730Y-861960D01*
G03X5020Y-861670I-704J-710D01*
G01X-9770D01*
G02X-10770Y-860670I0J1000D01*
G01Y-841130D01*
G02X-9770Y-840130I1000J0D01*
G01X6890D01*
G03X7820Y-839510I4J1001D01*
G01X7930Y-839230D01*
X7820Y-838650D01*
X4730Y-835560D01*
X4160Y-835440D01*
X3880Y-835550D01*
G02X10050Y-829380I-3880J10050D01*
G01X9940Y-829660D01*
X10060Y-830230D01*
X13510Y-833670D01*
G03X15330Y-834430I1828J1818D01*
G01X17390D01*
G03X18390Y-833430I0J1000D01*
G01Y-833230D01*
X18240Y-832870D01*
X18100Y-832730D01*
G02Y-818270I7300J7230D01*
G01X18240Y-818130D01*
X18390Y-817770D01*
Y-817570D01*
G03X17390Y-816570I-1000J0D01*
G01X15320D01*
G02X8170Y-813610I3J10122D01*
G01X4730Y-810160D01*
X4160Y-810040D01*
X3880Y-810150D01*
G02X10050Y-803980I-3880J10050D01*
G01X9940Y-804260D01*
X10060Y-804830D01*
X13510Y-808270D01*
G03X15330Y-809030I1828J1818D01*
G01X17390D01*
G03X18390Y-808030I0J1000D01*
G01Y-807830D01*
X18240Y-807470D01*
X18100Y-807330D01*
G02X33870Y-805900I7294J7230D01*
G03X33810Y-806930I825J-565D01*
G01X34640Y-808500D01*
G03X35520Y-809030I883J470D01*
G01X40080D01*
G03X40950Y-808510I-7J999D01*
G01X41930Y-806720D01*
X41900Y-806170D01*
X41750Y-805950D01*
G02X60650Y-795740I9055J5837D01*
G03X61560Y-796330I912J410D01*
G01X67230D01*
G02X74380Y-799290I-3J-10122D01*
G01X114610Y-839520D01*
G03X116430Y-840280I1828J1818D01*
G01X152030D01*
G03X153030Y-839280I0J1000D01*
G01Y-836280D01*
G02X154030Y-835280I1000J0D01*
G01X169570D01*
G02X170570Y-836280I0J-1000D01*
G01Y-890920D01*
G02X169570Y-891920I-1000J0D01*
G01X154030D01*
G02X153030Y-890920I0J1000D01*
G01Y-887920D01*
G03X152030Y-886920I-1000J0D01*
G01X85670D01*
G02X78520Y-883960I3J10122D01*
G01X56530Y-861960D01*
G03X55830Y-861670I-704J-710D01*
G01X45780D01*
G03X45070Y-861960I-6J-1000D01*
G01X42630Y-864410D01*
G02X35480Y-867370I-7153J7162D01*
G37*
G36*
G01X15630Y10770D02*
X35170D01*
G02X36170Y9770I0J-1000D01*
G01Y-9770D01*
G02X35170Y-10770I-1000J0D01*
G01X15630D01*
G02X14630Y-9770I0J1000D01*
G01Y9770D01*
G02X15630Y10770I1000J0D01*
G37*
G36*
G01X-9270Y10270D02*
X9270D01*
G02X10270Y9270I0J-1000D01*
G01Y-9270D01*
G02X9270Y-10270I-1000J0D01*
G01X-9270D01*
G02X-10270Y-9270I0J1000D01*
G01Y9270D01*
G02X-9270Y10270I1000J0D01*
G37*
G36*
G01X41530D02*
X60070D01*
G02X61070Y9270I0J-1000D01*
G01Y-9270D01*
G02X60070Y-10270I-1000J0D01*
G01X41530D01*
G02X40530Y-9270I0J1000D01*
G01Y9270D01*
G02X41530Y10270I1000J0D01*
G37*
G36*
G01X89830Y16670D02*
X113370D01*
G02X114370Y15670I0J-1000D01*
G01Y-7870D01*
G02X113370Y-8870I-1000J0D01*
G01X89830D01*
G02X88830Y-7870I0J1000D01*
G01Y15670D01*
G02X89830Y16670I1000J0D01*
G37*
G36*
G01X366520Y642180D02*
Y638680D01*
G02X365520Y637680I-1000J0D01*
G01X351980D01*
G02X350980Y638680I0J1000D01*
G01Y656720D01*
G02X351980Y657720I1000J0D01*
G01X365520D01*
G02X366520Y656720I0J-1000D01*
G01Y653220D01*
G03X367520Y652220I1000J0D01*
G01X387210D01*
G03X387970Y652570I0J1000D01*
G02Y642830I5730J-4870D01*
G03X387210Y643180I-760J-650D01*
G01X367520D01*
G03X366520Y642180I0J-1000D01*
G37*
G36*
G01Y585030D02*
Y581530D01*
G02X365520Y580530I-1000J0D01*
G01X351980D01*
G02X350980Y581530I0J1000D01*
G01Y599570D01*
G02X351980Y600570I1000J0D01*
G01X365520D01*
G02X366520Y599570I0J-1000D01*
G01Y596070D01*
G03X367520Y595070I1000J0D01*
G01X387210D01*
G03X387970Y595420I0J1000D01*
G02Y585680I5730J-4870D01*
G03X387210Y586030I-760J-650D01*
G01X367520D01*
G03X366520Y585030I0J-1000D01*
G37*
G36*
G01Y527880D02*
Y524380D01*
G02X365520Y523380I-1000J0D01*
G01X351980D01*
G02X350980Y524380I0J1000D01*
G01Y542420D01*
G02X351980Y543420I1000J0D01*
G01X365520D01*
G02X366520Y542420I0J-1000D01*
G01Y538920D01*
G03X367520Y537920I1000J0D01*
G01X387210D01*
G03X387970Y538270I0J1000D01*
G02Y528530I5730J-4870D01*
G03X387210Y528880I-760J-650D01*
G01X367520D01*
G03X366520Y527880I0J-1000D01*
G37*
G36*
G01X370170Y222220D02*
Y184180D01*
G02X369170Y183180I-1000J0D01*
G01X345130D01*
G02X344130Y184180I0J1000D01*
G01Y222220D01*
G02X345130Y223220I1000J0D01*
G01X350080D01*
G03X351080Y224220I0J1000D01*
G01Y242230D01*
G03X350080Y243230I-1000J0D01*
G01X345830D01*
G02X344830Y244230I0J1000D01*
G01Y263770D01*
G02X345830Y264770I1000J0D01*
G01X365370D01*
G02X366370Y263770I0J-1000D01*
G01Y244230D01*
G02X365370Y243230I-1000J0D01*
G01X361120D01*
G03X360120Y242230I0J-1000D01*
G01Y227320D01*
G03X360410Y226610I1001J-6D01*
G01X361380Y225650D01*
G02X361670Y224940I-712J-705D01*
G01Y224220D01*
G03X362670Y223220I1000J0D01*
G01X369170D01*
G02X370170Y222220I0J-1000D01*
G37*
G36*
G01X352480Y371470D02*
X365020D01*
G02X366020Y370470I0J-1000D01*
G01Y353430D01*
G02X365020Y352430I-1000J0D01*
G01X352480D01*
G02X351480Y353430I0J1000D01*
G01Y370470D01*
G02X352480Y371470I1000J0D01*
G37*
G36*
G01Y428620D02*
X365020D01*
G02X366020Y427620I0J-1000D01*
G01Y410580D01*
G02X365020Y409580I-1000J0D01*
G01X352480D01*
G02X351480Y410580I0J1000D01*
G01Y427620D01*
G02X352480Y428620I1000J0D01*
G37*
G36*
G01Y485770D02*
X365020D01*
G02X366020Y484770I0J-1000D01*
G01Y467730D01*
G02X365020Y466730I-1000J0D01*
G01X352480D01*
G02X351480Y467730I0J1000D01*
G01Y484770D01*
G02X352480Y485770I1000J0D01*
G37*
G54D39*
X215900Y-285750D03*
X1174750Y-450850D03*
G54D41*
X165100Y0D03*
G54D40*
X1066800Y-406400D03*
X1162050Y-1295400D03*
X1314450Y-368300D03*
G54D37*
X25400Y-1308100D03*
Y-1257300D03*
Y-1282700D03*
Y-1155700D03*
Y-1181100D03*
Y-1206500D03*
Y-1130300D03*
Y-1003300D03*
Y-1028700D03*
Y-1054100D03*
X0D03*
X25400Y-927100D03*
Y-952500D03*
Y-977900D03*
Y-901700D03*
Y-774700D03*
Y-622300D03*
Y-546100D03*
Y-571500D03*
X50800Y-1054100D03*
X0Y25400D03*
X50800D03*
G54D42*
X1009650Y-6350D03*
G54D38*
X0Y-1308100D03*
X25400Y-1231900D03*
X0D03*
Y-1257300D03*
Y-1282700D03*
Y-1155700D03*
Y-1181100D03*
Y-1206500D03*
Y-1130300D03*
Y-1003300D03*
Y-1028700D03*
Y-927100D03*
Y-952500D03*
Y-977900D03*
Y-876300D03*
Y-901700D03*
Y-774700D03*
Y-749300D03*
Y-622300D03*
Y-546100D03*
Y-571500D03*
X50800Y-1308100D03*
Y-1231900D03*
Y-1257300D03*
Y-1282700D03*
Y-1155700D03*
Y-1181100D03*
Y-1206500D03*
Y-1130300D03*
Y-1003300D03*
Y-1028700D03*
Y-927100D03*
Y-952500D03*
Y-977900D03*
Y-876300D03*
Y-901700D03*
Y-774700D03*
Y-622300D03*
Y-546100D03*
Y-571500D03*
X25400Y25400D03*
%LPD*%
G75*
G36*
G01X41910Y-819420D02*
X41750Y-819650D01*
G03X40750Y-829380I9049J-5846D01*
G01X40860Y-829660D01*
X40740Y-830230D01*
X37290Y-833670D01*
G02X35470Y-834430I-1828J1818D01*
G01X33410D01*
G02X32410Y-833430I0J1000D01*
G01Y-833230D01*
X32560Y-832870D01*
X32700Y-832730D01*
G03X33870Y-819700I-7301J7223D01*
G01X33710Y-819470D01*
X33680Y-818920D01*
X34640Y-817100D01*
G02X35530Y-816570I883J-471D01*
G01X40070D01*
G02X40950Y-817090I3J-999D01*
G01X41930Y-818880D01*
X41910Y-819420D01*
G37*
G36*
G01X33710Y-704530D02*
X33870Y-704300D01*
G03Y-692700I-8470J5800D01*
G01X33710Y-692470D01*
X33680Y-691920D01*
X34640Y-690100D01*
G02X35530Y-689570I883J-471D01*
G01X40070D01*
G02X40950Y-690090I3J-999D01*
G01X41930Y-691880D01*
X41910Y-692420D01*
X41750Y-692650D01*
G03Y-704350I9050J-5850D01*
G01X41910Y-704580D01*
X41930Y-705120D01*
X40950Y-706910D01*
G02X40070Y-707430I-877J479D01*
G01X35530D01*
G02X34640Y-706900I-7J1001D01*
G01X33680Y-705080D01*
X33710Y-704530D01*
G37*
G36*
G01Y-729930D02*
X33870Y-729700D01*
G03Y-718100I-8470J5800D01*
G01X33710Y-717870D01*
X33680Y-717320D01*
X34640Y-715500D01*
G02X35530Y-714970I883J-471D01*
G01X40070D01*
G02X40950Y-715490I3J-999D01*
G01X41930Y-717280D01*
X41910Y-717820D01*
X41750Y-718050D01*
G03Y-729750I9050J-5850D01*
G01X41910Y-729980D01*
X41930Y-730520D01*
X40950Y-732310D01*
G02X40070Y-732830I-877J479D01*
G01X35530D01*
G02X34640Y-732300I-7J1001D01*
G01X33680Y-730480D01*
X33710Y-729930D01*
G37*
G36*
G01Y-679130D02*
X33870Y-678900D01*
G03Y-667300I-8470J5800D01*
G01X33710Y-667070D01*
X33680Y-666520D01*
X34640Y-664700D01*
G02X35530Y-664170I883J-471D01*
G01X40070D01*
G02X40950Y-664690I3J-999D01*
G01X41930Y-666480D01*
X41910Y-667020D01*
X41750Y-667250D01*
G03Y-678950I9050J-5850D01*
G01X41910Y-679180D01*
X41930Y-679720D01*
X40950Y-681510D01*
G02X40070Y-682030I-877J479D01*
G01X35530D01*
G02X34640Y-681500I-7J1001D01*
G01X33680Y-679680D01*
X33710Y-679130D01*
G37*
G54D10*
X-25400Y-1384300D03*
Y-495300D03*
Y-50800D03*
Y838200D03*
G54D20*
X177800Y203200D03*
X212800D03*
X357150D03*
X392150D03*
X865150Y0D03*
X900150D03*
G54D11*
X25400Y-1308100D03*
X0D03*
X25400Y-1231900D03*
Y-1257300D03*
Y-1282700D03*
X0Y-1231900D03*
Y-1257300D03*
Y-1282700D03*
X25400Y-1155700D03*
Y-1181100D03*
Y-1206500D03*
X0Y-1155700D03*
Y-1181100D03*
Y-1206500D03*
X25400Y-1130300D03*
Y-1079500D03*
X0Y-1130300D03*
Y-1079500D03*
X25400Y-1003300D03*
Y-1028700D03*
Y-1054100D03*
X0Y-1003300D03*
Y-1028700D03*
Y-1054100D03*
X25400Y-927100D03*
Y-952500D03*
Y-977900D03*
X0Y-927100D03*
Y-952500D03*
Y-977900D03*
X25400Y-876300D03*
Y-901700D03*
X0Y-876300D03*
Y-901700D03*
X25400Y-774700D03*
Y-800100D03*
Y-825500D03*
X0Y-774700D03*
Y-800100D03*
Y-825500D03*
X25400Y-698500D03*
Y-723900D03*
Y-749300D03*
X0Y-698500D03*
Y-723900D03*
Y-749300D03*
X25400Y-622300D03*
Y-647700D03*
Y-673100D03*
X0Y-622300D03*
Y-647700D03*
Y-673100D03*
X25400Y-546100D03*
Y-571500D03*
X0Y-546100D03*
Y-571500D03*
X25400Y50800D03*
Y25400D03*
X0Y50800D03*
Y25400D03*
X25400Y127000D03*
Y101600D03*
Y76200D03*
X0Y127000D03*
Y101600D03*
Y76200D03*
X25400Y203200D03*
Y177800D03*
Y152400D03*
X0Y203200D03*
Y177800D03*
Y152400D03*
X25400Y279400D03*
Y254000D03*
X0Y279400D03*
Y254000D03*
X25400Y355600D03*
Y330200D03*
Y304800D03*
X0Y355600D03*
Y330200D03*
Y304800D03*
X25400Y431800D03*
Y406400D03*
Y381000D03*
X0Y431800D03*
Y406400D03*
Y381000D03*
X25400Y508000D03*
Y457200D03*
X0Y508000D03*
Y457200D03*
X25400Y584200D03*
Y558800D03*
Y533400D03*
X0Y584200D03*
Y558800D03*
Y533400D03*
X25400Y660400D03*
Y635000D03*
Y609600D03*
X0Y660400D03*
Y635000D03*
Y609600D03*
X25400Y711200D03*
Y685800D03*
X0Y711200D03*
Y685800D03*
X25400Y787400D03*
Y762000D03*
X0Y787400D03*
Y762000D03*
X50800Y-1308100D03*
Y-1231900D03*
Y-1257300D03*
Y-1282700D03*
Y-1155700D03*
Y-1181100D03*
Y-1206500D03*
Y-1130300D03*
Y-1079500D03*
Y-1003300D03*
Y-1028700D03*
Y-1054100D03*
Y-927100D03*
Y-952500D03*
Y-977900D03*
Y-876300D03*
Y-901700D03*
Y-774700D03*
Y-800100D03*
Y-825500D03*
Y-698500D03*
Y-723900D03*
Y-749300D03*
Y-622300D03*
Y-647700D03*
Y-673100D03*
Y-546100D03*
Y-571500D03*
Y50800D03*
Y25400D03*
Y127000D03*
Y101600D03*
Y76200D03*
Y203200D03*
Y177800D03*
Y152400D03*
Y279400D03*
Y254000D03*
Y355600D03*
Y330200D03*
Y304800D03*
Y431800D03*
Y406400D03*
Y381000D03*
Y508000D03*
Y457200D03*
Y584200D03*
Y558800D03*
Y533400D03*
Y660400D03*
Y635000D03*
Y609600D03*
Y711200D03*
Y685800D03*
Y787400D03*
Y762000D03*
X228600Y254000D03*
X279400D03*
X330200D03*
G54D21*
X155000Y249000D03*
Y231000D03*
X419100Y206900D03*
Y224900D03*
X927100Y-34400D03*
Y-16400D03*
X1035050Y-250300D03*
Y-232300D03*
X1060450Y-67200D03*
Y-85200D03*
X1130300Y-313800D03*
Y-295800D03*
X1219200Y-129650D03*
Y-111650D03*
X1276350Y-91550D03*
Y-73550D03*
X1352550Y-180450D03*
Y-162450D03*
X1409700D03*
Y-180450D03*
G54D12*
X25400Y-1333500D03*
X0D03*
X25400Y-1104900D03*
X0D03*
X25400Y-850900D03*
X0D03*
X25400Y-596900D03*
X0D03*
X25400Y0D03*
X0D03*
X25400Y228600D03*
X0D03*
X25400Y482600D03*
X0D03*
X25400Y736600D03*
X0D03*
X50800Y-1333500D03*
Y-1104900D03*
Y-850900D03*
Y-596900D03*
Y0D03*
Y228600D03*
Y482600D03*
Y736600D03*
X190500Y-285750D03*
X133350Y711200D03*
X355600Y254000D03*
X1149350Y-450850D03*
X1428750Y-1206500D03*
Y-1104900D03*
Y-1003300D03*
Y-901700D03*
Y-800100D03*
Y-698500D03*
Y-596900D03*
Y-495300D03*
G54D30*
X1101500Y-104550D03*
Y-111050D03*
Y-117550D03*
Y-124050D03*
X1057500D03*
Y-117550D03*
Y-111050D03*
Y-104550D03*
G54D22*
X158750Y711200D03*
X215900Y-285750D03*
X1174750Y-450850D03*
X1428750Y-1181100D03*
Y-1079500D03*
Y-977900D03*
Y-876300D03*
Y-774700D03*
Y-673100D03*
Y-571500D03*
Y-469900D03*
G54D13*
G01X0Y660400D02*
X25400D01*
G01D02*
X50800D01*
G01Y50800D02*
X82300D01*
G02X86790Y48940I0J-6350D01*
G01X86970Y48760D01*
G03X91460Y46900I4490J4490D01*
G01X101600D01*
G01X50800Y660400D02*
X71120D01*
G03X75610Y662260I0J6350D01*
G01X95250Y681900D01*
G01X50800Y635000D02*
X72190D01*
G03X76680Y636860I0J6350D01*
G01X76860Y637040D01*
G02X81350Y638900I4490J-4490D01*
G01X95250D01*
G01X158750Y742950D02*
X107880D01*
G03X103390Y741090I0J-6350D01*
G01X97110Y734810D01*
G03X95250Y730320I4490J-4490D01*
G01Y681900D01*
X9940Y-525410D03*
X-7300Y-425370D03*
Y-323770D03*
Y-272970D03*
Y-222170D03*
Y-120570D03*
X3490Y-70930D03*
X50800Y-1384300D03*
X73770Y-1337300D03*
X100000Y-1224000D03*
X110110Y-1083770D03*
X76320Y-1090740D03*
X72000Y-1114000D03*
X72150Y-1050010D03*
X74820Y-897650D03*
X94080Y-801040D03*
X77360Y-753070D03*
X107950Y-514350D03*
X60740Y-525400D03*
X100110Y-484430D03*
X94300Y-294500D03*
Y-192900D03*
X107950Y-107950D03*
X96530Y-42720D03*
X88900Y292560D03*
X50800Y838200D03*
X175370Y-1337300D03*
X145000Y-1290000D03*
X137690Y-1189690D03*
X181950Y-1155610D03*
X143100Y-1157520D03*
X125580Y-899620D03*
X114300Y-825500D03*
X184150Y-774700D03*
X150000Y-797000D03*
X144000Y-835000D03*
X133350Y-812800D03*
X114300Y-723900D03*
X147000Y-740000D03*
X133350Y-698500D03*
X146050Y-660400D03*
X140200Y-629150D03*
X134350Y-642350D03*
X146050Y-590550D03*
X139700Y-603250D03*
X133850Y-616450D03*
Y-552950D03*
X133350Y-577850D03*
X139700Y-565150D03*
X150910Y-484430D03*
X139700Y-539750D03*
X145680Y-382830D03*
Y-281230D03*
Y-179630D03*
X165100Y0D03*
X114300Y285750D03*
X155000Y261020D03*
X177800Y742950D03*
X158750D03*
X209540Y-1261540D03*
X253800Y-1227460D03*
X209880Y-1221120D03*
X225650Y-1055620D03*
X226820Y-899120D03*
X247650Y-768350D03*
X199000Y-742000D03*
X204000Y-758000D03*
X203200Y-660400D03*
X247650Y-685800D03*
X246000Y-647700D03*
X247650Y-590550D03*
X203200Y-514350D03*
X201710Y-484430D03*
X247650Y-533400D03*
X247280Y-461980D03*
Y-360380D03*
Y-258780D03*
Y-157180D03*
X198130Y-42720D03*
X247650Y-44450D03*
X206700Y76320D03*
Y88900D03*
X197390Y95400D03*
X206700Y152400D03*
Y165100D03*
X203200Y361950D03*
Y419100D03*
X215900Y519630D03*
X203200Y476250D03*
X215900Y576780D03*
Y633930D03*
Y691080D03*
X276970Y-1337300D03*
X325640Y-1299300D03*
X279840Y-1294260D03*
X333410Y-1163380D03*
X272930Y-1000720D03*
X328420Y-899120D03*
X317500Y-800100D03*
X342000Y-835000D03*
X304800Y-787400D03*
X298450Y-730250D03*
Y-628650D03*
X342900Y-673100D03*
Y-647700D03*
X305330Y-673100D03*
X298450Y-533400D03*
X317500Y-482600D03*
X302790Y-499500D03*
X302720Y-396820D03*
Y-295220D03*
Y-244420D03*
Y-193620D03*
Y-92020D03*
X314960Y-42720D03*
X322000Y42300D03*
X336550Y88900D03*
Y76200D03*
Y209550D03*
Y171450D03*
Y152400D03*
X326000Y346000D03*
Y374000D03*
Y404000D03*
Y432000D03*
Y460000D03*
Y488000D03*
Y518000D03*
Y574000D03*
Y660000D03*
Y604000D03*
Y630000D03*
Y688000D03*
X330200Y723900D03*
X317500Y749300D03*
X343440Y-1383300D03*
X361560Y-1335220D03*
X346620Y-1361040D03*
X404500Y-1234480D03*
X374530Y-1000720D03*
X381000Y-869950D03*
X401000Y-865000D03*
X361950Y-857250D03*
X410000Y-801000D03*
X345780Y-796330D03*
X400050Y-844550D03*
X390000Y-770000D03*
X343000Y-736000D03*
X372000D03*
X410000Y-531000D03*
X390000Y-486000D03*
X371000Y-519000D03*
X347820Y-529630D03*
X410000Y-322000D03*
X391000Y-379000D03*
X371000Y-317000D03*
X409000Y-88000D03*
X390000Y-124000D03*
X349250Y-57150D03*
X372000Y-65000D03*
Y39000D03*
X390000D03*
X410000D03*
X381000Y114300D03*
X409000Y108000D03*
X361950Y101600D03*
X400050Y127000D03*
X361950Y165100D03*
X404000Y170000D03*
X387350Y292100D03*
X412750Y254000D03*
X342900Y311150D03*
X414000Y330000D03*
X366000Y338000D03*
X369770Y361950D03*
X393700Y355600D03*
X374650Y400050D03*
X378000Y376000D03*
X408000D03*
X369770Y419100D03*
X374650Y457200D03*
X376000Y514000D03*
X369770Y476250D03*
X374650Y571500D03*
X393700Y533400D03*
Y590550D03*
X374650Y628650D03*
X393700Y647700D03*
X374650Y685800D03*
X387350Y742950D03*
X393700Y704850D03*
X451560Y-1383300D03*
X463150Y-1336080D03*
X446580Y-1132880D03*
X474290Y-991240D03*
X419100Y-882650D03*
X430010Y-899670D03*
X440820Y-850030D03*
X491410Y-854670D03*
X447380Y-796330D03*
X457200Y-838200D03*
X433960Y-740370D03*
X484730Y-742250D03*
X457200Y-711200D03*
X476250Y-723900D03*
X463550Y-647700D03*
X431800D03*
X485000Y-491000D03*
X431800Y-533400D03*
X463550D03*
X428090Y-428030D03*
X454490Y-384630D03*
X485000Y-273000D03*
X431800Y-273050D03*
X463550Y-209550D03*
X431800Y-127000D03*
X486000Y-54000D03*
X432000Y-56000D03*
X464000Y-40000D03*
X463550Y57150D03*
X476250Y38100D03*
X419100Y139700D03*
X486000Y78000D03*
X463550Y158750D03*
Y279400D03*
X419100Y236920D03*
X463550Y342900D03*
X482600Y381000D03*
X450850Y400050D03*
X438150Y431800D03*
X450850Y457200D03*
X438150Y488950D03*
X450850Y514350D03*
X438150Y546100D03*
X450850Y571500D03*
X438150Y603250D03*
X450850Y628650D03*
X438150Y660400D03*
Y704850D03*
X469900Y742950D03*
X564750Y-1336080D03*
X556900Y-1234480D03*
X548180Y-1132880D03*
X545020Y-1072200D03*
X514350Y-850900D03*
X548980Y-796330D03*
X498180D03*
X535490Y-740370D03*
X495300Y-698500D03*
X527050Y-647700D03*
X533400Y-622300D03*
X514350Y-685800D03*
X552450Y-609600D03*
X552400Y-514300D03*
X533400Y-514350D03*
X524000Y-439000D03*
X543000Y-356000D03*
X505000Y-387000D03*
X562000Y-292000D03*
X543000Y-196000D03*
X562000Y-104000D03*
X505000Y-109000D03*
X523100Y-144320D03*
X543000Y-46000D03*
X552450Y38100D03*
X533400D03*
X495300D03*
X514350D03*
X505000Y98000D03*
X524000Y78000D03*
X543000Y98000D03*
X562000Y78000D03*
X501650Y412750D03*
X520700Y457200D03*
X539750Y488950D03*
X558800Y520700D03*
X508000Y533400D03*
Y590550D03*
X514350Y622300D03*
X555050Y655690D03*
X519120Y691620D03*
X546100Y742950D03*
X610560Y-1383300D03*
X574000Y-1362000D03*
X639190Y-1083200D03*
X572190Y-968970D03*
X591400Y-867370D03*
X599780Y-796330D03*
X585920Y-746550D03*
X619120Y-708100D03*
X584200Y-673100D03*
X590550Y-647700D03*
X571500Y-558800D03*
X628650Y-584200D03*
X590500Y-571450D03*
X609600Y-546100D03*
X571500Y-514350D03*
X628650D03*
X590500Y-514300D03*
X628650Y-444500D03*
X581000Y-407000D03*
X590550Y-457200D03*
X600000Y-336000D03*
X645350Y-348410D03*
X628650Y-241300D03*
X600000Y-182000D03*
X624700Y-144320D03*
X641350Y-57150D03*
X581000Y-79000D03*
X619760Y-42720D03*
X571500Y38100D03*
X622300Y57150D03*
X609600Y38100D03*
X590550D03*
X581000Y98000D03*
X600000Y74000D03*
X622300Y127000D03*
Y215900D03*
Y304800D03*
Y425450D03*
X600000Y570000D03*
X577850Y558800D03*
X622300Y527050D03*
Y615950D03*
X617300Y663220D03*
X590970Y619770D03*
X571500Y698500D03*
X617300Y742300D03*
X718680Y-1383300D03*
X666350Y-1336080D03*
X658500Y-1234480D03*
X649780Y-1132880D03*
X673550Y-973880D03*
X693000Y-867370D03*
X701380Y-796330D03*
X650580D03*
X704850Y-723900D03*
X654050Y-647700D03*
X659760Y-677620D03*
X710560D03*
X647650Y-596850D03*
Y-514300D03*
X665270Y-524170D03*
X657370Y-473980D03*
X713280Y-245920D03*
X670560Y-42720D03*
X767950Y-1336080D03*
X772000Y-1362000D03*
X760100Y-1234480D03*
X745390Y-1045720D03*
X772590Y-929240D03*
X748330Y-854670D03*
X752180Y-796330D03*
X800100Y-755650D03*
X736600Y-647700D03*
X761360Y-677620D03*
X766580Y-529630D03*
X770980Y-428030D03*
X787400Y-317500D03*
X726300Y-144320D03*
X772160Y-42720D03*
X817260Y-1383300D03*
X869550Y-1336080D03*
X861700Y-1234480D03*
X817230Y-1117560D03*
X831850Y-990600D03*
X818260Y-928320D03*
X849930Y-854670D03*
X853780Y-796330D03*
X802980D03*
X831850Y-647700D03*
X812160Y-677620D03*
X862960D03*
X868180Y-529630D03*
X872580Y-428030D03*
X869490Y-330530D03*
X865680Y-229080D03*
X827900Y-144320D03*
X873730Y-40970D03*
X912660Y-1383300D03*
X889070Y-1189400D03*
X916280Y-1072920D03*
X890110Y-1000170D03*
X898380Y-839400D03*
X927090Y-726010D03*
X891160Y-761940D03*
X927100Y-647700D03*
X913760Y-677620D03*
X946000Y-50000D03*
X926000D03*
X902000Y-36000D03*
X882650Y31750D03*
X924000Y34000D03*
X1011240Y-1383300D03*
X971150Y-1336080D03*
X970000Y-1362000D03*
X988120Y-1144760D03*
X961950Y-1072010D03*
X1028460Y-994840D03*
X977900Y-939800D03*
X1001570Y-879890D03*
X970230Y-767560D03*
X1022350Y-673100D03*
X990600Y-647700D03*
X963010Y-690090D03*
X1003300Y-673100D03*
X1022350Y-533400D03*
X1013000Y-516000D03*
X986830Y-481780D03*
X969780Y-529630D03*
X1003300Y-533400D03*
X986830Y-430980D03*
X986500Y-329380D03*
X986830Y-380180D03*
X1014000Y-386000D03*
X1016000Y-354000D03*
X1018000Y-250000D03*
X1025000Y-282000D03*
X1010000Y-268000D03*
X967280Y-231550D03*
X1012000Y-216000D03*
X967280Y-129950D03*
X1010000Y-112000D03*
X974000Y-36000D03*
X1010000D03*
X1009650Y-6350D03*
X974000Y34000D03*
X1072750Y-1336080D03*
X1059960Y-1216610D03*
X1105630Y-1215690D03*
X1033790Y-1143850D03*
X1049620Y-794640D03*
X1042070Y-695720D03*
X1054100Y-647700D03*
X1041400Y-673100D03*
X1032000Y-504000D03*
X1057870Y-515880D03*
X1041400Y-533400D03*
X1085370Y-422370D03*
X1032000Y-398000D03*
X1048000Y-364000D03*
X1074000Y-336000D03*
X1062000Y-327000D03*
X1044000D03*
X1076000Y-314000D03*
X1036000Y-266000D03*
X1087000Y-264000D03*
X1095000Y-175000D03*
X1056000Y-176000D03*
X1046000Y-188000D03*
X1080000Y-214000D03*
X1096000Y-92000D03*
Y-152000D03*
X1045000Y-155000D03*
X1102000Y-36000D03*
X1046000D03*
Y-70000D03*
X1060000Y-54000D03*
X1080000D03*
X1096000Y-68000D03*
X1046000Y34000D03*
X1116180Y-1383300D03*
X1174350Y-1336080D03*
X1170000Y-1362000D03*
X1133780Y-1286360D03*
X1154420Y-1201530D03*
X1111780Y-983020D03*
X1130280Y-884990D03*
X1148950Y-786450D03*
X1181100Y-647700D03*
X1111250D03*
X1140340Y-677620D03*
X1157570Y-529630D03*
X1136170Y-422870D03*
X1153000Y-326000D03*
X1140000D03*
X1121000Y-327000D03*
X1124000Y-372000D03*
X1136000Y-384000D03*
X1157000Y-374000D03*
X1178000Y-384000D03*
X1154000Y-276000D03*
X1166000Y-240000D03*
X1130000Y-264000D03*
X1180000Y-226000D03*
X1170000Y-198000D03*
X1120000Y-175000D03*
X1144000Y-214000D03*
X1130000Y-232000D03*
X1135000Y-160000D03*
X1168000Y-152000D03*
Y-100000D03*
X1118000Y-114000D03*
X1140000Y-65000D03*
X1168000Y-36000D03*
X1130000Y34000D03*
X1227480Y-1383300D03*
X1184570Y-1287150D03*
X1191020Y-1236760D03*
X1238250Y-1200150D03*
Y-1168400D03*
X1193800Y-1181100D03*
X1212850Y-1104900D03*
X1241420Y-1121370D03*
X1232570Y-1023500D03*
X1231900Y-1003300D03*
X1250950Y-901700D03*
X1241940Y-677620D03*
X1212850Y-558800D03*
X1250950Y-584200D03*
X1231900Y-571500D03*
X1193800Y-546100D03*
Y-476250D03*
X1208320Y-532020D03*
X1237770Y-422870D03*
X1239590Y-389930D03*
X1206000Y-383000D03*
X1203000Y-354000D03*
X1247000Y-346000D03*
X1198000Y-326000D03*
X1216000Y-328000D03*
X1234000Y-242000D03*
Y-280000D03*
X1190000D03*
X1208000Y-284000D03*
X1222000Y-196000D03*
X1254000Y-194000D03*
X1249000Y-148000D03*
X1240000Y-104000D03*
X1206500Y-95250D03*
X1206000Y-148000D03*
X1228000D03*
X1220000Y-55000D03*
X1234000Y-16000D03*
X1206000D03*
X1214000Y34000D03*
X1275950Y-1336080D03*
X1296000Y-1362000D03*
X1322000Y-1298000D03*
X1270000Y-1240000D03*
X1301750Y-1200150D03*
X1295400Y-1168400D03*
X1330890Y-1088430D03*
X1280090D03*
X1267730Y-986830D03*
X1315060Y-885230D03*
X1276390Y-918170D03*
X1327190D03*
X1270000Y-800100D03*
X1312050Y-783630D03*
X1275980Y-819410D03*
X1327170Y-714970D03*
X1289050Y-698500D03*
X1301750Y-647700D03*
X1314450Y-635000D03*
X1270000Y-596900D03*
X1295400Y-584200D03*
X1333500Y-577850D03*
X1327150Y-609600D03*
X1289050D03*
X1298000Y-492000D03*
X1327150Y-514350D03*
X1314450Y-495300D03*
X1295000Y-395000D03*
X1261000Y-325000D03*
X1305000Y-290000D03*
X1261000Y-284000D03*
X1306000Y-238000D03*
Y-194000D03*
X1284000Y-230000D03*
X1276000Y-148000D03*
X1304000D03*
X1324000D03*
X1318000Y-132000D03*
X1308000Y-106000D03*
X1270000Y-110000D03*
X1298000Y-16000D03*
X1272000D03*
X1286000Y-58000D03*
X1298000D03*
X1272000D03*
X1318000Y34000D03*
X1370580Y-1383300D03*
X1370880Y-1310920D03*
X1361040Y-1361040D03*
X1365250Y-1225550D03*
X1400000Y-1120000D03*
X1381240Y-1081680D03*
X1343020Y-1121370D03*
X1334030Y-1019770D03*
X1402000Y-1020000D03*
X1368880Y-980080D03*
X1365410Y-878480D03*
X1402000Y-916000D03*
X1362400Y-776880D03*
X1404000Y-816000D03*
X1402000Y-712000D03*
X1403350Y-615950D03*
X1332940Y-643180D03*
X1346200Y-482600D03*
X1397000Y-520700D03*
X1339370Y-422870D03*
X1385000Y-395000D03*
X1398210Y-348350D03*
X1350000Y-360000D03*
X1390710Y-294260D03*
X1346200Y-304800D03*
X1395000Y-245000D03*
X1340000Y-270000D03*
X1364220Y-273480D03*
X1389680Y-201920D03*
X1364220Y-197160D03*
X1341960D03*
X1404000Y-136000D03*
X1388000Y-118000D03*
X1352000Y-104000D03*
X1385000Y-10000D03*
X1404000Y-80000D03*
X1390000Y-64000D03*
X1336000Y-16000D03*
X1352000Y-64000D03*
X1336000Y-58000D03*
X1380620Y27300D03*
X1422400Y-1384300D03*
X1446000Y-1308000D03*
X1442720Y-1239080D03*
X1422000Y-1298000D03*
X1456730Y-1190240D03*
Y-1139440D03*
X1425380Y-1056520D03*
X1432000Y-954000D03*
X1462800Y-979440D03*
X1434000Y-852000D03*
X1462800Y-810900D03*
X1436000Y-752000D03*
X1434000Y-652000D03*
X1462800Y-658260D03*
Y-515160D03*
X1440970Y-422870D03*
X1452000Y-396000D03*
X1462800Y-435660D03*
X1434090Y-337200D03*
X1427300Y-236060D03*
X1410000Y-195000D03*
X1427000Y-163000D03*
X1427300Y-94330D03*
Y-145130D03*
X1409000Y-149000D03*
X1427300Y-43530D03*
X1434000Y34000D03*
X1422400Y838200D03*
X1486000Y-1234000D03*
X1510500Y-1243380D03*
Y-1163880D03*
X1486000Y-1120000D03*
Y-1020000D03*
Y-938000D03*
X1510500Y-979440D03*
X1486000Y-854000D03*
X1511300Y-863600D03*
X1486000Y-768000D03*
X1510500Y-734580D03*
X1486000Y-616000D03*
X1510500Y-585120D03*
X1486000Y-430000D03*
X1510500Y-422940D03*
G54D31*
X1216050Y-342600D03*
X1235050D03*
Y-368600D03*
X1225550D03*
X1216050D03*
G54D14*
X98400Y-698500D03*
X79400D03*
X98400Y-723900D03*
X79400D03*
X98400Y508000D03*
X79400D03*
X98400Y482600D03*
X79400D03*
X98400Y457200D03*
X79400D03*
Y533400D03*
X98400D03*
X79400Y558800D03*
X98400D03*
X79400Y584200D03*
X98400D03*
X79400Y609600D03*
X98400D03*
X339750Y361950D03*
Y444500D03*
Y387350D03*
Y419100D03*
Y501650D03*
Y476250D03*
Y558800D03*
Y590550D03*
Y533400D03*
Y615950D03*
Y673100D03*
Y647700D03*
Y704850D03*
X358750Y361950D03*
Y444500D03*
Y387350D03*
Y419100D03*
Y501650D03*
Y476250D03*
Y558800D03*
Y590550D03*
Y533400D03*
Y615950D03*
Y673100D03*
Y647700D03*
Y704850D03*
X1381100Y-1181100D03*
X1362100D03*
X1381100Y-1104900D03*
X1362100D03*
X1381100Y-1003300D03*
X1362100D03*
X1381100Y-901700D03*
X1362100D03*
X1381100Y-800100D03*
X1362100D03*
X1381100Y-698500D03*
X1362100D03*
X1381100Y-596900D03*
X1362100D03*
X1381100Y-495300D03*
X1362100D03*
G54D32*
X1254350Y-137000D03*
Y-132000D03*
Y-127000D03*
Y-122000D03*
Y-117000D03*
X1298350D03*
Y-122000D03*
Y-127000D03*
Y-132000D03*
Y-137000D03*
G54D23*
X228600Y-787400D03*
Y-774700D03*
Y-762000D03*
Y-749300D03*
Y-736600D03*
Y-723900D03*
Y-711200D03*
Y-698500D03*
Y-647700D03*
Y-635000D03*
Y-622300D03*
Y-685800D03*
Y-673100D03*
Y-609600D03*
Y-596900D03*
Y-584200D03*
Y-571500D03*
Y-558800D03*
Y-546100D03*
Y-533400D03*
X224500Y76200D03*
Y88900D03*
Y101600D03*
Y114300D03*
Y127000D03*
Y139700D03*
Y152400D03*
Y165100D03*
X321600Y-774700D03*
Y-787400D03*
Y-698500D03*
Y-711200D03*
Y-723900D03*
Y-736600D03*
Y-749300D03*
Y-762000D03*
Y-622300D03*
Y-635000D03*
Y-647700D03*
Y-673100D03*
Y-685800D03*
Y-546100D03*
Y-558800D03*
Y-571500D03*
Y-584200D03*
Y-596900D03*
Y-609600D03*
Y-533400D03*
X317500Y139700D03*
Y127000D03*
Y114300D03*
Y101600D03*
Y88900D03*
Y76200D03*
Y165100D03*
Y152400D03*
G54D33*
X1511300Y-1384300D03*
Y838200D03*
G54D24*
X222250Y361950D03*
Y419100D03*
Y444500D03*
Y387350D03*
Y476250D03*
Y501650D03*
X221150Y533400D03*
Y558800D03*
Y590550D03*
Y615950D03*
Y647700D03*
Y673100D03*
Y704850D03*
Y730250D03*
X312250Y361950D03*
Y444500D03*
Y419100D03*
Y387350D03*
Y501650D03*
Y476250D03*
X311150Y558800D03*
Y533400D03*
Y590550D03*
Y615950D03*
Y673100D03*
Y647700D03*
Y730250D03*
Y704850D03*
G54D15*
X85600Y-641850D03*
Y-602750D03*
Y-578350D03*
Y-539250D03*
X108200Y202700D03*
X76200D03*
X108200Y241800D03*
X76200D03*
X161800Y-883150D03*
Y-844050D03*
X158750Y-718550D03*
Y-642350D03*
Y-679450D03*
X117600Y-641850D03*
X158750Y-578850D03*
Y-603250D03*
X117600Y-602750D03*
Y-578350D03*
X158750Y-539750D03*
X117600Y-539250D03*
X193800Y-883150D03*
Y-844050D03*
X190750Y-718550D03*
Y-642350D03*
Y-679450D03*
Y-578850D03*
Y-603250D03*
Y-539750D03*
X565150Y-724900D03*
Y-685800D03*
X597150Y-724900D03*
Y-685800D03*
G54D34*
G01X25400Y-1344770D02*
Y-1333500D01*
G01D02*
Y-1322230D01*
G01X14130Y-1333500D02*
X25400D01*
G01D02*
X36670D01*
G01X25400Y-1319370D02*
Y-1308100D01*
G01Y-1293970D02*
Y-1282700D01*
G01D02*
Y-1271430D01*
G01X14130Y-1282700D02*
X25400D01*
G01D02*
X36670D01*
G01X25400Y-1268570D02*
Y-1257300D01*
G01D02*
Y-1246030D01*
G01X14130Y-1257300D02*
X25400D01*
G01D02*
X36670D01*
G01X25400Y-1308100D02*
Y-1296830D01*
G01X14130Y-1308100D02*
X25400D01*
G01D02*
X36670D01*
G01X25400Y-1217770D02*
Y-1206500D01*
G01D02*
Y-1195230D01*
G01X14130Y-1206500D02*
X25400D01*
G01D02*
X36670D01*
G01X25400Y-1192370D02*
Y-1181100D01*
G01D02*
Y-1169830D01*
G01X14130Y-1181100D02*
X25400D01*
G01D02*
X36670D01*
G01X25400Y-1166970D02*
Y-1155700D01*
G01Y-1116170D02*
Y-1104900D01*
G01X14130D02*
X25400D01*
G01D02*
X36670D01*
G01X25400Y-1141570D02*
Y-1130300D01*
G01D02*
Y-1119030D01*
G01X14130Y-1130300D02*
X25400D01*
G01D02*
X36670D01*
G01X25400Y-1155700D02*
Y-1144430D01*
G01X14130Y-1155700D02*
X25400D01*
G01D02*
X36670D01*
G01X0Y-1065370D02*
Y-1054100D01*
G01D02*
Y-1042830D01*
G01X-11270Y-1054100D02*
X0D01*
G01D02*
X11270D01*
G01X25400Y-1065370D02*
Y-1054100D01*
G01D02*
Y-1042830D01*
G01X14130Y-1054100D02*
X25400D01*
G01D02*
X36670D01*
G01X25400Y-1039970D02*
Y-1028700D01*
G01D02*
Y-1017430D01*
G01X14130Y-1028700D02*
X25400D01*
G01D02*
X36670D01*
G01X25400Y-1014570D02*
Y-1003300D01*
G01Y-1079500D02*
Y-1068230D01*
G01X14130Y-1079500D02*
X25400D01*
G01D02*
X36670D01*
G01X25400Y-989170D02*
Y-977900D01*
G01D02*
Y-966630D01*
G01X14130Y-977900D02*
X25400D01*
G01D02*
X36670D01*
G01X25400Y-963770D02*
Y-952500D01*
G01D02*
Y-941230D01*
G01X14130Y-952500D02*
X25400D01*
G01D02*
X36670D01*
G01X25400Y-938370D02*
Y-927100D01*
G01Y-1003300D02*
Y-992030D01*
G01X14130Y-1003300D02*
X25400D01*
G01D02*
X36670D01*
G01X25400Y-912970D02*
Y-901700D01*
G01D02*
Y-890430D01*
G01X14130Y-901700D02*
X25400D01*
G01D02*
X36670D01*
G01X25400Y-887570D02*
Y-876300D01*
G01X14130D02*
X25400D01*
G01D02*
X36670D01*
G01X25400Y-927100D02*
Y-915830D01*
G01X14130Y-927100D02*
X25400D01*
G01D02*
X36670D01*
G01X14130Y-825500D02*
X25400D01*
G01D02*
X36670D01*
G01X25400Y-800100D02*
Y-788830D01*
G01X14130Y-800100D02*
X25400D01*
G01D02*
X36670D01*
G01X25400Y-785970D02*
Y-774700D01*
G01Y-760570D02*
Y-749300D01*
G01X14130D02*
X25400D01*
G01D02*
X36670D01*
G01X14130Y-723900D02*
X25400D01*
G01D02*
X36670D01*
G01X25400Y-774700D02*
Y-763430D01*
G01X14130Y-774700D02*
X25400D01*
G01D02*
X36670D01*
G01X14130Y-673100D02*
X25400D01*
G01D02*
X36670D01*
G01X25400Y-647700D02*
Y-636430D01*
G01X14130Y-647700D02*
X25400D01*
G01D02*
X36670D01*
G01X25400Y-633570D02*
Y-622300D01*
G01X14130Y-698500D02*
X25400D01*
G01D02*
X36670D01*
G01X25400Y-608170D02*
Y-596900D01*
G01D02*
Y-585630D01*
G01X14130Y-596900D02*
X25400D01*
G01D02*
X36670D01*
G01X25400Y-582770D02*
Y-571500D01*
G01D02*
Y-560230D01*
G01X14130Y-571500D02*
X25400D01*
G01D02*
X36670D01*
G01X25400Y-557370D02*
Y-546100D01*
G01Y-622300D02*
Y-611030D01*
G01X14130Y-622300D02*
X25400D01*
G01D02*
X36670D01*
G01X25400Y-546100D02*
Y-534830D01*
G01X14130Y-546100D02*
X25400D01*
G01D02*
X36670D01*
G01X63500Y317500D02*
X15330D01*
G02X10840Y319360I0J6350D01*
G01X0Y330200D01*
G01Y457200D02*
X10840Y468040D01*
G02X15330Y469900I4490J-4490D01*
G01X35470D01*
G02X39960Y468040I0J-6350D01*
G01X50800Y457200D01*
G01X0Y482600D02*
X10840Y493440D01*
G02X15330Y495300I4490J-4490D01*
G01X35470D01*
G02X39960Y493440I0J-6350D01*
G01X50800Y482600D01*
G01X0Y508000D02*
X10840Y518840D01*
G02X15330Y520700I4490J-4490D01*
G01X35470D01*
G02X39960Y518840I0J-6350D01*
G01X50800Y508000D01*
G01X0Y558800D02*
X10840Y569640D01*
G02X15330Y571500I4490J-4490D01*
G01X35470D01*
G02X39960Y569640I0J-6350D01*
G01X50800Y558800D01*
G01X0Y533400D02*
X10840Y544240D01*
G02X15330Y546100I4490J-4490D01*
G01X35470D01*
G02X39960Y544240I0J-6350D01*
G01X50800Y533400D01*
G01X0Y584200D02*
X10840Y595040D01*
G02X15330Y596900I4490J-4490D01*
G01X35470D01*
G02X39960Y595040I0J-6350D01*
G01X50800Y584200D01*
G01X0Y609600D02*
X10840Y620440D01*
G02X15330Y622300I4490J-4490D01*
G01X35470D01*
G02X39960Y620440I0J-6350D01*
G01X50800Y609600D01*
G01Y-1065370D02*
Y-1054100D01*
G01D02*
Y-1042830D01*
G01X39530Y-1054100D02*
X50800D01*
G01D02*
X62070D01*
G01X85600Y-578350D02*
Y-602750D01*
G01X273050Y-501650D02*
X104230D01*
G03X99740Y-503510I0J-6350D01*
G01X87460Y-515790D01*
G03X85600Y-520280I4490J-4490D01*
G01Y-539250D01*
G01X88900Y321800D02*
X100570D01*
G02X105060Y319940I0J-6350D01*
G01X126770Y298230D01*
G01X63500Y317500D02*
X67220D01*
G03X71710Y319360I0J6350D01*
G01X72290Y319940D01*
G02X76780Y321800I4490J-4490D01*
G01X88900D01*
G01X50800Y330200D02*
X63500Y317500D01*
G01X88900Y304800D02*
Y292560D01*
G01X79400Y457200D02*
X50800D01*
G01X79400Y482600D02*
X50800D01*
G01X79400Y508000D02*
X50800D01*
G01X222250Y501650D02*
X205830D01*
G02X201340Y503510I0J6350D01*
G01X198710Y506140D01*
G03X194220Y508000I-4490J-4490D01*
G01X98400D01*
G01X222250Y387350D02*
X205830D01*
G02X201340Y389210I0J6350D01*
G01X135210Y455340D01*
G03X130720Y457200I-4490J-4490D01*
G01X98400D01*
G01X222250Y444500D02*
X205830D01*
G02X201340Y446360I0J6350D01*
G01X166960Y480740D01*
G03X162470Y482600I-4490J-4490D01*
G01X98400D01*
G01X79400Y558800D02*
X50800D01*
G01X79400Y533400D02*
X50800D01*
G01X79400Y584200D02*
X50800D01*
G01X221150Y615950D02*
X199480D01*
G03X194990Y614090I0J-6350D01*
G01X141560Y560660D01*
G02X137070Y558800I-4490J4490D01*
G01X98400D01*
G01X221150Y673100D02*
X205830D01*
G03X201340Y671240I0J-6350D01*
G01X116160Y586060D01*
G02X111670Y584200I-4490J4490D01*
G01X98400D01*
G01X221150Y558800D02*
X199480D01*
G03X194990Y556940I0J-6350D01*
G01X173310Y535260D01*
G02X168820Y533400I-4490J4490D01*
G01X98400D01*
G01X79400Y609600D02*
X50800D01*
G01X221150Y730250D02*
X205830D01*
G03X201340Y728390I0J-6350D01*
G01X186010Y713060D01*
G03X184150Y708570I4490J-4490D01*
G01Y688430D01*
G02X182290Y683940I-6350J0D01*
G01X109810Y611460D01*
G02X105320Y609600I-4490J4490D01*
G01X98400D01*
G01X179230Y-285750D02*
X190500D01*
G01X206700Y76320D02*
X198420D01*
G02X195000Y79740I0J3420D01*
G01Y80000D01*
G03X190400Y84600I-4600J0D01*
G01X184150D01*
G01X197390Y95400D02*
X196700D01*
X192360Y99740D01*
G03X187870Y101600I-4490J-4490D01*
G01X184150D01*
G01X177800Y203200D02*
Y219570D01*
G03X175940Y224060I-6350J0D01*
G01X170860Y229140D01*
G03X166370Y231000I-4490J-4490D01*
G01X155000D01*
G01X206700Y152400D02*
X190230D01*
G02X185740Y154260I0J6350D01*
G01X156860Y183140D01*
G02X155000Y187630I4490J4490D01*
G01Y231000D01*
G01X126770Y298230D02*
X133140Y291860D01*
G02X135000Y287370I-4490J-4490D01*
G01Y242630D01*
G03X136860Y238140I6350J0D01*
G01X142140Y232860D01*
G03X146630Y231000I4490J4490D01*
G01X155000D01*
G01X114300Y285750D02*
X120160Y291610D01*
Y291620D01*
X126770Y298230D01*
G01X155000Y249000D02*
Y261020D01*
G01X158750Y742950D02*
X177800D01*
G01X203200Y-789550D02*
X211200D01*
G03X213790Y-788480I4J3660D01*
G01X213800Y-788470D01*
G02X216390Y-787400I2586J-2590D01*
G01X228600D01*
G01D02*
X266700D01*
G01X203200Y-772550D02*
Y-763530D01*
G01X192680Y-772550D02*
X203200D01*
G01D02*
X213720D01*
G01X228600Y-654220D02*
Y-647700D01*
G01X215080D02*
X228600D01*
G01D02*
X242120D01*
G01X228600Y-673100D02*
X266700D01*
G01X228600Y-533400D02*
Y-526880D01*
G01X215080Y-533400D02*
X228600D01*
G01D02*
X242120D01*
G01X215900Y-297270D02*
Y-285750D01*
G01D02*
Y-274230D01*
G01X204380Y-285750D02*
X215900D01*
G01D02*
X227420D01*
G01X190500Y-297020D02*
Y-285750D01*
G01D02*
Y-274480D01*
G01Y-285750D02*
X201770D01*
G01X222250Y-49270D02*
Y-40250D01*
G01X211730D02*
X222250D01*
G01D02*
X232770D01*
G01X224500Y76200D02*
X224380Y76320D01*
X206700D01*
G01X224500Y88900D02*
X206700D01*
G01X228600Y254000D02*
X214660Y240060D01*
G03X212800Y235570I4490J-4490D01*
G01Y203200D01*
G01X224500Y152400D02*
X206700D01*
G01X224500Y165100D02*
X206700D01*
G01X222250Y361950D02*
X203200D01*
G01X222250Y419100D02*
X203200D01*
G01X222250Y476250D02*
X203200D01*
G01X215900Y576780D02*
Y582670D01*
G02X217760Y587160I6350J0D01*
G01X221150Y590550D01*
G01X215900Y519630D02*
Y525520D01*
G02X217760Y530010I6350J0D01*
G01X221150Y533400D01*
G01X215900Y633930D02*
Y639820D01*
G02X217760Y644310I6350J0D01*
G01X221150Y647700D01*
G01Y704850D02*
X217760Y701460D01*
G03X215900Y696970I4490J-4490D01*
G01Y691080D01*
G01X321600Y-787400D02*
X304800D01*
G01X321600Y-793920D02*
Y-787400D01*
G01D02*
X335120D01*
G01X266700D02*
X273050Y-781050D01*
G01X308080Y-673100D02*
X321600D01*
G01D02*
X335120D01*
G01X596900Y-660400D02*
X279400D01*
G01Y-641350D02*
X283890Y-645840D01*
G01X266700Y-673100D02*
X273050Y-666750D01*
G01X283890Y-645840D02*
G03X288380Y-647700I4490J4490D01*
G01X321600D01*
G01X317500Y-499500D02*
Y-490480D01*
G01X306980Y-499500D02*
X317500D01*
G01D02*
X328020D01*
G01X321600Y-533400D02*
X319360Y-531160D01*
G02X317500Y-526670I4490J4490D01*
G01Y-516500D01*
G01X279400Y-514350D02*
X281550Y-516500D01*
G01D02*
X317500D01*
G01X336550Y-49270D02*
Y-40250D01*
G01X326030D02*
X336550D01*
G01D02*
X347070D01*
G01X336550Y42300D02*
X322000D01*
G01X336550Y33280D02*
Y42300D01*
G01D02*
X347070D01*
G01X336550Y76200D02*
Y59300D01*
G01X317500Y88900D02*
X336550D01*
G01X317500D02*
X331020Y92960D01*
G01X317500Y88900D02*
X331020Y84840D01*
G01X361950Y66700D02*
X355030D01*
G02X350540Y68560I0J6350D01*
G01X344760Y74340D01*
G03X340270Y76200I-4490J-4490D01*
G01X336550D01*
G01X317500D02*
X336550D01*
G01X317500Y165100D02*
Y171620D01*
G01Y165100D02*
X331020D01*
G01X336550Y152400D02*
X438150D01*
G01X317500D02*
X336550D01*
G01X330200Y242730D02*
Y254000D01*
G01D02*
Y265270D01*
G01Y254000D02*
X341470D01*
G01X339750Y361950D02*
X312250D01*
G01X339750Y387350D02*
X312250D01*
G01X339750Y419100D02*
X312250D01*
G01X339750Y444500D02*
X312250D01*
G01X339750Y501650D02*
X312250D01*
G01X339750Y476250D02*
X312250D01*
G01X339750Y558800D02*
X311150D01*
G01X339750Y533400D02*
X311150D01*
G01X339750Y590550D02*
X311150D01*
G01X339750Y615950D02*
X311150D01*
G01X339750Y647700D02*
X311150D01*
G01X339750Y673100D02*
X311150D01*
G01X345300Y739750D02*
X326530D01*
G03X322040Y737890I0J-6350D01*
G01X316260Y732110D01*
G02X311770Y730250I-4490J4490D01*
G01X311150D01*
G01X339750Y704850D02*
X311150D01*
G01X381000Y66700D02*
X361950D01*
G01X355600Y254000D02*
Y225030D01*
X357150Y223480D01*
Y203200D01*
G01X404000Y170000D02*
X418400D01*
X419100Y169300D01*
G01X408580D02*
X419100D01*
G01Y206900D02*
X398480D01*
G03X393990Y205040I0J-6350D01*
G01X392150Y203200D01*
G01X408330Y224900D02*
X419100D01*
G01X408330Y216350D02*
X419100Y224900D01*
G01X358750Y361950D02*
X369770D01*
G01X358750Y351430D02*
Y361950D01*
G01D02*
Y372470D01*
G01X350480Y361950D02*
X358750D01*
G01Y419100D02*
X369770D01*
G01X358750Y408580D02*
Y419100D01*
G01D02*
Y429620D01*
G01X350480Y419100D02*
X358750D01*
G01Y476250D02*
X369770D01*
G01X358750Y465730D02*
Y476250D01*
G01D02*
Y486770D01*
G01X350480Y476250D02*
X358750D01*
G01Y533400D02*
X393700D01*
G01X358750Y590550D02*
X393700D01*
G01Y647700D02*
X358750D01*
G01Y704850D02*
X393700D01*
G01X444500Y-49270D02*
Y-40250D01*
G01X433980D02*
X444500D01*
G01D02*
X455020D01*
G01X419100Y160280D02*
Y169300D01*
G01Y186300D02*
Y206900D01*
G01X438150Y184150D02*
X436000Y186300D01*
G01D02*
X419100D01*
G01Y224900D02*
Y236920D01*
G01X597150Y-685800D02*
Y-660650D01*
X596900Y-660400D01*
G01D02*
X1413420D01*
G02X1417910Y-662260I0J-6350D01*
G01X1428750Y-673100D01*
G01X641350Y-49270D02*
Y-40250D01*
G01X630830D02*
X641350D01*
G01D02*
X651870D01*
G01X927100Y-16400D02*
X945650D01*
X946150Y-16900D01*
G01Y-42920D02*
Y-33900D01*
G01D02*
X956670D01*
G01X927100Y-43670D02*
Y-34400D01*
G01X916330D02*
X927100D01*
G01X1009650Y-320700D02*
Y-300600D01*
G01D02*
X1019900D01*
G02X1024390Y-302460I0J-6350D01*
G01X1024870Y-302940D01*
G03X1029360Y-304800I4490J4490D01*
G01X1034750D01*
G01X996950Y-298450D02*
X999100Y-300600D01*
G01D02*
X1009650D01*
G01Y-283600D02*
Y-274580D01*
G01Y-283600D02*
X1020170D01*
G01X1066800Y-419920D02*
Y-406400D01*
G01X1053280D02*
X1066800D01*
G01D02*
X1080320D01*
G01X1187450Y-311150D02*
Y-294730D01*
G03X1185590Y-290240I-6350J0D01*
G01X1182960Y-287610D01*
G03X1178470Y-285750I-4490J-4490D01*
G01X1139620D01*
X1139420Y-285550D01*
X1121180D01*
X1120980Y-285750D01*
X1054100D01*
G03X1047750Y-292100I0J-6350D01*
G01Y-298450D01*
G02X1041400Y-304800I-6350J0D01*
G01X1034750D01*
G01X1060750D02*
X1069770D01*
G01X1051730Y-307260D02*
X1060750Y-304800D01*
G01X1035050Y-259570D02*
Y-250300D01*
G01X1024280D02*
X1035050D01*
G01X1073150Y-199000D02*
X1085890D01*
G03X1090380Y-197140I0J6350D01*
G01X1090410Y-197110D01*
G02X1094900Y-195250I4490J-4490D01*
G01X1098550D01*
G01X1028700Y-196850D02*
X1030850Y-199000D01*
G01D02*
X1073150D01*
G01X1060450Y-169920D02*
Y-160900D01*
G01X1073150Y-182000D02*
Y-172980D01*
G01X1062630Y-182000D02*
X1073150D01*
G01D02*
X1083670D01*
G01X1079500Y-84700D02*
Y-90850D01*
G03X1081360Y-95340I6350J0D01*
G01X1083990Y-97970D01*
G02X1085850Y-102460I-4490J-4490D01*
G01Y-114300D01*
G03X1089100Y-117550I3250J0D01*
G01X1049930Y-160900D02*
X1060450D01*
G01X1028700Y-82550D02*
X1031350Y-85200D01*
G01D02*
X1060450D01*
G01X1079500Y-67700D02*
Y-58680D01*
G01Y-67700D02*
X1090020D01*
G01X1060450Y-67200D02*
Y-57930D01*
G01X1049680Y-67200D02*
X1060450D01*
G01X1162050Y-1308920D02*
Y-1295400D01*
G01D02*
Y-1281880D01*
G01X1148530Y-1295400D02*
X1162050D01*
G01D02*
X1175570D01*
G01X1168400Y-1274820D02*
Y-1265800D01*
G01D02*
X1178920D01*
G01X1162050Y-1225550D02*
Y-1239820D01*
G03X1163910Y-1244310I6350J0D01*
G01X1167400Y-1247800D01*
G01D02*
X1149350D01*
G01X1174750Y-462370D02*
Y-450850D01*
G01D02*
Y-439330D01*
G01X1163230Y-450850D02*
X1174750D01*
G01D02*
X1186270D01*
G01X1149350Y-462120D02*
Y-450850D01*
G01D02*
Y-439580D01*
G01X1138080Y-450850D02*
X1149350D01*
G01D02*
X1160620D01*
G01X1168400Y-339750D02*
X1185040D01*
G02X1187450Y-340750I2J-3400D01*
G01X1149350Y-322570D02*
Y-314300D01*
G01X1130300Y-323070D02*
Y-313800D01*
G01X1149350Y-367020D02*
Y-358750D01*
G01D02*
Y-350480D01*
G01X1130300Y-366770D02*
Y-357750D01*
G01D02*
X1140820Y-349480D01*
G01X1168400Y-314300D02*
X1181670D01*
G03X1186160Y-312440I0J6350D01*
G01X1187450Y-311150D01*
G01X1149350Y-314300D02*
Y-306030D01*
G01X1130300Y-313800D02*
X1141070Y-305250D01*
G01X1136650Y-260520D02*
Y-249250D01*
G01D02*
Y-237980D01*
G01Y-249250D02*
X1143170D01*
G01X1123950Y-260520D02*
Y-249250D01*
G01D02*
Y-237980D01*
G01Y-88900D02*
Y-92620D01*
G02X1122090Y-97110I-6350J0D01*
G01X1116510Y-102690D01*
G02X1112020Y-104550I-4490J4490D01*
G01X1123950Y-139700D02*
Y-135980D01*
G03X1122090Y-131490I-6350J0D01*
G01X1116510Y-125910D01*
G03X1112020Y-124050I-4490J-4490D01*
G01X1187450Y-340750D02*
X1208680D01*
X1210530Y-342600D01*
X1216050D01*
G01X1187450Y-311150D02*
Y-340750D01*
G01X1235050Y-377620D02*
Y-368600D01*
G01D02*
X1241570D01*
G01X1187450Y-366770D02*
Y-357750D01*
G01D02*
X1197970D01*
G01X1190000Y-204000D02*
Y-206330D01*
G01D02*
X1193220Y-209550D01*
X1206500D01*
G01X1187450Y-158750D02*
X1190650Y-161950D01*
G01D02*
X1219200D01*
G01X1250950Y-88900D02*
X1253600Y-91550D01*
G01X1314450Y-381820D02*
Y-368300D01*
G01D02*
Y-354780D01*
G01X1300930Y-368300D02*
X1314450D01*
G01D02*
X1327970D01*
G01X1282700Y-366770D02*
Y-357750D01*
G01D02*
X1293220D01*
G01X1322980Y-188090D02*
X1333500Y-180950D01*
G01X1276350Y-170220D02*
Y-161950D01*
G01Y-223070D02*
Y-209550D01*
G01D02*
X1289870D01*
G01X1257300Y-188970D02*
Y-179950D01*
G01X1252040Y-188600D02*
X1257300Y-179950D01*
G01X1314450Y-188970D02*
Y-179950D01*
G01X1303930D02*
X1314450D01*
G01X1296490Y-109040D02*
X1295400Y-107950D01*
G01X1276350Y-91550D02*
X1294900D01*
G01X1295400Y-107950D02*
Y-91050D01*
G01X1253600Y-91550D02*
X1276350D01*
G01Y-161950D02*
Y-153680D01*
G01Y-161950D02*
X1286870D01*
G01X1295400Y-74050D02*
Y-65030D01*
G01Y-74050D02*
X1300660Y-65400D01*
G01X1276350Y-73550D02*
Y-64280D01*
G01Y-73550D02*
X1287120Y-65000D01*
G01X1333500Y-189220D02*
Y-180950D01*
G01X1352550Y-80950D02*
Y-82550D01*
G02X1346200Y-88900I-6350J0D01*
G01X1345930D01*
X1344850Y-89980D01*
G02X1342260Y-91050I-2586J2590D01*
G01X1333500D01*
G01X1390650Y-92220D02*
Y-80950D01*
G01Y-146220D02*
Y-134950D01*
G01D02*
Y-123680D01*
G01Y-134950D02*
X1397170D01*
G01X1333500Y-74050D02*
Y-65030D01*
G01Y-74050D02*
X1344020D01*
G01X1390650Y-80950D02*
Y-69680D01*
G01Y-80950D02*
X1397170D01*
G01X1428750Y-1217770D02*
Y-1206500D01*
G01D02*
Y-1195230D01*
G01X1417480Y-1206500D02*
X1428750D01*
G01D02*
X1440020D01*
G01X1428750Y-1079500D02*
X1441450D01*
G03X1447800Y-1073150I0J6350D01*
G01Y-971550D01*
G01X1428750Y-977900D02*
X1438820D01*
G03X1443310Y-976040I0J6350D01*
G01X1447800Y-971550D01*
G01D02*
Y-869950D01*
G01X1428750Y-876300D02*
X1438820D01*
G03X1443310Y-874440I0J6350D01*
G01X1447800Y-869950D01*
G01D02*
Y-768350D01*
G01X1428750Y-774700D02*
X1438820D01*
G03X1443310Y-772840I0J6350D01*
G01X1447800Y-768350D01*
G01D02*
Y-682080D01*
G03X1445940Y-677590I-6350J0D01*
G01X1441450Y-673100D01*
G01X1447800Y-577850D02*
Y-664120D01*
G02X1445940Y-668610I-6350J0D01*
G01X1441450Y-673100D01*
G01D02*
X1428750D01*
G01Y-469900D02*
X1441450D01*
G02X1447800Y-476250I0J-6350D01*
G01Y-577850D01*
G01X1428750Y-571500D02*
X1438820D01*
G02X1443310Y-573360I0J-6350D01*
G01X1447800Y-577850D01*
G01X1409700Y-162450D02*
Y-153180D01*
G01Y-162450D02*
X1420470D01*
G54D16*
X85600Y-628650D03*
Y-615950D03*
Y-565150D03*
Y-552450D03*
X108200Y215900D03*
X76200D03*
X108200Y228600D03*
X76200D03*
X161800Y-869950D03*
Y-857250D03*
X158750Y-705350D03*
Y-629150D03*
Y-692650D03*
X117600Y-628650D03*
X158750Y-565650D03*
Y-552950D03*
Y-616450D03*
X117600Y-615950D03*
Y-552450D03*
Y-565150D03*
X193800Y-857250D03*
Y-869950D03*
X190750Y-705350D03*
Y-629150D03*
Y-692650D03*
Y-552950D03*
Y-565650D03*
Y-616450D03*
X565150Y-711700D03*
Y-699000D03*
X597150D03*
Y-711700D03*
G54D25*
X345300Y739750D03*
X368300Y749250D03*
Y730250D03*
G54D35*
G01X0Y-11270D02*
Y0D01*
G01D02*
Y11270D01*
G01X-11270Y0D02*
X0D01*
G01D02*
X11270D01*
G01X0Y14130D02*
Y25400D01*
G01D02*
Y36670D01*
G01X-11270Y25400D02*
X0D01*
G01D02*
X11270D01*
G01X101600Y-9870D02*
Y3900D01*
G01D02*
Y17670D01*
G01X87830Y3900D02*
X101600D01*
G01D02*
X115370D01*
G01X50800Y-11270D02*
Y0D01*
G01D02*
Y11270D01*
G01X39530Y0D02*
X50800D01*
G01D02*
X62070D01*
G01X50800Y14130D02*
Y25400D01*
G01D02*
Y36670D01*
G01X39530Y25400D02*
X50800D01*
G01D02*
X62070D01*
G01X165100Y-8520D02*
Y0D01*
G01D02*
Y8520D01*
G01X156580Y0D02*
X165100D01*
G01D02*
X173620D01*
G01X222250Y-23250D02*
Y-14230D01*
G01X211730Y-23250D02*
X222250D01*
G01D02*
X232770D01*
G01X336550D02*
Y-14230D01*
G01X326030Y-23250D02*
X336550D01*
G01D02*
X347070D01*
G01X444500D02*
Y-14230D01*
G01X433980Y-23250D02*
X444500D01*
G01D02*
X455020D01*
G01X641350D02*
Y-14230D01*
G01X630830Y-23250D02*
X641350D01*
G01D02*
X651870D01*
G01X865150Y-20520D02*
Y0D01*
G01D02*
Y20520D01*
G01X851630Y0D02*
X865150D01*
G01X900150Y-21520D02*
Y0D01*
G01X946150Y-16900D02*
Y-6880D01*
G01Y-16900D02*
X957670D01*
G01X927100Y-16400D02*
Y-6130D01*
G01X915330Y-16400D02*
X927100D01*
G01X900150Y0D02*
Y21520D01*
G01Y0D02*
X914670D01*
G01X1009650Y-15870D02*
Y-6350D01*
G01D02*
Y3170D01*
G01X1000130Y-6350D02*
X1009650D01*
G01D02*
X1019170D01*
G01X1321980Y-91050D02*
X1333500D01*
G01X1321980Y-86520D02*
X1333500Y-91050D01*
G54D17*
X101600Y46900D03*
Y3900D03*
X95250Y638900D03*
Y681900D03*
G54D26*
X542900Y-472300D03*
X552400Y-495300D03*
X533400D03*
X638150Y-472300D03*
X628650Y-495300D03*
X581000Y-472300D03*
X590500Y-495300D03*
X571500D03*
X647650D03*
G54D36*
G01X0Y-1079500D02*
X10840Y-1090340D01*
G03X15330Y-1092200I4490J4490D01*
G01X60870D01*
G02X65360Y-1094060I0J-6350D01*
G01X341040Y-1369740D01*
G03X345530Y-1371600I4490J4490D01*
G01X1362620D01*
G03X1367110Y-1369740I0J6350D01*
G01X1496740Y-1240110D01*
G03X1498600Y-1235620I-4490J4490D01*
G01Y-428080D01*
G03X1496740Y-423590I-6350J0D01*
G01X1354410Y-281260D01*
G02X1352550Y-276770I4490J4490D01*
G01Y-180450D01*
G01X0Y-850900D02*
X10840Y-861740D01*
G03X15330Y-863600I4490J4490D01*
G01X35470D01*
G03X39960Y-861740I0J6350D01*
G01X50800Y-850900D01*
G01X0Y-825500D02*
X10840Y-836340D01*
G03X15330Y-838200I4490J4490D01*
G01X35470D01*
G03X39960Y-836340I0J6350D01*
G01X50800Y-825500D01*
G01X161800Y-857250D02*
X110580D01*
G02X106090Y-855390I0J6350D01*
G01X65360Y-814660D01*
G03X60870Y-812800I-4490J-4490D01*
G01X15330D01*
G02X10840Y-810940I0J6350D01*
G01X0Y-800100D01*
G01X158750Y-718550D02*
X147680D01*
G03X143190Y-720410I0J-6350D01*
G01X128860Y-734740D01*
G02X124370Y-736600I-4490J4490D01*
G01X15330D01*
G02X10840Y-734740I0J6350D01*
G01X0Y-723900D01*
G01X158750Y-705350D02*
X148680D01*
G03X144190Y-707210I0J-6350D01*
G01X142060Y-709340D01*
G02X137570Y-711200I-4490J4490D01*
G01X15330D01*
G02X10840Y-709340I0J6350D01*
G01X0Y-698500D01*
G01X158750Y-679450D02*
X148680D01*
G02X144190Y-677590I0J6350D01*
G01X128860Y-662260D01*
G03X124370Y-660400I-4490J-4490D01*
G01X15330D01*
G02X10840Y-658540I0J6350D01*
G01X0Y-647700D01*
G01X158750Y-692650D02*
X148680D01*
G02X144190Y-690790I0J6350D01*
G01X141060Y-687660D01*
G03X136570Y-685800I-4490J-4490D01*
G01X15330D01*
G02X10840Y-683940I0J6350D01*
G01X0Y-673100D01*
G01X50800Y203200D02*
X39960Y192360D01*
G02X35470Y190500I-4490J4490D01*
G01X15330D01*
G02X10840Y192360I0J6350D01*
G01X0Y203200D01*
G01X50800Y177800D02*
X39960Y166960D01*
G02X35470Y165100I-4490J4490D01*
G01X15330D01*
G02X10840Y166960I0J6350D01*
G01X0Y177800D01*
G01X50800Y152400D02*
X39960Y141560D01*
G02X35470Y139700I-4490J4490D01*
G01X15330D01*
G02X10840Y141560I0J6350D01*
G01X0Y152400D01*
G01X76200Y215900D02*
X-12700D01*
G02X-19050Y222250I0J6350D01*
G01Y247650D01*
G02X-12700Y254000I6350J0D01*
G01X0D01*
G01X50800D02*
X39960Y264840D01*
G03X35470Y266700I-4490J-4490D01*
G01X15330D01*
G03X10840Y264840I0J-6350D01*
G01X0Y254000D01*
G01X50800Y279400D02*
X39960Y290240D01*
G03X35470Y292100I-4490J-4490D01*
G01X15330D01*
G03X10840Y290240I0J-6350D01*
G01X0Y279400D01*
G01X50800Y228600D02*
X39960Y239440D01*
G03X35470Y241300I-4490J-4490D01*
G01X15330D01*
G03X10840Y239440I0J-6350D01*
G01X0Y228600D01*
G01X50800Y-1079500D02*
X79920D01*
G02X84410Y-1081360I0J-6350D01*
G01X353740Y-1350690D01*
G03X358230Y-1352550I4490J4490D01*
G01X1349920D01*
G03X1354410Y-1350690I0J6350D01*
G01X1471340Y-1233760D01*
G03X1473200Y-1229270I-4490J4490D01*
G01Y-434430D01*
G03X1471340Y-429940I-6350J0D01*
G01X1449660Y-408260D01*
G03X1445170Y-406400I-4490J-4490D01*
G01X1104900D01*
G01X161800Y-883150D02*
X85680D01*
G02X81190Y-881290I0J6350D01*
G01X50800Y-850900D01*
G01X161800Y-869950D02*
X97880D01*
G02X93390Y-868090I0J6350D01*
G01X50800Y-825500D01*
G01X161800Y-844050D02*
X116430D01*
G02X111940Y-842190I0J6350D01*
G01X71710Y-801960D01*
G03X67220Y-800100I-4490J-4490D01*
G01X50800D01*
G01X98400Y-723900D02*
X114300D01*
G01X50800D02*
X79400D01*
G01X50800Y-698500D02*
X79400D01*
G01X85600Y-628650D02*
Y-641850D01*
G01Y-615950D02*
Y-628650D01*
G01X98400Y-698500D02*
X133350D01*
G01X85600Y-602750D02*
Y-615950D01*
G01Y-565150D02*
Y-578350D01*
G01Y-552450D02*
Y-565150D01*
G01Y-539250D02*
Y-552450D01*
G01X114300Y123850D02*
X95250D01*
G01X114300Y142850D02*
Y149770D01*
G03X112440Y154260I-6350J0D01*
G01X97110Y169590D01*
G02X95250Y174080I4490J4490D01*
G01Y223920D01*
G02X99930Y228600I4680J0D01*
G01X108200D01*
G01X95250Y142850D02*
Y149790D01*
G03X93390Y154280I-6350J0D01*
G01X90760Y156910D01*
G02X88900Y161400I4490J4490D01*
G01Y232320D01*
G02X90760Y236810I6350J0D01*
G01X93890Y239940D01*
G02X98380Y241800I4490J-4490D01*
G01X108200D01*
G01X76200Y202700D02*
X61580D01*
X61080Y203200D01*
X50800D01*
G01X76200Y241800D02*
Y264070D01*
G03X74340Y268560I-6350J0D01*
G01X65360Y277540D01*
G03X60870Y279400I-4490J-4490D01*
G01X50800D01*
G01X76200Y228600D02*
X50800D01*
G01X1022350Y-673100D02*
X871810Y-823640D01*
G02X867320Y-825500I-4490J4490D01*
G01X114300D01*
G01X1003300Y-673100D02*
X865460Y-810940D01*
G02X860970Y-812800I-4490J4490D01*
G01X133350D01*
G01X158750Y-629150D02*
X140200D01*
G01X117600Y-628650D02*
X132180D01*
X132680Y-629150D01*
X140200D01*
G01X158750Y-642350D02*
X134350D01*
G01X117600Y-641850D02*
X126330D01*
X126830Y-642350D01*
X134350D01*
G01X158750Y-603250D02*
X139700D01*
G01X117600Y-602750D02*
X131680D01*
X132180Y-603250D01*
X139700D01*
G01X158750Y-616450D02*
X133850D01*
G01X117600Y-615950D02*
X133350D01*
X133850Y-616450D01*
G01X158750Y-552950D02*
X133850D01*
G01X117600Y-552450D02*
X133350D01*
X133850Y-552950D01*
G01X117600Y-578350D02*
X132850D01*
X133350Y-577850D01*
G01X158750Y-578850D02*
X141870D01*
X140870Y-577850D01*
X133350D01*
G01X117600Y-565150D02*
X139700D01*
G01X158750Y-565650D02*
X147720D01*
X147220Y-565150D01*
X139700D01*
G01X158750Y-539750D02*
X139700D01*
G01X117600Y-539250D02*
X131680D01*
X132180Y-539750D01*
X139700D01*
G01X224500Y127000D02*
X186780D01*
G02X182290Y128860I0J6350D01*
G01X128860Y182290D01*
G02X127000Y186780I4490J4490D01*
G01Y215440D01*
G03X125140Y219930I-6350J0D01*
G01X118330Y226740D01*
G03X113840Y228600I-4490J-4490D01*
G01X108200D01*
G01Y215900D02*
X116470D01*
G02X120650Y211720I0J-4180D01*
G01Y180430D01*
G03X122510Y175940I6350J0D01*
G01X175940Y122510D01*
G03X180430Y120650I4490J4490D01*
G01X194220D01*
G02X198710Y118790I0J-6350D01*
G01X201340Y116160D01*
G03X205830Y114300I4490J4490D01*
G01X224500D01*
G01X108200Y202700D02*
Y179290D01*
G03X110060Y174800I6350J0D01*
G01X168700Y116160D01*
G03X173190Y114300I4490J4490D01*
G01X188770D01*
G02X193260Y112440I0J-6350D01*
G01X202240Y103460D01*
G03X206730Y101600I4490J4490D01*
G01X224500D01*
G01X184150Y84600D02*
X177260D01*
G02X172770Y86460I0J6350D01*
G01X166910Y92320D01*
G02X165050Y96810I4490J4490D01*
G01Y107370D01*
G03X163190Y111860I-6350J0D01*
G01X153060Y121990D01*
G03X148570Y123850I-4490J-4490D01*
G01X114300D01*
G01X224500Y139700D02*
X186780D01*
G02X182290Y141560I0J6350D01*
G01X135210Y188640D01*
G02X133350Y193130I4490J4490D01*
G01Y222290D01*
G03X131490Y226780I-6350J0D01*
G01X118330Y239940D01*
G03X113840Y241800I-4490J-4490D01*
G01X108200D01*
G01X381000Y-869950D02*
X193800D01*
G01X419100Y-882650D02*
X202570D01*
X202070Y-883150D01*
X193800D01*
G01X361950Y-857250D02*
X193800D01*
G01X400050Y-844550D02*
X202570D01*
X202070Y-844050D01*
X193800D01*
G01X228600Y-711200D02*
X211680D01*
G02X207190Y-709340I0J6350D01*
G01X205060Y-707210D01*
G03X200570Y-705350I-4490J-4490D01*
G01X190750D01*
G01X228600Y-723900D02*
X211180D01*
G02X206690Y-722040I0J6350D01*
G01X205060Y-720410D01*
G03X200570Y-718550I-4490J-4490D01*
G01X190750D01*
G01X228600Y-698500D02*
X211680D01*
G02X207190Y-696640I0J6350D01*
G01X205060Y-694510D01*
G03X200570Y-692650I-4490J-4490D01*
G01X190750D01*
G01X228600Y-685800D02*
X212180D01*
G02X207690Y-683940I0J6350D01*
G01X205060Y-681310D01*
G03X200570Y-679450I-4490J-4490D01*
G01X190750D01*
G01X228600Y-622300D02*
X212180D01*
G03X207690Y-624160I0J-6350D01*
G01X204500Y-627350D01*
G02X201360Y-628650I-3139J3140D01*
G01X199520D01*
X199020Y-629150D01*
X190750D01*
G01X228600Y-635000D02*
X212180D01*
G03X207690Y-636860I0J-6350D01*
G01X204320Y-640230D01*
G02X201610Y-641350I-2706J2710D01*
G01X200020D01*
X199020Y-642350D01*
X190750D01*
G01X228600Y-558800D02*
X211680D01*
G02X207190Y-556940I0J6350D01*
G01X205060Y-554810D01*
G03X200570Y-552950I-4490J-4490D01*
G01X190750D01*
G01X228600Y-571500D02*
X211680D01*
G02X207190Y-569640I0J6350D01*
G01X205060Y-567510D01*
G03X200570Y-565650I-4490J-4490D01*
G01X190750D01*
G01X228600Y-584200D02*
X211180D01*
G02X206690Y-582340I0J6350D01*
G01X205060Y-580710D01*
G03X200570Y-578850I-4490J-4490D01*
G01X190750D01*
G01X228600Y-596900D02*
X212180D01*
G03X207690Y-598760I0J-6350D01*
G01X205060Y-601390D01*
G02X200570Y-603250I-4490J4490D01*
G01X190750D01*
G01X228600Y-609600D02*
X212180D01*
G03X207690Y-611460I0J-6350D01*
G01X204500Y-614650D01*
G02X201360Y-615950I-3139J3140D01*
G01X199520D01*
X199020Y-616450D01*
X190750D01*
G01X228600Y-546100D02*
X212180D01*
G02X207690Y-544240I0J6350D01*
G01X205060Y-541610D01*
G03X200570Y-539750I-4490J-4490D01*
G01X190750D01*
G01X457200Y-711200D02*
X321600D01*
G01Y-723900D02*
X476250D01*
G01X321600Y-635000D02*
X1314450D01*
G01X495300Y-698500D02*
X321600D01*
G01X514350Y-685800D02*
X321600D01*
G01Y-596900D02*
X654050D01*
G01X321600Y-558800D02*
X571500D01*
G01X321600Y-584200D02*
X628650D01*
G01X552450Y-609600D02*
X321600D01*
G01X590500Y-571450D02*
X563930D01*
X563880Y-571500D01*
X321600D01*
G01X533400Y-622300D02*
X321600D01*
G01Y-546100D02*
X609600D01*
G01X317500Y114300D02*
X381000D01*
G01X317500Y101600D02*
X361950D01*
G01X317500Y127000D02*
X400050D01*
G01X317500Y139700D02*
X419100D01*
G01X381000Y85700D02*
Y114300D01*
G01X361950Y85700D02*
Y101600D01*
G01X358750Y387350D02*
X441870D01*
G02X446360Y385490I0J-6350D01*
G01X474390Y357460D01*
G02X476250Y352970I-4490J-4490D01*
G01Y38100D01*
G01X358750Y444500D02*
X441870D01*
G02X446360Y442640I0J-6350D01*
G01X493440Y395560D01*
G02X495300Y391070I-4490J-4490D01*
G01Y38100D01*
G01X514350D02*
Y429170D01*
G03X512490Y433660I-6350J0D01*
G01X446360Y499790D01*
G03X441870Y501650I-4490J-4490D01*
G01X358750D01*
G01Y558800D02*
X441870D01*
G02X446360Y556940I0J-6350D01*
G01X531540Y471760D01*
G02X533400Y467270I-4490J-4490D01*
G01Y38100D01*
G01X358750Y615950D02*
X441870D01*
G02X446360Y614090I0J-6350D01*
G01X550590Y509860D01*
G02X552450Y505370I-4490J-4490D01*
G01Y38100D01*
G01X571500D02*
Y543470D01*
G03X569640Y547960I-6350J0D01*
G01X446360Y671240D01*
G03X441870Y673100I-4490J-4490D01*
G01X358750D01*
G01X368300Y730250D02*
X454570D01*
G02X459060Y728390I0J-6350D01*
G01X607740Y579710D01*
G02X609600Y575220I-4490J-4490D01*
G01Y38100D01*
G01X590550D02*
Y568870D01*
G03X588690Y573360I-6350J0D01*
G01X446360Y715690D01*
G03X441870Y717550I-4490J-4490D01*
G01X342900D01*
G03X339750Y714400I0J-3150D01*
G01Y704850D01*
G01X1041400Y-673100D02*
X878160Y-836340D01*
G02X873670Y-838200I-4490J4490D01*
G01X457200D01*
G01X476250Y-723900D02*
X555880D01*
X556880Y-724900D01*
X565150D01*
G01X514350Y-850900D02*
X714920D01*
G02X719410Y-852760I0J-6350D01*
G01X1131590Y-1264940D01*
G03X1136080Y-1266800I4490J4490D01*
G01X1149350D01*
G01X495300Y-698500D02*
X556380D01*
X556880Y-699000D01*
X565150D01*
G01X514350Y-685800D02*
X565150D01*
G01X1289050Y-609600D02*
X552450D01*
G01X533400Y-622300D02*
X1299250D01*
G03X1301750Y-619800I0J2500D01*
G01Y-603250D01*
G02X1308100Y-596900I6350J0D01*
G01X1362100D01*
G01X552400Y-495300D02*
Y-514300D01*
G01X533400Y-495300D02*
Y-514350D01*
G01X581000Y-472300D02*
X542900D01*
G01X597150Y-711700D02*
Y-724900D01*
G01Y-699000D02*
Y-711700D01*
G01Y-685800D02*
Y-699000D01*
G01X571500Y-558800D02*
X1212850D01*
G01X628650Y-584200D02*
X1250950D01*
G01X590500Y-571450D02*
X598590D01*
X1231900Y-571500D01*
G01X571500Y-495300D02*
Y-514350D01*
G01X628650Y-495300D02*
Y-514350D01*
G01X590500Y-495300D02*
Y-514300D01*
G01X609600Y-546100D02*
X1193800D01*
G01X590550Y-457200D02*
Y-472280D01*
X590530Y-472300D01*
G01X638150D02*
X590530D01*
G01D02*
X581000D01*
G01X654050Y-596900D02*
X1270000D01*
G01X647650Y-596850D02*
X654000D01*
X654050Y-596900D01*
G01X647650Y-495300D02*
Y-514300D01*
G01X1003300Y-533400D02*
Y-383630D01*
G02X1005160Y-379140I6350J0D01*
G01X1032890Y-351410D01*
G03X1034750Y-346920I-4490J4490D01*
G01Y-336550D01*
G01X1009650Y-339700D02*
X1028970D01*
G03X1033460Y-337840I0J6350D01*
G01X1034750Y-336550D01*
G01X1111250Y-357750D02*
Y-368300D01*
G02X1104900Y-374650I-6350J0D01*
G01X1044030D01*
G03X1039540Y-376510I0J-6350D01*
G01X1024210Y-391840D01*
G03X1022350Y-396330I4490J-4490D01*
G01Y-533400D01*
G01X1168400Y-393700D02*
X1132930D01*
G02X1128440Y-391840I0J6350D01*
G01X1125810Y-389210D01*
G03X1121320Y-387350I-4490J-4490D01*
G01X1056730D01*
G03X1052240Y-389210I0J-6350D01*
G01X1043260Y-398190D01*
G03X1041400Y-402680I4490J-4490D01*
G01Y-533400D01*
G01X1092200Y-321570D02*
Y-340750D01*
G01Y-321570D02*
Y-314300D01*
G01Y-321570D02*
X1091780Y-321990D01*
G02X1087290Y-323850I-4490J4490D01*
G01X1075430D01*
G02X1070940Y-321990I0J6350D01*
G01X1065020Y-316070D01*
G03X1060750Y-314300I-4268J-4260D01*
G01X1092200Y-357750D02*
X1082990D01*
G02X1080400Y-356680I-4J3660D01*
G01X1080390Y-356670D01*
G03X1077800Y-355600I-2586J-2590D01*
G01X1066800D01*
G01X1034750Y-314300D02*
Y-336550D01*
G01X1123950Y-195250D02*
Y-206920D01*
G02X1122090Y-211410I-6350J0D01*
G01X1107230Y-226270D01*
G02X1102740Y-228130I-4490J4490D01*
G01X1100700D01*
G03X1096210Y-229990I0J-6350D01*
G01X1076990Y-249210D01*
G02X1073150Y-250800I-3839J3840D01*
G01X1054100D02*
X1073150D01*
G01X1111250Y-314300D02*
Y-307030D01*
G03X1109020Y-304800I-2230J0D01*
G01X1082130D01*
G02X1077640Y-302940I0J6350D01*
G01X1071860Y-297160D01*
G03X1067370Y-295300I-4490J-4490D01*
G01X1060750D01*
G01X1092200D02*
X1111250D01*
G01X1034750D02*
Y-289780D01*
X1035050Y-289480D01*
Y-287610D01*
G02X1036370Y-284430I4490J0D01*
G01X1045890Y-274910D01*
G02X1050380Y-273050I4490J-4490D01*
G01X1140370D01*
G03X1144860Y-271190I0J6350D01*
G01X1153840Y-262210D01*
G03X1155700Y-257720I-4490J4490D01*
G01Y-211410D01*
G03X1153840Y-206920I-6350J0D01*
G01X1144030Y-197110D01*
G03X1139540Y-195250I-4490J-4490D01*
G01X1136650D01*
G01X1111250D02*
Y-202890D01*
G02X1109390Y-207380I-6350J0D01*
G01X1101610Y-215160D01*
G02X1097120Y-217020I-4490J4490D01*
G01X1092810D01*
G03X1088320Y-218880I0J-6350D01*
G01X1076990Y-230210D01*
G02X1073150Y-231800I-3839J3840D01*
G01X1035050Y-232300D02*
X1053600D01*
X1054100Y-231800D01*
G01X1111250Y-195250D02*
Y-180430D01*
G03X1109390Y-175940I-6350J0D01*
G01X1096210Y-162760D01*
G03X1091720Y-160900I-4490J-4490D01*
G01X1079500D01*
G01X1057500Y-104550D02*
X1067120D01*
G02X1071610Y-106410I0J-6350D01*
G01X1077640Y-112440D01*
G02X1079500Y-116930I-4490J-4490D01*
G01Y-118020D01*
G03X1081360Y-122510I6350J0D01*
G01X1166540Y-207690D01*
G02X1168400Y-212180I-4490J-4490D01*
G01Y-225970D01*
G03X1170260Y-230460I6350J0D01*
G01X1223690Y-283890D01*
G02X1225550Y-288380I-4490J-4490D01*
G01Y-295300D01*
G01X1057500Y-124050D02*
Y-130850D01*
G03X1058970Y-134400I5020J-1D01*
G02X1060450Y-137970I-3560J-3568D01*
G01Y-143900D01*
G01X1089100Y-117550D02*
X1101500D01*
G01X1060450Y-85200D02*
Y-93470D01*
G02X1056410Y-97510I-4040J0D01*
G01X1049490D01*
G03X1045490Y-101510I0J-4000D01*
G01Y-110050D01*
G03X1046490Y-111050I1000J0D01*
G01X1057500D01*
G01X1079500Y-143900D02*
Y-135980D01*
G03X1077640Y-131490I-6350J0D01*
G01X1074410Y-128260D01*
G02X1073150Y-125220I3030J3037D01*
G01Y-123430D01*
G03X1067270Y-117550I-5880J0D01*
G01X1057500D01*
G01X1079500Y-84700D02*
X1060950D01*
X1060450Y-85200D01*
G01X1167400Y-1247800D02*
X1168400Y-1248800D01*
G01X1149350Y-339750D02*
X1132710D01*
G03X1130300Y-340750I-2J-3400D01*
G01D02*
X1122550Y-348500D01*
X1121740D01*
X1119550Y-350690D01*
Y-351500D01*
G02X1113300Y-357750I-6250J0D01*
G01X1111250D01*
G01Y-314300D02*
Y-340750D01*
G01X1168400Y-393700D02*
X1210220D01*
G03X1214710Y-391840I0J6350D01*
G01X1223690Y-382860D01*
G03X1225550Y-378370I-4490J4490D01*
G01Y-368600D01*
G01X1168400Y-358750D02*
Y-393700D01*
G01X1111250Y-249250D02*
Y-257850D01*
G02X1108750Y-260350I-2500J0D01*
G01X1101050D01*
G02X1098550Y-257850I0J2500D01*
G01Y-249250D01*
G01X1149350Y-295300D02*
X1168400D01*
G01X1130300Y-295800D02*
X1148850D01*
X1149350Y-295300D01*
G01X1111250D02*
X1129800D01*
X1130300Y-295800D01*
G01X1118000Y-114000D02*
X1116910Y-112910D01*
G03X1112420Y-111050I-4490J-4490D01*
G01D02*
X1101500D01*
G01X1112020Y-104550D02*
X1101500D01*
G01X1112020Y-124050D02*
X1101500D01*
G01X1193800Y-1181100D02*
X1362100D01*
G01X1212850Y-1104900D02*
X1362100D01*
G01X1231900Y-1003300D02*
X1362100D01*
G01X1244600Y-314300D02*
Y-321220D01*
G02X1242740Y-325710I-6350J0D01*
G01X1236910Y-331540D01*
G03X1235050Y-336030I4490J-4490D01*
G01Y-342600D01*
G01X1225550Y-368600D02*
Y-355600D01*
G01D02*
Y-314300D01*
G01Y-355600D02*
X1242380D01*
G02X1246170Y-357170I4J-5350D01*
G03X1249980Y-358750I3808J3800D01*
G01X1263650D01*
G01X1254350Y-127000D02*
X1267370D01*
G02X1271860Y-128860I0J-6350D01*
G01X1293540Y-150540D01*
G02X1295400Y-155030I-4490J-4490D01*
G01Y-232320D01*
G02X1293540Y-236810I-6350J0D01*
G01X1246460Y-283890D01*
G03X1244600Y-288380I4490J-4490D01*
G01Y-295300D01*
G01X1238250Y-209550D02*
X1252390D01*
G03X1256880Y-207690I0J6350D01*
G01X1274490Y-190080D01*
G03X1276350Y-185590I-4490J4490D01*
G01Y-180950D01*
G01X1238250Y-179950D02*
Y-209550D01*
G01X1219200Y-180950D02*
X1235840D01*
G03X1238250Y-179950I2J3400D01*
G01X1254350Y-132000D02*
X1232980D01*
G02X1230150Y-130830I-3J4000D01*
G01X1230140Y-130820D01*
G03X1227310Y-129650I-2827J-2830D01*
G01X1219200D01*
G01X1238250Y-162950D02*
X1257300D01*
G01X1238250D02*
Y-139700D01*
G02X1240950Y-137000I2700J0D01*
G01X1254350D01*
G01X1219200Y-111650D02*
X1226620D01*
G02X1231110Y-113510I0J-6350D01*
G01X1237740Y-120140D01*
G03X1242230Y-122000I4490J4490D01*
G01X1254350D01*
G01X1244600Y-114300D02*
X1245440Y-115140D01*
G03X1249930Y-117000I4490J4490D01*
G01X1254350D01*
G01X1250950Y-901700D02*
X1362100D01*
G01X1270000Y-800100D02*
X1362100D01*
G01X1289050Y-698500D02*
X1362100D01*
G01X1314450Y-495300D02*
X1362100D01*
G01X1282700Y-340750D02*
X1295100D01*
G03X1299590Y-338890I0J6350D01*
G01X1300070Y-338410D01*
G02X1304560Y-336550I4490J-4490D01*
G01X1314450D01*
G01X1263650Y-339750D02*
X1280290D01*
G02X1282700Y-340750I2J-3400D01*
G01X1352550Y-114300D02*
X1329780D01*
G03X1325290Y-116160I0J-6350D01*
G01X1321310Y-120140D01*
G02X1316820Y-122000I-4490J4490D01*
G01X1298350D01*
G01X1314450Y-162950D02*
Y-145960D01*
G03X1312590Y-141470I-6350J0D01*
G01X1309980Y-138860D01*
G03X1305490Y-137000I-4490J-4490D01*
G01X1298350D01*
G01Y-117000D02*
Y-113530D01*
G03X1296490Y-109040I-6350J0D01*
G01X1294900Y-91550D02*
X1295400Y-91050D01*
G01X1298350Y-127000D02*
X1291210D01*
G02X1286720Y-125140I0J6350D01*
G01X1282700Y-121120D01*
G01D02*
Y-127000D01*
G03X1287700Y-132000I5000J0D01*
G01X1298350D01*
G01X1295400Y-107950D02*
X1289050D01*
G03X1282700Y-114300I0J-6350D01*
G01Y-121120D01*
G01X1257300Y-107950D02*
X1256210Y-109040D01*
G01D02*
G03X1254350Y-113530I4490J-4490D01*
G01Y-117000D01*
G01X1381100Y-1181100D02*
X1428750D01*
G01X1381100Y-1104900D02*
X1428750D01*
G01X1381100Y-1003300D02*
X1428750D01*
G01X1381100Y-901700D02*
X1428750D01*
G01X1381100Y-800100D02*
X1428750D01*
G01X1381100Y-698500D02*
X1428750D01*
G01X1381100Y-596900D02*
X1428750D01*
G01X1381100Y-495300D02*
X1428750D01*
G01X1390650Y-180950D02*
X1409200D01*
X1409700Y-180450D01*
G01X1371600Y-180950D02*
X1371650D01*
X1390650Y-161950D01*
G01X1352550Y-162450D02*
X1371100D01*
X1371600Y-161950D01*
G01X1352550Y-134950D02*
Y-162450D01*
G01X1377950Y-134950D02*
Y-120650D01*
G03X1371600Y-114300I-6350J0D01*
G01X1352550D01*
G01D02*
X1335360Y-131490D01*
G03X1333500Y-135980I4490J-4490D01*
G01Y-161950D01*
G01X1365250Y-134950D02*
Y-146050D01*
G03X1371600Y-152400I6350J0D01*
G01X1388370D01*
G02X1390650Y-154680I0J-2280D01*
G01Y-161950D01*
G01X1365250Y-80950D02*
Y-72350D01*
G02X1367750Y-69850I2500J0D01*
G01X1375450D01*
G02X1377950Y-72350I0J-2500D01*
G01Y-80950D01*
G54D18*
X95250Y123850D03*
Y142850D03*
X114300Y123850D03*
Y142850D03*
X361950Y66700D03*
Y85700D03*
X381000Y66700D03*
Y85700D03*
X1009650Y-320700D03*
Y-339700D03*
X1073150Y-250800D03*
X1054100D03*
X1092200Y-314300D03*
Y-295300D03*
X1073150Y-231800D03*
X1054100D03*
X1149350Y-1266800D03*
Y-1247800D03*
Y-358750D03*
Y-339750D03*
X1168400D03*
Y-358750D03*
X1111250Y-314300D03*
Y-295300D03*
X1149350D03*
Y-314300D03*
X1168400D03*
Y-295300D03*
X1225550D03*
Y-314300D03*
X1244600Y-295300D03*
Y-314300D03*
X1219200Y-180950D03*
Y-161950D03*
X1263650Y-358750D03*
Y-339750D03*
X1276350Y-180950D03*
Y-161950D03*
X1371600Y-180950D03*
X1390650D03*
X1333500D03*
X1371600Y-161950D03*
X1390650D03*
X1333500D03*
G54D27*
X1066800Y-406400D03*
X1104900D03*
X1066800Y-355600D03*
X1162050Y-1225550D03*
Y-1295400D03*
X1123950Y-139700D03*
Y-88900D03*
X1206500Y-209550D03*
X1238250D03*
X1314450Y-336550D03*
Y-368300D03*
X1276350Y-209550D03*
G54D19*
X88900Y304800D03*
Y321800D03*
X184150Y101600D03*
Y84600D03*
X203200Y-772550D03*
Y-789550D03*
X222250Y-40250D03*
Y-23250D03*
X317500Y-499500D03*
Y-516500D03*
X336550Y-40250D03*
Y-23250D03*
Y42300D03*
Y59300D03*
X444500Y-40250D03*
Y-23250D03*
X419100Y169300D03*
Y186300D03*
X641350Y-40250D03*
Y-23250D03*
X946150Y-33900D03*
Y-16900D03*
X1009650Y-300600D03*
Y-283600D03*
X1092200Y-340750D03*
Y-357750D03*
X1073150Y-199000D03*
Y-182000D03*
X1060450Y-143900D03*
Y-160900D03*
X1079500Y-143900D03*
Y-160900D03*
Y-84700D03*
Y-67700D03*
X1168400Y-1265800D03*
Y-1248800D03*
X1111250Y-357750D03*
Y-340750D03*
X1130300Y-357750D03*
Y-340750D03*
X1187450Y-357750D03*
Y-340750D03*
X1238250Y-162950D03*
Y-179950D03*
X1282700Y-357750D03*
Y-340750D03*
X1314450Y-179950D03*
Y-162950D03*
X1257300D03*
Y-179950D03*
X1295400Y-91050D03*
Y-74050D03*
X1333500Y-91050D03*
Y-74050D03*
G54D28*
X1034750Y-314300D03*
Y-304800D03*
Y-295300D03*
X1060750D03*
Y-304800D03*
Y-314300D03*
G54D29*
X1098550Y-249250D03*
Y-195250D03*
X1136650Y-249250D03*
X1123950D03*
X1111250D03*
Y-195250D03*
X1123950D03*
X1136650D03*
X1390650Y-134950D03*
X1377950D03*
X1365250D03*
X1352550D03*
Y-80950D03*
X1365250D03*
X1377950D03*
X1390650D03*
M02*
